<svg id="Layer_1" height="512" viewBox="0 0 512 512" width="512" xmlns="http://www.w3.org/2000/svg" data-name="Layer 1"><path d="m77.659 111.553a36.826 36.826 0 0 0 13-2.36 36.934 36.934 0 0 1 0-69.137 36.93 36.93 0 1 0 -13 71.5z" fill="#d4e1f4"/><path d="m42 450.416a34.291 34.291 0 0 1 21.286-31.728 34.286 34.286 0 1 0 0 63.456 34.291 34.291 0 0 1 -21.286-31.728z" fill="#d4e1f4"/><g fill="#1ae5be"><path d="m27.64 338.514h163.812v12h-163.812z" transform="matrix(.483 -.875 .875 .483 -245.001 273.899)"/><path d="m-106.867 257.865h312.152v12h-312.152z" transform="matrix(.086 -.996 .996 .086 -217.916 290.145)"/><path d="m109.293 68.542 169.17 131.407 7.361-9.476-166.68-129.473h125.856v-12h-137v12h7.152z"/><path d="m239.005 228.421h12v158.657h-12z" transform="matrix(.52 -.854 .854 .52 -145.263 357.025)"/><path d="m299.918 398.653-218.482 56.427 3.001 11.619 222.331-56.569z"/><path d="m349.125 336-35.181-101.739-11.345 3.91 33.088 96z"/><path d="m271.235 218.449-90.666 20.539 2.651 11.703 94.28-21.691z"/><path d="m114.895 102.41h12v139.766h-12z" transform="matrix(.915 -.404 .404 .915 -59.312 63.546)"/><path d="m348.18 293.393h151.121v12h-151.121z" transform="matrix(.599 -.801 .801 .599 -69.875 459.192)"/><path d="m288.395 90.634h12v97.709h-12z" transform="matrix(.995 -.099 .099 .995 -12.319 29.706)"/><path d="m379.938 26.391h12v193.811h-12z" transform="matrix(.656 -.755 .755 .656 39.802 333.867)"/><path d="m323.267 206.042h118.775v12h-118.775z" transform="matrix(1 -.002 .002 1 -.423 .765)"/><path d="m79.575 207.737c.156.013.311.018.466.018a6 6 0 0 0 5.976-5.541l.5-6.544a6 6 0 0 0 -11.965-.919l-.5 6.544a6 6 0 0 0 5.523 6.442z"/><path d="m69.476 311.207a6.094 6.094 0 0 0 .616.031 6 6 0 0 0 5.962-5.392l8.113-79.575a6 6 0 0 0 -11.939-1.216l-8.113 79.574a6 6 0 0 0 5.361 6.578z"/></g><path d="m77.659 117.553a42.929 42.929 0 1 0 -42.929-42.928 42.978 42.978 0 0 0 42.929 42.928zm0-73.857a30.929 30.929 0 1 1 -30.929 30.929 30.964 30.964 0 0 1 30.929-30.925z" fill="#0635c9"/><path d="m90.571 450.416a40.286 40.286 0 1 0 -40.285 40.284 40.332 40.332 0 0 0 40.285-40.284zm-40.285 28.284a28.286 28.286 0 1 1 28.285-28.286 28.318 28.318 0 0 1 -28.285 28.286z" fill="#0635c9"/><path d="m280.306 98.223a38.463 38.463 0 1 0 -38.462-38.462 38.506 38.506 0 0 0 38.462 38.462zm0-64.925a26.463 26.463 0 1 1 -26.462 26.463 26.492 26.492 0 0 1 26.462-26.461z" fill="#0635c9"/><path d="m159.3 281.227a28.6 28.6 0 1 0 -28.6-28.6 28.63 28.63 0 0 0 28.6 28.6zm0-45.193a16.6 16.6 0 1 1 -16.6 16.6 16.616 16.616 0 0 1 16.6-16.6z" fill="#0635c9"/><path d="m293.131 380.065a48.229 48.229 0 1 0 48.228-48.229 48.283 48.283 0 0 0 -48.228 48.229zm48.228-36.229a36.229 36.229 0 1 1 -36.228 36.229 36.27 36.27 0 0 1 36.228-36.229z" fill="#0635c9"/><path d="m469.021 178.944a32.979 32.979 0 1 0 32.979 32.979 33.017 33.017 0 0 0 -32.979-32.979zm0 53.958a20.979 20.979 0 1 1 20.979-20.979 21 21 0 0 1 -20.979 20.977z" fill="#0635c9"/><path d="m269.156 212.161a30.056 30.056 0 1 0 30.056-30.061 30.09 30.09 0 0 0 -30.056 30.061zm48.112 0a18.056 18.056 0 1 1 -18.056-18.061 18.076 18.076 0 0 1 18.056 18.061z" fill="#0635c9"/></svg>