<svg id="Layer_5" enable-background="new 0 0 64 64" height="512" viewBox="0 0 64 64" width="512" xmlns="http://www.w3.org/2000/svg"><g><g><circle cx="32" cy="32" fill="#69d6f4" r="12"/><g fill="#fcd770"><path d="m60 38h-8c-1.105 0-2-.895-2-2v-8c0-1.105.895-2 2-2h8c1.105 0 2 .895 2 2v8c0 1.105-.895 2-2 2z"/><path d="m36 62h-8c-1.105 0-2-.895-2-2v-8c0-1.105.895-2 2-2h8c1.105 0 2 .895 2 2v8c0 1.105-.895 2-2 2z"/><path d="m12 38h-8c-1.105 0-2-.895-2-2v-8c0-1.105.895-2 2-2h8c1.105 0 2 .895 2 2v8c0 1.105-.895 2-2 2z"/><path d="m36 14h-8c-1.105 0-2-.895-2-2v-8c0-1.105.895-2 2-2h8c1.105 0 2 .895 2 2v8c0 1.105-.895 2-2 2z"/></g><circle cx="9" cy="60" fill="#ff826e" r="2"/><path d="m59 7c1.66 0 3 1.34 3 3s-1.34 3-3 3h-8-2c-1.66 0-3-1.34-3-3s1.34-3 3-3c0-2.76 2.24-5 5-5s5 2.24 5 5z" fill="#e6e9ed"/><circle cx="11" cy="11" fill="#e6e9ed" r="9"/><path d="m11 12c3.17 0 5.84 2.1 6.7 4.99l.01.01c-.12.12-.23.24-.35.36-1.62 1.63-3.88 2.64-6.36 2.64-2.66 0-5.06-1.16-6.71-3l.01-.01c.86-2.89 3.53-4.99 6.7-4.99z" fill="#ff826e"/><circle cx="11" cy="9" fill="#f0d0b4" r="3"/><path d="m62 50v10c0 1.1-.9 2-2 2h-14c-1.1 0-2-.9-2-2v-10c0-1.1.9-2 2-2h2 12c1.1 0 2 .9 2 2z" fill="#f0d0b4"/></g><g><path d="m9 57c-1.654 0-3 1.346-3 3s1.346 3 3 3 3-1.346 3-3-1.346-3-3-3zm0 4c-.552 0-1-.449-1-1s.448-1 1-1 1 .449 1 1-.448 1-1 1z"/><path d="m4.051 55.05 1.414 1.414c.944-.944 2.2-1.464 3.535-1.464s2.591.52 3.535 1.464l1.414-1.414c-1.322-1.322-3.079-2.05-4.949-2.05s-3.627.728-4.949 2.05z"/><path d="m1.222 52.222 1.414 1.414c3.51-3.509 9.219-3.509 12.729 0l1.414-1.414c-4.29-4.289-11.268-4.289-15.557 0z"/><path d="m59 57h-2v-4h-2v4h-2v-2h-2v2h-2v-6h-2v8h12z"/><path d="m60 25h-8c-1.654 0-3 1.346-3 3v3h-4.051c-.217-2.833-1.341-5.411-3.088-7.447l9.553-9.553h7.586c2.206 0 4-1.794 4-4 0-1.884-1.31-3.468-3.065-3.89-.432-2.888-2.929-5.11-5.935-5.11s-5.503 2.222-5.935 5.11c-1.755.422-3.065 2.006-3.065 3.89 0 2.077 1.596 3.769 3.624 3.962l-8.177 8.177c-2.036-1.747-4.615-2.871-7.447-3.088v-4.051h3c1.654 0 3-1.346 3-3v-8c0-1.654-1.346-3-3-3h-8c-1.654 0-3 1.346-3 3v8c0 1.654 1.346 3 3 3h3v4.051c-2.833.217-5.411 1.341-7.447 3.088l-4.814-4.815c1.411-1.725 2.261-3.926 2.261-6.324 0-5.514-4.486-10-10-10s-10 4.486-10 10 4.486 10 10 10c2.398 0 4.6-.85 6.324-2.262l4.814 4.815c-1.747 2.036-2.871 4.615-3.088 7.447h-4.05v-3c0-1.654-1.346-3-3-3h-8c-1.654 0-3 1.346-3 3v8c0 1.654 1.346 3 3 3h8c1.654 0 3-1.346 3-3v-3h4.051c.217 2.833 1.341 5.411 3.088 7.447l-6.846 6.846 1.414 1.414 6.846-6.846c2.036 1.747 4.615 2.871 7.447 3.088v4.051h-3c-1.654 0-3 1.346-3 3v8c0 1.654 1.346 3 3 3h8c1.654 0 3-1.346 3-3v-8c0-1.654-1.346-3-3-3h-3v-4.051c2.833-.217 5.411-1.341 7.447-3.088l5.177 5.177c-1.475.187-2.624 1.436-2.624 2.962v10c0 1.654 1.346 3 3 3h14c1.654 0 3-1.346 3-3v-10c0-1.654-1.346-3-3-3h-11.586l-6.553-6.553c1.747-2.036 2.871-4.615 3.088-7.447h4.051v3c0 1.654 1.346 3 3 3h8c1.654 0 3-1.346 3-3v-8c0-1.654-1.346-3-3-3zm-23-16h-10v-2h10zm-9-6h8c.552 0 1 .449 1 1v1h-10v-1c0-.551.448-1 1-1zm-1 9v-1h10v1c0 .551-.448 1-1 1h-8c-.552 0-1-.449-1-1zm-23 15h8c.552 0 1 .449 1 1v1h-10v-1c0-.551.448-1 1-1zm9 4v2h-10v-2zm-1 6h-8c-.552 0-1-.449-1-1v-1h10v1c0 .551-.448 1-1 1zm15 18h10v2h-10zm9 6h-8c-.552 0-1-.449-1-1v-1h10v1c0 .551-.448 1-1 1zm1-9v1h-10v-1c0-.551.448-1 1-1h8c.552 0 1 .449 1 1zm-5-9c-1.075 0-2.22-1.527-3.009-4h6.019c-.79 2.473-1.935 4-3.01 4zm-3.519-6c-.244-1.209-.408-2.553-.46-4h7.958c-.052 1.447-.217 2.791-.46 4zm-7.43-4h4.971c.046 1.419.184 2.763.409 4h-4.216c-.627-1.221-1.035-2.57-1.164-4zm10.949-12c1.075 0 2.22 1.527 3.009 4h-6.019c.79-2.473 1.935-4 3.01-4zm3.519 6c.244 1.209.408 2.553.46 4h-7.958c.052-1.447.217-2.791.46-4zm-9.497 4h-4.971c.13-1.43.537-2.779 1.164-4h4.216c-.225 1.237-.364 2.581-.409 4zm11.956 2h4.971c-.13 1.43-.537 2.779-1.164 4h-4.216c.225-1.237.364-2.581.409-4zm0-2c-.046-1.419-.184-2.763-.409-4h4.216c.626 1.221 1.034 2.57 1.164 4zm9.022-21c0-1.103.897-2 2-2h1v-1c0-2.206 1.794-4 4-4 1.914 0 3.519 1.352 3.909 3.151-1.677.476-2.909 2.021-2.909 3.849h2c0-1.103.897-2 2-2s2 .897 2 2-.897 2-2 2h-10c-1.103 0-2-.897-2-2zm-6.521 15h-3.373c-.368-1.295-.837-2.422-1.391-3.341 1.873.676 3.517 1.834 4.764 3.341zm-12.193-3.341c-.553.919-1.023 2.046-1.391 3.341h-3.373c1.246-1.507 2.89-2.665 4.764-3.341zm-17.286-18.659c4.411 0 8 3.589 8 8 0 1.466-.403 2.837-1.095 4.02-.894-1.539-2.274-2.731-3.906-3.401.615-.704 1-1.613 1-2.618 0-2.206-1.794-4-4-4s-3.999 1.793-3.999 3.999c0 1.006.386 1.915 1 2.618-1.632.671-3.012 1.862-3.906 3.401-.691-1.182-1.094-2.553-1.094-4.019 0-4.411 3.589-8 8-8zm-2 6c0-1.103.897-2 2-2s2 .897 2 2-.897 2-2 2-2-.897-2-2zm-3.542 7.756c.908-2.231 3.102-3.756 5.542-3.756s4.634 1.525 5.542 3.756c-1.439 1.386-3.391 2.244-5.542 2.244s-4.103-.858-5.542-2.244zm18.063 22.244h3.373c.368 1.295.837 2.422 1.391 3.341-1.873-.676-3.517-1.834-4.764-3.341zm12.193 3.341c.553-.919 1.023-2.046 1.391-3.341h3.373c-1.246 1.507-2.89 2.665-4.764 3.341zm25.286 7.659v10c0 .551-.448 1-1 1h-14c-.552 0-1-.449-1-1v-10c0-.551.448-1 1-1h14c.552 0 1 .449 1 1zm-9-23h8c.552 0 1 .449 1 1v1h-10v-1c0-.551.448-1 1-1zm9 4v2h-10v-2zm-1 6h-8c-.552 0-1-.449-1-1v-1h10v1c0 .551-.448 1-1 1z"/></g></g></svg>