<svg id="Layer_5" enable-background="new 0 0 64 64" height="512" viewBox="0 0 64 64" width="512" xmlns="http://www.w3.org/2000/svg"><g><g><g><path d="m32 10h-18v-4c0-2.21 1.79-4 4-4h10v4c0 2.21 1.79 4 4 4z" fill="#969faa"/></g><g><path d="m46 2c2.21 0 4 1.79 4 4v4h-18c1.1 0 2.1-.45 2.83-1.17.72-.73 1.17-1.73 1.17-2.83v-4z" fill="#969faa"/></g><g><path d="m50 50v8c0 2.21-1.79 4-4 4h-28c-2.21 0-4-1.79-4-4v-8z" fill="#969faa"/></g><g><path d="m28 2h8v4c0 1.1-.45 2.1-1.17 2.83-.73.72-1.73 1.17-2.83 1.17-2.21 0-4-1.79-4-4z" fill="#fcd770"/></g><g><path d="m22 55v2c0 .55-.45 1-1 1h-2c-.55 0-1-.45-1-1v-2c0-.55.45-1 1-1h2c.55 0 1 .45 1 1z" fill="#e6e9ed"/></g><g><path d="m36 55v2c0 .55-.45 1-1 1h-6c-.55 0-1-.45-1-1v-2c0-.55.45-1 1-1h6c.55 0 1 .45 1 1z" fill="#e6e9ed"/></g><g><path d="m46 55v2c0 .55-.45 1-1 1h-2c-.55 0-1-.45-1-1v-2c0-.55.45-1 1-1h2c.55 0 1 .45 1 1z" fill="#e6e9ed"/></g><g><path d="m14 10h36v40h-36z" fill="#69d6f4"/></g><g><path d="m62 14v29h-12-16v-29h16z" fill="#e6e9ed"/></g><g><path d="m12.13 33c-.09-.32-.13-.65-.13-1v-2c0-.36.1-.71.27-1 .35-.6.99-1 1.73-1 1.32.66 2.77 1 4.24 1h1.76v3c0 .35-.04.68-.13 1-.26 1.02-.91 1.88-1.79 2.41-.61.38-1.32.59-2.08.59s-1.47-.21-2.08-.59c-.27-.16-.52-.36-.75-.58-.49-.5-.86-1.13-1.04-1.83z" fill="#f0d0b4"/></g><g><path d="m56 22.9c0 .16-.01.31-.03.46-.1.84-.57 1.6-1.21 2.17l-.8.72c-.28-.16-.61-.25-.96-.25h-1-1.76c-1.47 0-2.92-.34-4.24-1-.74 0-1.38.4-1.73 1h-1.27c-.35 0-.68.09-.96.25l-.8-.72c-.64-.57-1.11-1.33-1.21-2.17-.02-.15-.03-.3-.03-.46 0-1.19.56-2.32 1.52-3.04l1.55-1.16c.6-.46 1.34-.7 2.09-.7h.4c.91 0 1.79.36 2.44 1 .65-.64 1.53-1 2.44-1h.4c.75 0 1.49.24 2.09.7l1.55 1.16c.96.72 1.52 1.85 1.52 3.04z" fill="#b27946"/></g><g><path d="m14 21.03c1.28.39 1.67.64 2 .97.65-.64 1.53-1 2.44-1h.4c.75 0 1.49.24 2.09.7l1.55 1.16c.96.72 1.52 1.85 1.52 3.04 0 .16-.01.31-.03.46-.1.84-.57 1.6-1.21 2.17l-.8.72c-.28-.16-.61-.25-.96-.25h-1-1.76c-1.47 0-2.92-.34-4.24-1-.74 0-1.38.4-1.73 1h-1.27c-.35 0-.68.09-.96.25l-.8-.72c-.64-.57-1.11-1.33-1.21-2.17-.02-.15-.03-.3-.03-.46 0-1.19.56-2.32 1.52-3.04l1.55-1.16c.6-.46 1.34-.7 2.09-.7h.4c.15 0 .3.01.44.03z" fill="#b27946"/></g><g><path d="m18.08 35.42c.24 1.04 1.03 1.9 2.1 2.2l2.9.69c1.71.4 2.92 1.93 2.92 3.69h-12-8c0-.88.3-1.7.82-2.36.52-.65 1.24-1.13 2.1-1.33l2.9-.69c1.07-.3 1.86-1.16 2.1-2.2v-.01c.61.38 1.32.59 2.08.59s1.47-.21 2.08-.59z" fill="#f0d0b4"/></g><g><path d="m23 31c0 1.1-.9 2-2 2h-1.13c.09-.32.13-.65.13-1v-3h1c.35 0 .68.09.96.25.17.09.32.2.45.34.37.36.59.86.59 1.41z" fill="#f0d0b4"/></g><g><path d="m12 32c0 .35.04.68.13 1h-1.13c-.55 0-1.05-.22-1.41-.59-.37-.36-.59-.86-.59-1.41 0-.75.42-1.41 1.04-1.75.28-.16.61-.25.96-.25h1.27c-.17.29-.27.64-.27 1z" fill="#f0d0b4"/></g><g><path d="m50.08 32.42c.24 1.04 1.03 1.9 2.1 2.2l2.9.69c1.71.4 2.92 1.93 2.92 3.69h-20c0-.88.3-1.7.82-2.36.52-.65 1.24-1.13 2.1-1.33l2.9-.69c1.07-.3 1.86-1.16 2.1-2.2v-.01c.61.38 1.32.59 2.08.59s1.47-.21 2.08-.59z" fill="#f0d0b4"/></g><g><path d="m51.87 30c.09-.32.13-.65.13-1v-3h1c.35 0 .68.09.96.25.17.09.32.2.45.34.37.36.59.86.59 1.41 0 1.1-.9 2-2 2z" fill="#f0d0b4"/></g><g><path d="m52 29c0 .35-.04.68-.13 1-.26 1.02-.91 1.88-1.79 2.41-.61.38-1.32.59-2.08.59s-1.47-.21-2.08-.59c-.27-.16-.52-.36-.75-.58-.49-.5-.86-1.13-1.04-1.83-.09-.32-.13-.65-.13-1v-2c0-.36.1-.71.27-1 .35-.6.99-1 1.73-1 1.32.66 2.77 1 4.24 1h1.76z" fill="#f0d0b4"/></g><g><path d="m44 29c0 .35.04.68.13 1h-1.13c-.55 0-1.05-.22-1.41-.59-.37-.36-.59-.86-.59-1.41 0-.75.42-1.41 1.04-1.75.28-.16.61-.25.96-.25h1.27c-.17.29-.27.64-.27 1z" fill="#f0d0b4"/></g></g><g><path d="m35 53h-6c-1.103 0-2 .897-2 2v2c0 1.103.897 2 2 2h6c1.103 0 2-.897 2-2v-2c0-1.103-.897-2-2-2zm-6 4v-2h6l.001 2z"/><path d="m21 53h-2c-1.103 0-2 .897-2 2v2c0 1.103.897 2 2 2h2c1.103 0 2-.897 2-2v-2c0-1.103-.897-2-2-2zm-2 4v-2h2l.001 2z"/><path d="m45 53h-2c-1.103 0-2 .897-2 2v2c0 1.103.897 2 2 2h2c1.103 0 2-.897 2-2v-2c0-1.103-.897-2-2-2zm-2 4v-2h2l.001 2z"/><circle cx="32" cy="6" r="1"/><circle cx="46" cy="6" r="1"/><path d="m59 39c0-2.232-1.517-4.15-3.688-4.664l-2.862-.676c-.501-.143-.914-.479-1.17-.917.548-.481.999-1.067 1.296-1.743h.424c1.654 0 3-1.346 3-3 0-.648-.211-1.244-.562-1.735.861-.775 1.404-1.764 1.527-2.785.023-.19.035-.382.035-.575 0-1.506-.719-2.944-1.924-3.847l-1.547-1.16c-.771-.579-1.727-.898-2.691-.898h-.395c-.879 0-1.722.252-2.443.723-.722-.471-1.564-.723-2.443-.723h-.395c-.964 0-1.92.319-2.691.897l-1.547 1.16c-1.205.904-1.924 2.342-1.924 3.848 0 .193.012.385.034.571.123 1.025.667 2.015 1.527 2.789-.35.491-.561 1.087-.561 1.735 0 1.654 1.346 3 3 3h.424c.297.677.748 1.263 1.297 1.744-.254.437-.657.77-1.127.905l-2.905.688c-2.172.513-3.689 2.431-3.689 4.663v1h22zm-14-10v-2c0-.486.349-.893.81-.982 1.379.643 2.904.982 4.426.982h.764v2c0 1.654-1.346 3-3 3s-3-1.346-3-3zm8 0v-2c.552 0 1 .449 1 1s-.448 1-1 1zm-11-1c0-.551.448-1 1-1v2c-.552 0-1-.449-1-1zm1.78-3h-.78c-.257 0-.502.042-.74.103l-.354-.317c-.506-.452-.82-1.002-.887-1.553-.013-.108-.019-.218-.019-.328 0-.879.42-1.72 1.123-2.248l1.547-1.16c.428-.32.958-.497 1.492-.497h.395c.655 0 1.274.253 1.742.713l.701.689.701-.688c.468-.461 1.087-.714 1.742-.714h.395c.534 0 1.064.177 1.492.497l1.547 1.16c.703.528 1.123 1.368 1.123 2.248 0 .11-.006.22-.021.333-.065.547-.38 1.097-.887 1.549l-.354.316c-.237-.061-.482-.103-.738-.103h-1-1.764c-1.309 0-2.619-.309-3.789-.895l-.211-.105h-.236c-.883 0-1.67.391-2.22 1zm-4.597 13c.322-.844 1.042-1.499 1.967-1.718l2.949-.699c1.013-.289 1.85-.964 2.362-1.851.488.16.999.268 1.539.268.541 0 1.052-.108 1.54-.268.514.888 1.36 1.565 2.405 1.863l2.905.688c.925.219 1.645.874 1.967 1.718h-17.634z"/><path d="m25 19h4v4h2v-6h-6z"/><path d="m29 45h-4v2h6v-6h-2z"/><path d="m3 41h-2v6h6v-2h-4z"/><path d="m3 19h4v-2h-6v6h2z"/><path d="m1 31h4v2h-4z"/><path d="m27 31h4v2h-4z"/><path d="m63 13h-12v-7c0-2.757-2.243-5-5-5h-28c-2.757 0-5 2.243-5 5v14.013c-.908.034-1.801.338-2.529.884l-1.547 1.16c-1.205.904-1.924 2.342-1.924 3.848 0 .193.012.385.034.571.123 1.025.667 2.015 1.527 2.789-.35.491-.561 1.087-.561 1.735 0 1.654 1.346 3 3 3h.424c.297.677.748 1.263 1.297 1.744-.254.437-.657.77-1.127.905l-2.905.688c-2.172.513-3.689 2.431-3.689 4.663v1h8v15c0 2.757 2.243 5 5 5h28c2.757 0 5-2.243 5-5v-14h12zm-14-7v3h-13.026c.635-.838 1.026-1.87 1.026-3v-3h9c1.654 0 3 1.346 3 3zm-20 0v-3h6v3c0 1.654-1.346 3-3 3s-3-1.346-3-3zm-11-3h9v3c0 1.13.391 2.162 1.026 3h-13.026v-3c0-1.654 1.346-3 3-3zm-8 28c0-.551.448-1 1-1v2c-.552 0-1-.449-1-1zm1.78-3h-.78c-.257 0-.502.042-.74.103l-.354-.317c-.506-.452-.82-1.002-.887-1.553-.013-.108-.019-.218-.019-.328 0-.879.42-1.72 1.123-2.248l1.547-1.16c.428-.32.958-.497 1.492-.497h.395c.655 0 1.274.253 1.742.713l.701.689.701-.688c.468-.461 1.087-.714 1.742-.714h.395c.534 0 1.064.177 1.492.497l1.547 1.16c.703.528 1.123 1.368 1.123 2.248 0 .11-.006.22-.021.333-.065.547-.38 1.097-.887 1.549l-.354.316c-.237-.061-.482-.103-.738-.103h-1-1.764c-1.309 0-2.619-.309-3.789-.895l-.211-.105h-.236c-.883 0-1.67.391-2.22 1zm9.22 2c.552 0 1 .449 1 1s-.448 1-1 1zm-8 2v-2c0-.486.349-.893.81-.982 1.379.643 2.904.982 4.426.982h.764v2c0 1.654-1.346 3-3 3s-3-1.346-3-3zm-3.851 7.282 2.949-.699c1.013-.289 1.85-.964 2.362-1.851.489.16 1 .268 1.54.268.541 0 1.052-.108 1.54-.268.514.888 1.36 1.565 2.405 1.863l2.905.688c.925.219 1.645.874 1.967 1.718h-17.634c.322-.845 1.042-1.5 1.966-1.719zm36.851 21.718h-28c-1.654 0-3-1.346-3-3v-7h34v7c0 1.654-1.346 3-3 3zm3-12h-34v-6h12v-1c0-2.232-1.517-4.15-3.688-4.664l-2.862-.676c-.501-.143-.914-.479-1.17-.917.548-.481.999-1.067 1.296-1.743h.424c1.654 0 3-1.346 3-3 0-.648-.211-1.244-.562-1.735.861-.775 1.404-1.764 1.527-2.785.023-.19.035-.382.035-.575 0-1.506-.719-2.944-1.924-3.847l-1.547-1.16c-.771-.579-1.727-.898-2.691-.898h-.395c-.879 0-1.722.252-2.443.723-.312-.203-.65-.357-1-.476v-9.247h34v2h-16v31h16zm12-7h-26v-27h26z"/></g></g></svg>