<svg height="512" viewBox="0 0 64 64" width="512" xmlns="http://www.w3.org/2000/svg"><g id="Computer-Book-Elearning-Video-Training"><path d="m57 37a2.006 2.006 0 0 1 2 2 2.015 2.015 0 0 1 -2 2h-42a2.006 2.006 0 0 0 -2 2 2.015 2.015 0 0 0 2 2h42a2.006 2.006 0 0 1 2 2 2.015 2.015 0 0 1 -2 2h-42a6 6 0 0 1 -6-6 6.009 6.009 0 0 1 6-6z" fill="#8b5e3c"/><path d="m15 41h42a2 2 0 0 0 0 4h-42a2.015 2.015 0 0 1 -2-2 2.006 2.006 0 0 1 2-2z" fill="#acabb1"/><path d="m53 49a2.006 2.006 0 0 1 2 2 2.015 2.015 0 0 1 -2 2h-42a2.006 2.006 0 0 0 -2 2 2.015 2.015 0 0 0 2 2h42a2.006 2.006 0 0 1 2 2 2.015 2.015 0 0 1 -2 2h-42a6 6 0 0 1 -6-6 6.009 6.009 0 0 1 6-6z" fill="#ff9811"/><path d="m11 53h42a2 2 0 0 0 0 4h-42a2.015 2.015 0 0 1 -2-2 2.006 2.006 0 0 1 2-2z" fill="#acabb1"/><path d="m48 21v2a4 4 0 0 1 -4 4h-24a4 4 0 0 1 -4-4v-2z" fill="#c6c5ca"/><path d="m48 7v14h-32v-14a4 4 0 0 1 4-4h24a3.995 3.995 0 0 1 4 4z" fill="#5aaae7"/><path d="m40 33a2.006 2.006 0 0 1 2 2 2.015 2.015 0 0 1 -2 2h-16a2.006 2.006 0 0 1 -2-2 2.015 2.015 0 0 1 2-2z" fill="#898890"/><path d="m37 33h-10l.67-4 .33-2h8l.33 2z" fill="#acabb1"/><path d="m34.75 11.17a.99.99 0 0 1 0 1.66l-3.2 2.13a.994.994 0 0 1 -1.55-.83v-4.26a.994.994 0 0 1 1.55-.83z" fill="#ff5023"/><path d="m36.33 29h-8.66l.33-2h8z" fill="#898890"/><path d="m48 7v14h-18l16.83-16.83a4.025 4.025 0 0 1 1.17 2.83z" fill="#3d9ae2"/><path d="m57 44a1 1 0 0 1 0-2 3 3 0 0 0 0-6h-14.18a2.98 2.98 0 0 0 -2.82-4h-2.15l-.67-4h6.82a5 5 0 0 0 5-5v-16a5 5 0 0 0 -5-5h-24a5 5 0 0 0 -5 5v16a5 5 0 0 0 5 5h6.82l-.67 4h-2.15a2.98 2.98 0 0 0 -2.82 4h-6.18a6.988 6.988 0 0 0 -4.83 12.05 7 7 0 0 0 .83 13.95h42a3 3 0 0 0 0-6 1 1 0 0 1 0-2 2.98 2.98 0 0 0 2.82-4h1.18a3 3 0 0 0 0-6zm-40-37a3.009 3.009 0 0 1 3-3h24a3.009 3.009 0 0 1 3 3v13h-30zm3 19a3.009 3.009 0 0 1 -3-3v-1h30v1a3.009 3.009 0 0 1 -3 3zm15.82 6h-7.64l.67-4h6.3zm-11.82 2h16a1 1 0 0 1 0 2h-16a1 1 0 0 1 0-2zm29 18h-42a3 3 0 0 0 0 6h42a1 1 0 0 1 0 2h-42a5 5 0 0 1 0-10h42a1 1 0 0 1 0 2zm-2.82 4h-39.18a1 1 0 0 1 0-2h39.18a2.868 2.868 0 0 0 0 2zm6.82-8h-42a5 5 0 0 1 0-10h42a1 1 0 0 1 0 2h-42a3 3 0 0 0 0 6h42a1 1 0 0 1 0 2zm-2.82-4h-39.18a1 1 0 0 1 0-2h39.18a2.868 2.868 0 0 0 0 2z"/><path d="m43 23h2v2h-2z"/><path d="m62 4h-2v-2h-2v2h-2v2h2v2h2v-2h2z"/><path d="m58 10h2v4h-2z"/><path d="m58 16h2v2h-2z"/><path d="m58 20h2v2h-2z"/><path d="m53 13h2v4h-2z"/><path d="m53 19h2v2h-2z"/><path d="m53 23h2v2h-2z"/><path d="m4 8h2v-2h2v-2h-2v-2h-2v2h-2v2h2z"/><path d="m4 10h2v4h-2z"/><path d="m4 16h2v2h-2z"/><path d="m4 20h2v2h-2z"/><path d="m10 13h2v4h-2z"/><path d="m10 19h2v2h-2z"/><path d="m10 23h2v2h-2z"/><path d="m30.056 15.9a2 2 0 0 0 2.053-.1l3.2-2.132a2 2 0 0 0 0-3.328l-3.2-2.14a2 2 0 0 0 -3.109 1.668v4.264a2 2 0 0 0 1.056 1.768zm4.144-3.9-3.2 2.138v-4.27z"/><path d="m39 7h6v2h-6z"/><path d="m39 11h6v2h-6z"/><path d="m39 15h6v2h-6z"/><path d="m19 7h6v2h-6z"/><path d="m19 11h6v2h-6z"/><path d="m19 15h6v2h-6z"/></g></svg>