<svg height="512pt" viewBox="-49 0 512 512.29499" width="512pt" xmlns="http://www.w3.org/2000/svg"><path d="m132.746094 465.695312c-.398438-5.398437-4-10-9.398438-11.398437l-24.199218-6-14.601563-7.203125h-29l-14.597656 7.203125-24.402344 6c-5.199219 1.398437-9 6-9.398437 11.398437l-2 36.800782c-.199219 2.597656 1.800781 4.597656 4.199218 4.800781h.199219 120.601563c2.597656 0 4.597656-2 4.597656-4.601563v-.199218zm0 0" fill="#e9e9ea"/><path d="m262.347656 465.695312c-.398437-5.398437-4-10-9.398437-11.398437l-24.402344-6.203125-14.597656-7.199219h-28.800781l-14.601563 7.199219-24.398437 6.203125c-5.199219 1.398437-9 6-9.402344 11.398437l-2 36.800782c-.199219 2.597656 1.800781 4.597656 4.203125 4.800781h.199219 120.597656c2.601562 0 4.601562-2 4.601562-4.601563v-.199218zm0 0" fill="#e9e9ea"/><path d="m391.949219 465.695312c-.402344-5.398437-4-10-9.402344-11.398437l-24.398437-6.203125-14.601563-7.199219h-28.800781l-14.597656 7.199219-24.402344 6.203125c-5.199219 1.398437-9 6-9.398438 11.398437l-2 36.800782c-.199218 2.597656 1.800782 4.597656 4.199219 4.800781h.199219 120.601562c2.601563 0 4.601563-2 4.601563-4.601563v-.199218zm0 0" fill="#e9e9ea"/><path d="m282.949219 256.695312-3.402344-60.199218c-.398437-6.800782-5.199219-12.601563-11.800781-14.199219l-30.597656-7.800781-18.402344-9-6.199219 17.800781c-.398437 1-1.398437 1.796875-2.398437 1.796875h-19c-1.199219 0-2-.597656-2.402344-1.796875l-6.199219-17.800781-18.398437 9-30.601563 7.800781c-6.597656 1.597656-11.398437 7.398437-11.800781 14.199219l-3.398438 60.199218c-.199218 4.398438 3.199219 8.199219 7.601563 8.398438h.398437 148.800782c4.398437 0 8-3.597656 8-8-.199219 0-.199219-.199219-.199219-.398438zm0 0" fill="#60bae2"/><path d="m324.148438 274.695312c0-5.199218-4.199219-9.601562-9.601563-9.601562h-230c-5.199219.203125-9.398437 4.601562-9.199219 9.800781.199219 5 4.199219 9 9.199219 9.199219h230.199219c5.203125.203125 9.402344-4 9.402344-9.398438zm0 0" fill="#c1814c"/><path d="m314.746094 315.09375v-30.796875h-230.199219v30.796875zm0 0" fill="#b26e3b"/><path d="m79.949219 421.296875-.601563.199219c-6.800781 2-14 2-20.601562 0l-.796875-.199219c-7.402344-2.203125-14-6.601563-19-12.601563 1.796875 7.800782 6.597656 14.601563 13.398437 19 2 1.199219 3 3.398438 3 5.601563v7.597656h28.800782s0-4.398437 0-7.800781c0-2.199219 1-4.199219 2.800781-5.597656 7-5 11.796875-12.601563 13.199219-21-4.601563 7.199218-11.800782 12.398437-20.199219 14.800781zm0 0" fill="#f9d0b4"/><path d="m110.148438 377.695312c-1.199219 9-3.800782 17.601563-7.800782 25.800782h3.398438c7.203125 1.199218 13.800781-3.601563 15-10.800782.203125-.601562.203125-1.199218.203125-2 0-6.199218-4.601563-11.601562-10.800781-13zm0 0" fill="#f9d0b4"/><path d="m27.949219 377.894531c-6.203125 1.199219-10.601563 6.800781-10.601563 13 .199219 7.199219 6 13 13.199219 12.800781.601563 0 1.199219 0 2-.199218h3c-4-8-6.597656-16.800782-7.597656-25.601563zm0 0" fill="#f9d0b4"/><path d="m209.546875 421.296875-.597656.199219c-6.800781 2-14 2-20.601563 0l-.800781-.199219c-7.398437-2.203125-14-6.601563-19-12.601563 1.800781 7.800782 6.601563 14.601563 13.402344 19 2 1.199219 3 3.398438 3 5.601563v7.597656h28.796875s0-4.398437 0-7.800781c0-2.199219 1-4.199219 2.800781-5.597656 7-5 11.800781-12.601563 13.199219-21-4.597656 7.199218-11.796875 12.398437-20.199219 14.800781zm0 0" fill="#f9d0b4"/><path d="m239.746094 377.695312c-1.199219 9-3.796875 17.601563-7.796875 25.800782h3.199219c7.199218 1.199218 13.800781-3.601563 15-10.800782.199218-.601562.199218-1.199218.199218-2 .199219-6.199218-4.398437-11.601562-10.601562-13zm0 0" fill="#f9d0b4"/><path d="m157.546875 377.894531c-6.199219 1.199219-10.597656 6.800781-10.597656 13 .199219 7.199219 6 13 13.199219 12.800781.597656 0 1.199218 0 2-.199218h3c-4-8-6.601563-16.800782-7.601563-25.601563zm0 0" fill="#f9d0b4"/><path d="m339.148438 421.296875-.601563.199219c-6.800781 2-14 2-20.597656 0l-.800781-.199219c-7.402344-2.203125-14-6.601563-19-12.601563 1.800781 7.800782 6.597656 14.601563 13.398437 19 2 1.199219 3 3.398438 3 5.601563v7.597656h29.199219s0-4.398437 0-7.800781c0-2.199219 1-4.199219 2.800781-5.597656 7-5 11.800781-12.601563 13.199219-21-5 7.199218-12.199219 12.398437-20.597656 14.800781zm0 0" fill="#f9d0b4"/><path d="m369.347656 377.695312c-1.199218 9-3.800781 17.601563-7.800781 25.800782h3.199219c7.203125 1.199218 13.800781-3.601563 15-10.800782.203125-.601562.203125-1.199218.203125-2 .199219-6.199218-4.402344-11.601562-10.601563-13zm0 0" fill="#f9d0b4"/><path d="m287.148438 377.894531c-6.199219 1.199219-10.601563 6.800781-10.601563 13 .199219 7.199219 6 13 13.199219 12.800781.601562 0 1.203125 0 2-.199218h3c-4-8-6.597656-16.800782-7.597656-25.601563zm0 0" fill="#f9d0b4"/><path d="m241.949219 85.695312c-.800781 0-1.800781 0-2.601563.199219 0 .800781.199219 1.800781.199219 2.601563v27.199218c0 .800782 0 1.800782-.199219 2.601563 9 1.398437 17.398438-4.601563 19-13.601563 1.398438-9-4.601562-17.398437-13.601562-19-1 0-1.796875 0-2.796875 0zm0 0" fill="#f9d0b4"/><path d="m160.546875 115.695312v-27.199218c0-.800782 0-1.800782.199219-2.601563-9-1.597656-17.398438 4.601563-19 13.601563-1.597656 9 4.601562 17.398437 13.601562 19 1.800782.398437 3.601563.398437 5.601563 0-.402344-1-.402344-2-.402344-2.800782zm0 0" fill="#f9d0b4"/><path d="m205.949219 67.695312c-14.402344 18.199219-35.601563 15.601563-42.800781 14-1.199219-.199218-2.199219.398438-2.601563 1.601563v.398437 31.800782c0 21.800781 17.800781 39.398437 39.402344 39.398437 21.796875 0 39.398437-17.597656 39.398437-39.398437v-35c0-.199219 0-.402344 0-.601563 0-1.199219-1-2-2-2-16.398437-.398437-25-7-28.398437-10.199219-.800781-1-2-1-3 0zm0 0" fill="#f9d0b4"/><path d="m199.949219 155.09375c-6.203125 0-12.203125-1.398438-17.601563-4.199219v14.601563l6.199219 17.800781c.402344 1 1.402344 1.796875 2.402344 1.796875h19c1.199219 0 2-.796875 2.398437-1.796875l6.199219-17.800781v-15.199219c-5.597656 3.199219-12 4.796875-18.597656 4.796875zm0 0" fill="#f9d0b4"/><path d="m111.148438 365.894531c0-17.800781-14.601563-32.199219-32.402344-32.398437h-9.199219c-6.398437 0-12.199219 3.398437-15.398437 8.800781-3.800782-2.402344-8.402344-3-12.800782-2.203125-8.398437 1.800781-14.398437 9.402344-14.199218 18v8.402344c0 9.800781 1.597656 19.398437 4.800781 28.597656l.796875 2.402344c4 11.597656 13.402344 20.398437 25.203125 23.597656l.796875.203125c6.800781 2 14 2 20.601562 0l.601563-.203125c11.796875-3.398438 21.199219-12.199219 25.199219-23.796875l1.199218-3.203125c3.199219-9 4.800782-18.597656 4.800782-28.199219zm0 0" fill="#6d6c6b"/><path d="m240.746094 365.894531c0-17.800781-14.597656-32.199219-32.398438-32.398437h-9.199218c-6.402344 0-12.199219 3.398437-15.402344 8.800781-3.796875-2.402344-8.398438-3-12.796875-2.203125-8.402344 1.800781-14.402344 9.402344-14.203125 18v8.402344c0 9.800781 1.601562 19.398437 4.800781 28.597656l.800781 2.402344c4 11.597656 13.398438 20.398437 25.199219 23.597656l.800781.203125c6.800782 2 14 2 20.601563 0l.597656-.203125c11.800781-3.398438 21.199219-12.199219 25.199219-23.796875l1.203125-3.203125c3.199219-9 4.796875-18.597656 4.796875-28.199219zm0 0" fill="#6d6c6b"/><path d="m370.347656 365.894531c0-17.800781-14.601562-32.199219-32.398437-32.398437h-9.203125c-6.398438 0-12.199219 3.398437-15.398438 8.800781-3.800781-2.402344-8.398437-3-12.800781-2.203125-8.398437 1.800781-14.398437 9.402344-14.199219 18v8.402344c0 9.800781 1.601563 19.398437 4.800782 28.597656l.800781 2.402344c4 11.597656 13.398437 20.398437 25.199219 23.597656l.800781.203125c6.796875 2 14 2 20.597656 0l.601563-.203125c11.800781-3.398438 21.199218-12.199219 25.199218-23.796875l1.199219-3.203125c3.199219-9 4.800781-18.597656 4.800781-28.199219zm0 0" fill="#6d6c6b"/><path d="m157.949219 85.695312c.796875 0 1.597656 0 2.597656.199219v-1.800781c0-1.199219 1-2 2.199219-2h.402344c7.199218 1.402344 28.398437 4 42.800781-14 .796875-1 2-1 3-.398438 0 0 .199219 0 .199219.199219 3.398437 3.199219 12 9.800781 28.398437 10.199219 1.199219 0 2 1 2 2v.601562 5.199219c5-.800781 10.199219.800781 14 4.402344v-29.800781c0-12.402344-10.199219-22.601563-22.597656-22.601563-4 0-8 1.199219-11.601563 3.199219-4-6.796875-11.398437-11-19.398437-11h-11.601563c-22.398437.203125-40.601562 18.402344-40.601562 40.800781v18.199219c2.800781-2.199219 6.402344-3.398438 10.203125-3.398438zm0 0" fill="#6d6c6b"/><path d="m390.347656 21.09375c-24.800781-22.597656-63.398437-20.796875-86 4-18 19.800781-21 49.203125-7.199218 72.203125.597656 1 .597656 2.398437.199218 3.597656l-10.398437 22.402344c-.800781 2 0 4.199219 1.796875 5.199219 1 .398437 2.203125.398437 3.203125 0l22.398437-10.402344c1.199219-.597656 2.601563-.398438 3.601563.203125 28.796875 17.199219 66.199219 7.796875 83.398437-21 15.199219-24.800781 10.398438-56.800781-11-76.203125zm0 0" fill="#6dcc6d"/><path d="m110.347656 36.496094c-9-1.800782-15.800781-8.601563-17.601562-17.601563 0-.199219-.199219-.398437-.398438-.398437-.199218 0-.199218.199218-.398437.398437-1.800781 9-8.601563 15.800781-17.601563 17.601563-.199218 0-.398437.199218-.398437.398437s.199219.199219.398437.402344c9 1.796875 15.800782 8.597656 17.601563 17.597656 0 .199219.199219.402344.398437.402344.199219 0 .199219-.203125.398438-.402344 1.800781-9 8.601562-15.800781 17.601562-17.597656.199219 0 .398438-.203125.398438-.402344-.199219-.199219-.199219-.398437-.398438-.398437zm0 0" fill="#60bae2"/><path d="m361.546875 269.695312h17.402344c2.796875 0 5 2.199219 5 5 0 2.800782-2.203125 5-5 5h-17.402344c-2.800781 0-5-2.199218-5-5 0-2.800781 2.199219-5 5-5zm0 0" fill="#fcd770"/><path d="m370.347656 261.09375c2.800782 0 5 2.203125 5 5v17.402344c0 2.800781-2.199218 5-5 5-2.800781 0-5-2.199219-5-5v-17.402344c0-2.796875 2.199219-5 5-5zm0 0" fill="#fcd770"/><path d="m52.949219 224.695312h-17.402344c-2.800781 0-5-2.199218-5-5 0-2.800781 2.199219-5 5-5h17.402344c2.796875 0 5 2.199219 5 5 0 2.800782-2.203125 5-5 5zm0 0" fill="#6dcc6d"/><path d="m44.347656 233.296875c-2.800781 0-5-2.203125-5-5v-17.402344c0-2.800781 2.199219-5 5-5 2.800782 0 5 2.199219 5 5v17.402344c0 2.796875-2.398437 5-5 5zm0 0" fill="#6dcc6d"/><path d="m348.347656 222.894531c1.398438 0 2.601563.601563 3.601563 1.402344.199219.199219.398437.398437.597656.796875.199219.203125.402344.601562.402344.800781.199219.402344.199219.601563.199219 1 0 .402344.199218.601563.199218 1 0 .402344 0 .601563-.199218 1 0 .402344-.199219.601563-.199219 1-.203125.402344-.203125.601563-.402344.800781-.199219.199219-.398437.601563-.597656.800782-1.402344 1.398437-3.601563 1.800781-5.402344 1-.199219-.199219-.597656-.199219-.800781-.402344-.199219-.199219-.597656-.398438-.796875-.597656-.203125-.199219-.402344-.402344-.601563-.800782-.199218-.199218-.398437-.601562-.398437-.800781-.203125-.199219-.203125-.597656-.203125-1 0-.398437 0-.597656-.199219-1 0-.398437 0-.597656.199219-1 0-.398437.203125-.597656.203125-1 .199219-.398437.199219-.597656.398437-.800781.199219-.199219.398438-.597656.601563-.796875.199219-.203125.398437-.402344.796875-.601563.203125-.199218.601562-.398437.800781-.398437.402344-.203125.601563-.203125 1-.203125.199219 0 .601563-.199219.800781-.199219zm0 0" fill="#f75c64"/><path d="m100.546875 87.09375c1.402344 0 2.601563.601562 3.601563 1.402344.199218.199218.398437.398437.597656.800781.203125.199219.402344.597656.402344.796875.199218.402344.199218.601562.199218 1 0 .402344.199219.601562.199219 1 0 .402344 0 .601562-.199219 1 0 .402344-.199218.601562-.199218 1-.199219.402344-.199219.601562-.402344.800781-.199219.199219-.398438.601563-.597656.800781-1.402344 1.398438-3.601563 1.800782-5.402344 1-.199219-.199218-.597656-.199218-.796875-.398437-.203125-.203125-.601563-.402344-.800781-.601563-.199219-.199218-.402344-.398437-.601563-.800781-.199219-.199219-.398437-.597656-.398437-.800781-.199219-.199219-.199219-.597656-.199219-1 0-.398438 0-.597656-.203125-1 0-.398438 0-.597656.203125-1 0-.398438.199219-.597656.199219-1 .199218-.398438.199218-.597656.398437-.796875.199219-.203125.402344-.601563.601563-.800781.199218-.199219.398437-.402344.800781-.601563.199219-.199219.597656-.398437.796875-.398437.402344-.199219.601562-.199219 1-.199219 0-.203125.402344-.203125.800781-.203125zm0 0" fill="#fcd770"/><g fill="#231f20"><path d="m106.746094 512.296875c-2.796875 0-5-2.203125-5-5v-17.800781c0-2.800782 2.203125-5 5-5 2.800781 0 5 2.199218 5 5v17.800781c0 2.796875-2.398438 5-5 5zm0 0"/><path d="m32.546875 512.296875c-2.800781 0-5-2.203125-5-5v-17.800781c0-2.800782 2.199219-5 5-5s5 2.199218 5 5v17.800781c0 2.796875-2.398437 5-5 5zm0 0"/><path d="m130.347656 512.296875h-120.601562c-5.199219 0-9.597656-4.203125-9.597656-9.601563 0-.199218 0-.398437 0-.601562l2-36.796875c.398437-7.601563 5.800781-14 13.199218-15.800781l23.800782-6 14.199218-7c.601563-.402344 1.398438-.601563 2.199219-.601563h28.800781c.800782 0 1.601563.199219 2.199219.601563l14.199219 7 23.800781 6c7.402344 1.800781 12.800781 8.199218 13.199219 15.800781l2 36.796875c.203125 5.203125-3.796875 9.800781-9 10-.199219.203125-.199219.203125-.398438.203125zm-120.199218-10h119.597656l-2-36.402344c-.199219-3.199219-2.398438-6-5.597656-6.800781l-24.402344-6.199219c-.398438 0-.597656-.199219-1-.398437l-13.597656-6.800782h-26.402344l-13.597656 6.800782c-.402344.199218-.601563.199218-1 .398437l-24.402344 6.402344c-3.199219.796875-5.398438 3.597656-5.597656 6.796875zm0 0"/><path d="m84.347656 446.09375h-28.800781c-1.597656 0-5-.597656-5-6.199219v-6.597656c0-.601563-.398437-1.203125-.800781-1.601563-7.796875-5-13.398438-13-15.597656-22-.601563-2.601562 1-5.398437 3.800781-6 1.796875-.398437 3.796875.199219 5 1.800782 4.199219 5.199218 10 9 16.398437 10.800781l.800782.199219c5.800781 1.597656 12 1.597656 18 0l.597656-.199219c7.203125-2 13.402344-6.601563 17.800781-12.601563 1.601563-2.199218 4.601563-2.800781 7-1.199218 1.601563 1.199218 2.402344 3 2 5-1.597656 9.800781-7 18.597656-15.199219 24.398437-.398437.402344-.800781.800781-.800781 1.402344v7.796875 1c-.597656 2.203125-2.800781 4-5.199219 4zm-23.800781-10h18.800781v-2.796875c0-2.601563 1-5.203125 2.601563-7.402344-.203125 0-.402344.199219-.601563.199219l-.601562.203125c-7.398438 2.199219-15 2.199219-22.398438.199219 1.398438 2 2.199219 4.398437 2.199219 6.800781zm0 0"/><path d="m69.148438 427.894531c-4 0-7.800782-.597656-11.601563-1.597656l-.800781-.203125c-13.199219-3.796875-24-13.796875-28.398438-26.796875l-.800781-2.402344c-3.398437-9.800781-5.199219-20-5.199219-30.199219v-8.398437c0-11 7.601563-20.402344 18.199219-22.800781 4-.800782 8.402344-.601563 12.199219.800781 4.402344-4.800781 10.402344-7.402344 17-7.601563h9.203125c20.597656 0 37.398437 16.800782 37.398437 37.398438 0 10.203125-1.601562 20.203125-5 29.800781l-1.199218 3.199219c-4.601563 13-15.199219 23.203125-28.601563 27l-.597656.203125c-4 1-8 1.597656-11.800781 1.597656zm-24.199219-83.199219c-7.203125 0-13 5.800782-13 12.800782v.398437 8.402344c0 9.199219 1.597656 18.199219 4.597656 26.796875l.800781 2.402344c3.601563 10 11.601563 17.597656 21.800782 20.597656l.800781.203125c5.796875 1.597656 12 1.597656 18 0l.597656-.203125c10.199219-3 18.402344-10.597656 21.800781-20.597656l1.199219-3.199219c3-8.601563 4.402344-17.601563 4.402344-26.601563 0-15-12.203125-27.398437-27.402344-27.398437h-9.199219c-4.601562 0-8.800781 2.398437-11 6.398437-1.398437 2.398438-4.398437 3.199219-6.800781 1.800782-2-1-4.199219-1.800782-6.597656-1.800782zm0 0"/><path d="m107.746094 408.695312c-.796875 0-1.597656 0-2.398438-.199218h-3c-2.800781 0-5-2.199219-5-5 0-.800782.199219-1.800782.601563-2.402344 3.597656-7.597656 6-15.597656 7.199219-24 .398437-2.796875 3-4.597656 5.597656-4.199219h.203125c8.597656 1.800781 14.597656 9.199219 14.597656 18 .199219 9.800781-7.800781 17.800781-17.800781 17.800781zm6.203125-23.199218c-1 4.398437-2.203125 8.597656-3.800781 12.800781 1-.402344 2-.800781 2.800781-1.601563 3.398437-2.601562 3.796875-7.800781 1-11.199218zm0 0"/><path d="m30.347656 408.695312c-10 0-18-8-18-18 0-8.601562 6-16 14.601563-17.800781 2.796875-.597656 5.398437 1.199219 6 3.800781v.398438c1 8.402344 3.398437 16.402344 7.199219 24 1.398437 2.402344.597656 5.402344-1.800782 6.800781-.800781.402344-1.601562.601563-2.398437.601563h-2.800781c-1 .199218-2 .199218-2.800782.199218zm-6.199218-23.199218c-2.800782 3.398437-2.199219 8.597656 1.199218 11.398437.800782.601563 1.601563 1 2.398438 1.402344-1.398438-4.203125-2.597656-8.402344-3.597656-12.800781zm0 0"/><path d="m236.347656 512.296875c-2.800781 0-5-2.203125-5-5v-17.800781c0-2.800782 2.199219-5 5-5 2.800782 0 5 2.199218 5 5v17.800781c0 2.796875-2.398437 5-5 5zm0 0"/><path d="m162.148438 512.296875c-2.800782 0-5-2.203125-5-5v-17.800781c0-2.800782 2.199218-5 5-5 2.800781 0 5 2.199218 5 5v17.800781c0 2.796875-2.402344 5-5 5zm0 0"/><path d="m259.949219 512.296875h-120.601563c-5.199218 0-9.601562-4.203125-9.601562-9.601563 0-.199218 0-.398437 0-.601562l2-36.796875c.402344-7.601563 5.800781-14 13.203125-15.800781l23.796875-6 14.203125-7c.597656-.402344 1.398437-.601563 2.199219-.601563h28.800781c.796875 0 1.597656.199219 2.199219.601563l14.199218 7 23.800782 6c7.398437 1.800781 12.800781 8.199218 13.199218 15.800781l2 36.796875c.199219 5.203125-3.800781 9.800781-9 10-.199218.203125-.199218.203125-.398437.203125zm-120.203125-10h119.601562l-2-36.402344c-.199218-3.199219-2.398437-6-5.601562-6.800781l-24.398438-6.199219c-.398437 0-.601562-.199219-1-.398437l-13.601562-6.800782h-26.597656l-13.601563 6.800782c-.398437.199218-.597656.199218-1 .398437l-24.398437 6.199219c-3.199219.800781-5.402344 3.601562-5.601563 6.800781zm0 0"/><path d="m214.148438 446.09375h-28.800782c-1.601562 0-5-.597656-5-6.199219v-6.597656c0-.601563-.398437-1.203125-.800781-1.601563-7.800781-5-13.398437-13-15.597656-22-.601563-2.601562 1-5.398437 3.796875-6 1.800781-.398437 3.800781.199219 5 1.800782 4.203125 5.199218 10 9 16.402344 10.800781l.800781.199219c5.796875 1.597656 12 1.597656 18 0l.597656-.199219c7.199219-2 13.402344-6.601563 17.800781-12.601563 1.601563-2.199218 4.601563-2.800781 7-1.199218 1.601563 1.199218 2.398438 3 2 5-1.601562 9.800781-7 18.597656-15.199218 24.398437-.402344.402344-.800782.800781-.800782 1.402344v7.796875c-.398437 2.601562-2.601562 5-5.199218 5zm-24-10h18.800781v-2.796875c0-2.601563 1-5.203125 2.597656-7.402344-.199219 0-.398437.199219-.597656.199219l-.601563.203125c-7.398437 2-15 2.199219-22.398437.199219 1.398437 2 2.199219 4.398437 2.199219 6.800781zm0 0"/><path d="m198.746094 427.894531c-4 0-7.796875-.597656-11.597656-1.597656l-.800782-.203125c-13.199218-3.796875-24-13.796875-28.601562-26.796875l-.796875-2.402344c-3.402344-9.800781-5.203125-20-5.203125-30.199219v-8.398437c0-11 7.601562-20.402344 18.203125-22.800781 4-.800782 8.398437-.601563 12.199219.800781 4.398437-4.800781 10.398437-7.402344 17-7.601563h9.199218c20.601563 0 37.398438 16.800782 37.398438 37.398438 0 10.203125-1.597656 20.203125-5 29.800781l-1.199219 3.199219c-4.597656 13.203125-15.199219 23.203125-28.597656 27l-.601563.203125c-3.800781 1-7.601562 1.597656-11.601562 1.597656zm-24.199219-83.199219c-7.199219 0-13 5.800782-13 12.800782v.398437 8.402344c0 9.199219 1.601563 18.199219 4.601563 26.796875l.800781 2.402344c3.597656 10 11.597656 17.597656 21.796875 20.597656l.800781.203125c5.800781 1.597656 12 1.597656 18 0l.601563-.203125c10.199218-3 18.398437-10.597656 21.800781-20.597656l1.199219-3.199219c3-8.601563 4.398437-17.601563 4.398437-26.601563 0-15-12.199219-27.398437-27.398437-27.398437h-9.199219c-4.601563 0-8.800781 2.398437-11 6.398437-1.402344 2.398438-4.402344 3.199219-6.800781 1.800782-2-1-4.199219-1.800782-6.601563-1.800782zm0 0"/><path d="m237.347656 408.695312c-.800781 0-1.601562 0-2.398437-.199218h-3c-2.800781 0-5-2.199219-5-5 0-.800782.199219-1.800782.597656-2.402344 3.601563-7.597656 6.199219-15.597656 7.199219-24 .402344-2.796875 3-4.597656 5.601562-4.199219h.199219c8.601563 1.800781 14.601563 9.199219 14.601563 18 .199218 9.800781-7.800782 17.800781-17.800782 17.800781zm6.199219-23.199218c-1 4.398437-2.199219 8.597656-3.800781 12.800781 1-.402344 2-.800781 2.800781-1.601563 3.402344-2.800781 3.800781-7.800781 1-11.199218zm0 0"/><path d="m159.949219 408.695312c-10 0-18-8-18-18 0-8.601562 6-16 14.597656-17.800781 2.800781-.597656 5.402344 1.199219 6 3.800781v.398438c1 8.402344 3.402344 16.402344 7.199219 24 1.402344 2.402344.601562 5.402344-1.796875 6.800781-.800781.402344-1.601563.601563-2.402344.601563h-2.800781c-1 .199218-2 .199218-2.796875.199218zm-6.203125-23.199218c-2.796875 3.398437-2.199219 8.597656 1.203125 11.398437.796875.601563 1.597656 1 2.398437 1.402344-1.398437-4.203125-2.601562-8.402344-3.601562-12.800781zm0 0"/><path d="m365.949219 512.296875c-2.800781 0-5-2.203125-5-5v-17.800781c0-2.800782 2.199219-5 5-5 2.796875 0 5 2.199218 5 5v17.800781c0 2.796875-2.402344 5-5 5zm0 0"/><path d="m291.746094 512.296875c-2.796875 0-5-2.203125-5-5v-17.800781c0-2.800782 2.203125-5 5-5 2.800781 0 5 2.199218 5 5v17.800781c0 2.796875-2.398438 5-5 5zm0 0"/><path d="m389.546875 512.296875h-120.597656c-5.203125 0-9.601563-4.203125-9.601563-9.601563 0-.199218 0-.398437 0-.601562l2-36.796875c.398438-7.601563 5.800782-14 13.199219-15.800781l23.800781-6 14.199219-7c.601563-.402344 1.402344-.601563 2.199219-.601563h29c.800781 0 1.601562.199219 2.203125.601563l14.199219 7 23.800781 6c7.398437 1.800781 12.796875 8.199218 13.199219 15.800781l2 36.796875c.199218 5.203125-3.800782 9.800781-9 10-.402344.203125-.402344.203125-.601563.203125zm-120.199219-10h119.601563l-2-36.402344c-.203125-3.199219-2.402344-6-5.601563-6.800781l-24.398437-6.199219c-.402344 0-.601563-.199219-1-.398437l-13.601563-6.800782h-26.601562l-13.597656 6.800782c-.402344.199218-.601563.199218-1 .398437l-24.402344 6.199219c-3.199219.800781-5.398438 3.601562-5.597656 6.800781zm0 0"/><path d="m343.746094 446.09375h-28.796875c-2.800781 0-5-2.199219-5-5v-7.597656c0-.601563-.402344-1.199219-.800781-1.601563-7.800782-5-13.402344-13-15.601563-22-.597656-2.597656 1-5.398437 3.800781-6 1.800782-.398437 3.800782.199219 5 1.800781 4.199219 5.199219 10 9 16.398438 10.800782l.800781.199218c5.800781 1.601563 12 1.601563 18 0l.601563-.199218c7.199218-2 13.398437-6.601563 17.800781-12.601563 1.597656-2.199219 4.597656-2.800781 7-1.199219 1.597656 1.199219 2.398437 3 2 5-1.601563 9.800782-7 18.601563-15.203125 24.398438-.398438.402344-.796875.800781-.796875 1.402344v2 5.597656 1c-.800781 2.203125-3 4-5.203125 4zm-24-10h18.800781v-2.796875c0-2.601563 1-5.203125 2.601563-7.402344l-.601563.199219-.597656.203125c-7.402344 2.199219-15 2.199219-22.402344.199219 1.402344 2 2.199219 4.398437 2.199219 6.800781zm0 0"/><path d="m328.347656 427.894531c-4 0-7.800781-.597656-11.601562-1.597656l-.796875-.203125c-13.203125-3.796875-24-13.796875-28.402344-26.796875l-.800781-2.402344c-3.398438-9.800781-5.199219-20-5.199219-30.199219v-8.398437c0-11 7.601563-20.402344 18.199219-22.800781 4-.800782 8.402344-.601563 12.203125.800781 4.398437-4.800781 10.398437-7.402344 17-7.601563h9.199219c20.597656 0 37.398437 16.800782 37.398437 37.398438 0 10.203125-1.597656 20.203125-5 29.800781l-1.199219 3.199219c-4.601562 13-15.199218 23.203125-28.601562 27l-.597656.203125c-4 1-7.800782 1.597656-11.800782 1.597656zm-24.199218-83.199219c-7.199219 0-13 5.800782-13 12.800782v.398437 8.402344c0 9.199219 1.597656 18.199219 4.597656 26.796875l.800781 2.402344c3.601563 10 11.601563 17.597656 21.800781 20.597656l.800782.203125c5.800781 1.597656 12 1.597656 18 0l.597656-.203125c10.203125-3 18.402344-10.597656 21.800781-20.597656l1.199219-3.199219c3-8.601563 4.402344-17.601563 4.402344-26.601563 0-15-12.199219-27.398437-27.402344-27.398437h-9.199219c-4.597656 0-8.800781 2.398437-11 6.398437-1.398437 2.398438-4.398437 3.199219-6.800781 1.800782-2-1-4.199219-1.800782-6.597656-1.800782zm0 0"/><path d="m366.949219 408.695312c-.800781 0-1.601563 0-2.402344-.199218h-3c-2.800781 0-5-2.199219-5-5 0-.800782.199219-1.800782.601563-2.402344 3.597656-7.597656 6-15.597656 7.199218-24 .398438-2.796875 3-4.597656 5.601563-4.199219h.199219c8.597656 1.800781 14.597656 9.199219 14.597656 18 .203125 9.800781-7.796875 17.800781-17.796875 17.800781zm6.199219-23.199218c-1 4.398437-2.199219 8.597656-3.800782 12.800781 1-.402344 2-.800781 2.800782-1.601563 3.398437-2.601562 3.800781-7.800781 1-11.199218zm0 0"/><path d="m289.546875 408.695312c-10 0-18-8-18-18 0-8.601562 6-16 14.601563-17.800781 2.800781-.597656 5.398437 1.199219 6 3.800781v.398438c1 8.402344 3.398437 16.402344 7.199218 24 1.398438 2.402344.601563 5.402344-1.800781 6.800781-.800781.402344-1.597656.601563-2.398437.601563h-2.800782c-1 .199218-1.800781.199218-2.800781.199218zm-6.199219-23.199218c-2.800781 3.398437-2.199218 8.597656 1.199219 11.398437.800781.601563 1.601563 1 2.402344 1.402344-1.402344-4.203125-2.601563-8.402344-3.601563-12.800781zm0 0"/><path d="m241.949219 123.496094c-1.203125 0-2.203125-.199219-3.402344-.199219-2.597656-.402344-4.398437-2.601563-4.199219-5.203125 0-.796875 0-1.597656 0-2.398438v-27.199218c0-.800782 0-1.601563 0-2.402344-.199218-2.597656 1.601563-4.796875 4.199219-5.199219 11.800781-1.800781 22.800781 6 24.601563 17.800781 1.800781 11.800782-6 22.800782-17.800782 24.601563-1 .199219-2.199218.199219-3.398437.199219zm2.398437-32.601563v22.402344c6.199219-1.402344 10.199219-7.402344 8.800782-13.601563-1-4.398437-4.402344-7.800781-8.800782-8.800781zm0 0"/><path d="m157.949219 123.496094c-11.800781 0-21.402344-9.601563-21.402344-21.402344 0-11.796875 9.601563-21.398438 21.402344-21.398438 1.199219 0 2.199219 0 3.398437.199219 2.601563.402344 4.398438 2.601563 4.199219 5.199219v2.402344 27.199218 2.398438c.199219 2.601562-1.597656 4.800781-4.199219 5.203125-1.199218.199219-2.199218.199219-3.398437.199219zm-2.402344-32.601563c-6.199219 1.402344-10.199219 7.402344-8.800781 13.601563 1 4.398437 4.402344 7.800781 8.800781 8.800781zm0 0"/><path d="m199.949219 160.09375c-24.601563 0-44.402344-20-44.402344-44.398438v-31.800781c0-4 3.199219-7.199219 7.199219-7.199219.402344 0 1 0 1.402344.199219 7.199218 1.601563 25.398437 3.402344 38-12.199219 1.199218-1.601562 3.199218-2.601562 5.199218-2.601562 2-.199219 4 .601562 5.398438 2 2.601562 2.601562 10.203125 8.402344 25 8.800781 3.800781.199219 6.800781 3.199219 6.800781 7v36c-.199219 24.402344-20 44.199219-44.597656 44.199219zm-34.402344-72.796875v28.398437c0 19 15.402344 34.398438 34.402344 34.398438s34.398437-15.398438 34.398437-34.398438v-33c-13.398437-1-21.800781-5.601562-26.601562-9.398437-14 15.597656-33 15.398437-42.199219 14zm40.402344-19.402344"/><path d="m253.347656 95.296875c-1.199218 0-2.601562-.601563-3.398437-1.402344-2.601563-2.597656-6.203125-3.597656-9.800781-3-2.800782.402344-5.199219-1.398437-5.800782-4.199219 0-.199218 0-.601562 0-.800781v-3.199219c-13.398437-1-21.800781-5.601562-26.601562-9.398437-14.199219 15.796875-33.398438 15.398437-42.597656 14.199219-.199219.800781-.800782 1.597656-1.601563 2.199218-1.199219 1-2.597656 1.398438-4 1.199219-3.199219-.597656-6.398437.402344-9 2.402344-2.199219 1.796875-5.398437 1.398437-7-.800781-.800781-.800782-1-2-1-3.199219v-18.203125c0-25.199219 20.402344-45.796875 45.800781-45.796875h11.601563c8 0 15.597656 3.597656 21 9.796875 3.199219-1.199219 6.597656-1.796875 10-1.796875 15.199219 0 27.597656 12.398437 27.597656 27.597656v29.402344c-.199219 2.597656-2.398437 5-5.199219 5zm-9-14.601563c1.398438.199219 2.601563.398438 4 .800782v-21c0-9.601563-7.800781-17.601563-17.398437-17.601563-3.203125 0-6.402344.800781-9 2.601563-2.402344 1.398437-5.402344.597656-6.800781-1.800782-3.199219-5.199218-8.800782-8.601562-15-8.601562h-11.601563c-19.800781 0-35.800781 16-35.800781 35.800781v10.402344c1.203125-.402344 2.402344-.601563 3.601562-.601563 1.398438-2.800781 4.601563-4.398437 7.800782-3.601562 7.199218 1.601562 25.398437 3.402344 38-12.199219 1.199218-1.597656 3.199218-2.597656 5.199218-2.597656 2-.203125 4 .597656 5.398438 2 2.601562 2.597656 10.203125 8.398437 25 8.796875 3.800781.203125 6.800781 3.203125 6.800781 7zm-34.601562-9.800781"/><path d="m200.546875 211.894531c-.398437 0-.597656 0-1-.199219-.398437 0-.597656-.199218-1-.199218-.199219-.199219-.597656-.199219-.800781-.402344-.199219-.199219-.597656-.398438-.796875-.597656-.203125-.199219-.402344-.402344-.601563-.800782-.199218-.199218-.398437-.601562-.398437-.800781-.203125-.199219-.203125-.597656-.203125-1 0-.398437 0-.597656-.199219-1 0-.398437 0-.597656.199219-1 0-.398437.203125-.597656.203125-1 .199219-.398437.199219-.597656.398437-.800781.199219-.199219.398438-.597656.601563-.796875 2-1.800781 5-1.800781 7 0 1 1 1.398437 2.199219 1.398437 3.597656 0 .402344 0 .601563-.199218 1 0 .402344-.199219.601563-.199219 1-.402344 1-1 1.800781-1.800781 2.199219-.199219.203125-.601563.402344-.800782.402344-.601562.199218-1.199218.398437-1.800781.398437zm0 0"/><path d="m200.546875 232.894531c-1.398437 0-2.597656-.597656-3.597656-1.398437-.203125-.199219-.402344-.402344-.601563-.800782-.199218-.199218-.398437-.601562-.398437-.800781-.203125-.597656-.402344-1.199219-.402344-2 0-1.398437.601563-2.597656 1.402344-3.597656 1.199219-1.203125 2.796875-1.601563 4.597656-1.402344.402344 0 .601563.199219 1 .402344.402344.199219.601563.199219.800781.398437.199219.199219.601563.398438.800782.601563 1 1 1.398437 2.199219 1.398437 3.597656 0 .402344 0 .601563-.199219 1 0 .402344-.199218.601563-.199218 1-.199219.199219-.199219.601563-.402344.800781-.199219.199219-.398438.601563-.597656.800782-1 1-2.199219 1.398437-3.601563 1.398437zm0 0"/><path d="m200.546875 254.09375c-.398437 0-.597656 0-1-.199219-.597656-.199219-1.199219-.398437-1.800781-.800781-.199219-.199219-.597656-.398438-.796875-.597656-1-1-1.402344-2.199219-1.402344-3.601563 0-.398437 0-.597656.199219-1 0-.398437.203125-.597656.203125-1 .199219-.398437.199219-.597656.398437-.800781.199219-.199219.398438-.597656.601563-.796875 2-1.800781 5-1.800781 7 0 .199219.199219.398437.398437.597656.796875.199219.203125.402344.601562.402344.800781.199219.402344.199219.601563.199219 1 0 .402344 0 .601563.199218 1 0 1.402344-.601562 2.601563-1.398437 3.601563-.203125.199218-.402344.398437-.800781.597656-.199219.203125-.601563.402344-.800782.402344-.398437.199218-.601562.199218-1 .199218-.199218.398438-.398437.398438-.800781.398438zm0 0"/><path d="m246.746094 267.296875c-2.796875 0-5-2.203125-5-5v-36.601563c0-2.800781 2.203125-5 5-5 2.800781 0 5 2.199219 5 5v36.601563c0 2.796875-2.199219 5-5 5zm0 0"/><path d="m153.148438 267.296875c-2.800782 0-5-2.203125-5-5v-36.601563c0-2.800781 2.199218-5 5-5 2.800781 0 5 2.199219 5 5v36.601563c0 2.796875-2.199219 5-5 5zm0 0"/><path d="m209.949219 190.296875h-19c-3.203125 0-6.203125-2-7.203125-5.203125l-6.199219-17.796875c-.199219-.601563-.199219-1-.199219-1.601563v-14.601562c0-2.796875 2.199219-5 5-5 .800782 0 1.601563.203125 2.199219.601562 4.800781 2.398438 10 3.601563 15.402344 3.601563 5.796875 0 11.398437-1.402344 16.398437-4.203125 2.398438-1.398438 5.398438-.398438 6.800782 2 .398437.800781.597656 1.601562.597656 2.402344v15.199218c0 .601563 0 1.199219-.199219 1.601563l-6.199219 17.796875c-1.199218 3-4 5.203125-7.398437 5.203125zm-17.203125-10h15.601562l5.398438-15.402344v-6.800781c-8.597656 2.800781-17.796875 3-26.398438.402344v6.398437zm0 0"/><path d="m274.949219 270.296875h-148.800781c-7.199219 0-13-5.800781-13-13 0-.203125 0-.402344 0-.800781l3.398437-60.199219c.402344-9 6.800781-16.601563 15.601563-18.800781l30.199218-7.601563 18-8.800781c2.398438-1.199219 5.398438-.199219 6.601563 2.203125 0 .199219.199219.398437.199219.597656l5.597656 16.199219h15.601562l5.601563-16.199219c1-2.597656 3.796875-4 6.398437-3 .199219 0 .398438.199219.601563.199219l18 8.800781 30.199219 7.601563c8.800781 2.199218 15 9.800781 15.597656 18.800781l3.402344 60.199219c.398437 7.199218-5.199219 13.398437-12.199219 13.800781-.601563 0-.800781 0-1 0zm-95.402344-97.800781-13.398437 6.597656c-.402344.203125-.601563.203125-1 .402344l-30.601563 7.800781c-4.398437 1.199219-7.800781 5-8 9.597656l-3.398437 60.199219c0 1.601562 1.199218 3.203125 2.800781 3.203125h.199219 148.800781c1.597656 0 3-1.402344 3-3v-.203125l-3.402344-60.199219c-.199219-4.597656-3.398437-8.597656-8-9.597656l-30.597656-7.800781c-.402344 0-.601563-.199219-1-.402344l-13.402344-6.597656-4.398437 12.597656c-1 3-4 5-7.199219 5.203125h-19c-3.203125 0-6.203125-2-7.203125-5zm0 0"/><path d="m314.746094 289.296875h-230.199219c-8-.203125-14.398437-6.800781-14.199219-14.800781.199219-7.800782 6.398438-14 14.199219-14.199219h230.199219c8 .199219 14.402344 6.796875 14.203125 14.796875-.402344 7.800781-6.601563 14-14.203125 14.203125zm-230.199219-19c-2.398437.199219-4.398437 2.199219-4.398437 4.597656 0 2.402344 2 4.199219 4.398437 4.402344h230.199219c2.402344-.203125 4.402344-2.203125 4.402344-4.601563 0-2.398437-2-4.199218-4.402344-4.398437zm0 0"/><path d="m314.746094 320.09375h-230.199219c-2.800781 0-5-2.199219-5-5v-30.796875c0-2.800781 2.199219-5 5-5h230.199219c2.800781 0 5 2.199219 5 5v30.796875c0 2.800781-2.398438 5-5 5zm-225.199219-10h220.199219v-20.796875h-220.199219zm0 0"/><path d="m318.546875 72.09375c-2.800781 0-5-2.199219-5-5 0-1.398438.601563-2.597656 1.402344-3.597656.199219-.199219.398437-.402344.796875-.601563.203125-.199219.601562-.398437.800781-.398437.402344-.199219.601563-.199219 1-.199219.601563-.203125 1.402344-.203125 2 0 .402344 0 .601563.199219 1 .199219.402344.199218.601563.199218.800781.398437.199219.199219.601563.402344.800782.601563.199218.199218.398437.398437.597656.800781.203125.199219.402344.597656.402344.796875.199218.402344.199218.601562.199218 1 0 .402344 0 .601562.199219 1 0 2.800781-2.199219 5-5 5zm0 0"/><path d="m338.546875 72.09375c-2.800781 0-5-2.199219-5-5 0-1.398438.601563-2.597656 1.402344-3.597656.199219-.199219.398437-.402344.796875-.601563.203125-.199219.601562-.398437.800781-.398437 2.601563-1 5.402344.199218 6.601563 2.597656.800781 1.800781.398437 4-1 5.402344-.199219.199218-.402344.398437-.800782.597656-.199218.203125-.601562.402344-.800781.402344-.199219.199218-.597656.199218-1 .199218-.398437.398438-.800781.398438-1 .398438zm0 0"/><path d="m358.347656 72.09375c-2.800781 0-5-2.199219-5-5 0-1.398438.601563-2.597656 1.398438-3.597656.203125-.199219.402344-.402344.800781-.601563.199219-.199219.601563-.398437.800781-.398437.398438-.199219.601563-.199219 1-.199219.601563-.203125 1.398438-.203125 2 0 .398438 0 .601563.199219 1 .199219.398438.199218.601563.199218.800782.398437.199218.199219.597656.402344.800781.601563 2 2 2 5.199218 0 7-1 1-2.203125 1.597656-3.601563 1.597656zm0 0"/><path d="m378.347656 72.09375c-2.800781 0-5-2.199219-5-5 0-1.398438.601563-2.597656 1.398438-3.597656.203125-.199219.402344-.402344.800781-.601563.199219-.199219.601563-.398437.800781-.398437 1.800782-.800782 4-.402344 5.398438 1 .203125.199218.402344.398437.601562.800781.199219.199219.398438.597656.398438.796875.203125.402344.203125.601562.203125 1 0 .402344 0 .601562.199219 1 0 1.402344-.601563 2.601562-1.402344 3.601562-.199219.199219-.398438.398438-.796875.601563-.203125.199219-.601563.398437-.800781.398437-.402344.199219-.601563.199219-1 .199219-.199219.199219-.402344.199219-.800782.199219zm0 0"/><path d="m290.347656 133.894531c-4.800781 0-8.800781-4-8.800781-9 0-1.199219.199219-2.597656.800781-3.597656l10.199219-22c-18.398437-31.402344-8-71.800781 23.402344-90.203125 24.796875-14.597656 56.398437-11.398438 77.597656 8 26.800781 24.402344 28.800781 66.203125 4.402344 93-21 23-55.203125 28.203125-82 12.402344l-22 10.199218c-1 1-2.203125 1.199219-3.601563 1.199219zm59-123.597656c-30.800781 0-55.800781 24.796875-56 55.597656 0 10.199219 2.800782 20.199219 8 28.800781 1.398438 2.601563 1.601563 5.601563.398438 8.199219l-9.199219 19.601563 19.601563-9.199219c2.597656-1.203125 5.800781-1 8.398437.398437 26.402344 15.800782 60.800781 7.398438 76.601563-19.199218 15.800781-26.601563 7.398437-60.800782-19.199219-76.601563-8.402344-4.800781-18.402344-7.597656-28.601563-7.597656zm0 0"/></g></svg>