<svg id="Layer_1" height="512" viewBox="0 0 512 512" width="512" xmlns="http://www.w3.org/2000/svg" data-name="Layer 1"><path d="m461.31 55.81v.01h-117.92v-16.14a8.8 8.8 0 0 1 8.8-8.8h100.32a8.8 8.8 0 0 1 8.8 8.8z" fill="#a5e2fb"/><path d="m471.74 54.82h-138.78a8.079 8.079 0 0 0 -8.08 8.09v18.84h154.94v-18.84a8.085 8.085 0 0 0 -8.08-8.09z" fill="#86bdce"/><path d="m487.36 81h-173.05a8.156 8.156 0 0 0 -8.31 8.39v285.61l180.53-.278a9.622 9.622 0 0 0 9.47-9.662v-275.67a8.432 8.432 0 0 0 -8.64-8.39z" fill="#a5e2fb"/><path d="m447.92 261h-80.33l.05 48.735 62.94 65.555 17.59-.105z" fill="#86bdce"/><path d="m439.16 417.07-12.31-4.95a1.642 1.642 0 0 1 -1-1.85 78.872 78.872 0 0 0 -.31-31.38 1.846 1.846 0 0 1 .96-2l4.07-1.89h.01l8.09-3.305a1.577 1.577 0 0 0 .88-2.087l-9.71-22.694a1.644 1.644 0 0 0 -2.17-.852l-12.14 5.179a1.636 1.636 0 0 1 -2.01-.6 79.129 79.129 0 0 0 -22.48-22.007 1.665 1.665 0 0 1 -.64-2l4.91-12.21a1.642 1.642 0 0 0 -.92-2.139l-22.95-9.22a1.651 1.651 0 0 0 -2.15.92l-.65 1.61-4.26 10.59a1.635 1.635 0 0 1 -1.84 1 79.487 79.487 0 0 0 -17.61-1.36l-7.31 157.74c10.78 2.58 20.25.82 26.51-.5a1.634 1.634 0 0 1 1.86.96l5.27 12.33a1.66 1.66 0 0 0 2.17.87l22.74-9.7a1.65 1.65 0 0 0 .88-2.16l-5.26-12.3a1.651 1.651 0 0 1 .6-2.01 78.938 78.938 0 0 0 21.96-22.33 1.65 1.65 0 0 1 2-.64l12.36 4.96a1.654 1.654 0 0 0 2.15-.91l9.22-22.92a1.651 1.651 0 0 0 -.92-2.145z" fill="#978cac"/><path d="m344.93 350.3a45.84 45.84 0 0 1 0 91.68z" fill="#7e788e"/><path d="m391.43 208.65h23.35v23.51h-23.35z" fill="#86bdce"/><path d="m16 203.04h33.86v188.19h-33.86z" fill="#f58387"/><path d="m49.86 164v14.04h-33.86v-14.04a16.93 16.93 0 0 1 33.86 0z" fill="#53d8d8"/><path d="m49.86 391.23v.62a17.864 17.864 0 0 1 -2.35 8.85l-14.58 25.57-14.58-25.57a17.864 17.864 0 0 1 -2.35-8.85v-.62z" fill="#e1b7a3"/><path d="m445.6 157.06h23.48v23.52h-23.48z" fill="#86bdce"/><path d="m332.59 107.09h23.48v23.51h-23.48z" fill="#86bdce"/><path d="m445.6 107.09h23.48v23.51h-23.48z" fill="#86bdce"/><path d="m391.36 107.09h23.48v23.51h-23.48z" fill="#86bdce"/><path d="m344.04 174.04-81.03-81.19a9.767 9.767 0 0 0 -4.45-1.07h-161.22a26.076 26.076 0 0 0 -26.09 26.06v337.64a26.078 26.078 0 0 0 26.09 26.07h221.51a26.091 26.091 0 0 0 26.08-26.07v-277.39a9.534 9.534 0 0 0 -.89-4.05z" fill="#80aaff"/><path d="m358.62 208.65v23.51h-11.67-2.02v-23.51h1.37z" fill="#86bdce"/><path d="m445.6 208.65h23.48v23.51h-23.48z" fill="#86bdce"/><path d="m391.43 157.06h23.35v23.52h-23.35z" fill="#86bdce"/><path d="m327.95 157.06 16.09 16.98a9.534 9.534 0 0 1 .89 4.05v2.49h13.69v-23.52z" fill="#86bdce"/><path d="m16 177.04h33.86v27h-33.86z" fill="#f3ce7d"/><path d="m342.06 171.17-76.58-76.53a9.8 9.8 0 0 0 -2.47-1.79l-.4 57.68a23.518 23.518 0 0 0 23.52 23.51h57.91a9.516 9.516 0 0 0 -1.98-2.87z" fill="#6994fe"/><path d="m297.89 352.55a33.67 33.67 0 0 1 27.38 38.79l-37.74-1.8z" fill="#a5e2fb"/><path d="m273.65 357.49a3.706 3.706 0 0 1 3.06 4.6l-7.63 29.44a11.917 11.917 0 0 0 -2.17-.19 12.617 12.617 0 0 0 -5.69 23.88l-8.95 33.44a47.017 47.017 0 0 1 14.64-91.7 49.627 49.627 0 0 1 6.74.53z" fill="#f3ce7d"/><path d="m291.38 444.29.01.01a48.222 48.222 0 0 1 -39.12 4.36l8.95-33.44a12.664 12.664 0 0 0 12.91-.91z" fill="#f58387"/><path d="m279.54 403.96a12.625 12.625 0 1 1 -12.63-12.62 11.917 11.917 0 0 1 2.17.19 12.608 12.608 0 0 1 10.46 12.43z" fill="#53d8d8"/><path d="m279.54 403.96 30.44 6.07a3.7 3.7 0 0 1 2.92 4.32 45.191 45.191 0 0 1 -21.51 29.95l-.01-.01-17.25-29.98a12.588 12.588 0 0 0 5.41-10.35z" fill="#5fcda4"/><path d="m101 455.48v-337.64c0-14.39 11.93-25.84 26.34-25.84h-30c-14.41 0-26.34 11.45-26.34 25.84v337.64a26.68 26.68 0 0 0 26.34 26.52h30a26.68 26.68 0 0 1 -26.34-26.52z" fill="#6d94d1"/><g fill="#324d6d"><path d="m32.931 141.085a22.951 22.951 0 0 0 -22.931 22.915v227.847a23.91 23.91 0 0 0 3.136 11.826l14.583 25.565a6 6 0 0 0 10.424 0l14.581-25.564a23.913 23.913 0 0 0 3.136-11.827v-227.847a22.95 22.95 0 0 0 -22.929-22.915zm9.369 256.643-9.37 16.428-9.37-16.427c-.092-.162-.159-.334-.243-.5h19.226c-.083.165-.15.338-.243.499zm1.559-12.5h-21.859v-175.185h21.86zm0-187.186h-21.859v-15h21.86zm0-27h-21.859v-7.042a10.93 10.93 0 0 1 21.86 0z"/><path d="m487.358 74.752h-2.536v-10.845a14.1 14.1 0 0 0 -14.084-14.084h-4.43v-10.139a14.82 14.82 0 0 0 -14.8-14.8h-100.317a14.819 14.819 0 0 0 -14.8 14.8v10.139h-4.431a14.1 14.1 0 0 0 -14.084 14.084v10.845h-3.566a14.658 14.658 0 0 0 -14.641 14.641v30.93l-29.944-29.923a15.7 15.7 0 0 0 -11.168-4.622h-161.222a32.11 32.11 0 0 0 -32.083 32.064v337.641a32.111 32.111 0 0 0 32.083 32.065h221.515a31.946 31.946 0 0 0 20.574-7.486 63.229 63.229 0 0 0 22.443-.419l3.876 9.071a7.66 7.66 0 0 0 10.039 4.033l22.744-9.693a7.65 7.65 0 0 0 4.038-10.043l-3.872-9.059a84.482 84.482 0 0 0 18.673-18.989l9.114 3.659a7.666 7.666 0 0 0 9.951-4.246l9.217-22.924a7.651 7.651 0 0 0 -4.247-9.952l-9.051-3.635a84.456 84.456 0 0 0 -.246-26.588l54.451-.6a15.673 15.673 0 0 0 15.446-15.62v-275.664a14.658 14.658 0 0 0 -14.642-14.641zm-138.968-35.068a2.805 2.805 0 0 1 2.8-2.8h100.315a2.806 2.806 0 0 1 2.8 2.8v10.139h-105.915zm-18.515 24.223a2.087 2.087 0 0 1 2.084-2.084h138.779a2.086 2.086 0 0 1 2.084 2.084v10.845h-142.947zm-60.96 42.649 61.525 61.481h-44.306a17.523 17.523 0 0 1 -17.52-17.461zm70.018 348.927a20.1 20.1 0 0 1 -20.083 20.065h-221.515a20.1 20.1 0 0 1 -20.083-20.065v-337.641a20.1 20.1 0 0 1 20.083-20.064h159.64l-.361 52.757a29.544 29.544 0 0 0 29.52 29.5h52.8zm3.507-292.419h10.183v11.511h-2.1a15.678 15.678 0 0 0 -4.221-7.649zm8.493 51.587h1.69v11.512h-1.69zm73.218 156.857a7.662 7.662 0 0 0 -4.476 8.631 72.632 72.632 0 0 1 .28 29 7.669 7.669 0 0 0 4.656 8.55l8.279 3.324-5.972 14.852-8.33-3.345a7.671 7.671 0 0 0 -9.263 2.934 72.722 72.722 0 0 1 -20.3 20.636 7.663 7.663 0 0 0 -2.754 9.338l3.543 8.292-14.745 6.284-3.561-8.335a7.672 7.672 0 0 0 -8.628-4.474 62.712 62.712 0 0 1 -14.9 1.682 31.836 31.836 0 0 0 2.946-13.4v-7.857a51.393 51.393 0 0 0 11.7-2.748 6 6 0 1 0 -4.1-11.277 39.489 39.489 0 0 1 -7.6 1.922v-78.759a39.411 39.411 0 0 1 7.621 1.932 6 6 0 0 0 4.105-11.276 51.409 51.409 0 0 0 -11.726-2.758v-22.771a73.12 73.12 0 0 1 10.479 1.2 7.661 7.661 0 0 0 8.539-4.652l3.286-8.171 14.88 5.975-3.281 8.162a7.663 7.663 0 0 0 2.947 9.276 72.779 72.779 0 0 1 20.764 20.343 7.665 7.665 0 0 0 9.334 2.756l8.142-3.469 6.293 14.726zm21.426-2.381a7.6 7.6 0 0 0 -.515-1.809l-9.709-22.724a7.662 7.662 0 0 0 -10.038-4.034l-8.908 3.8a84.576 84.576 0 0 0 -19.128-18.742l3.594-8.936a7.649 7.649 0 0 0 -4.247-9.959l-22.163-8.9-.728-31.094h68.4l3.813 102.4zm44.423-4.07a3.631 3.631 0 0 1 -3.58 3.619l-28.467.314-4.041-108.49a6 6 0 0 0 -6-5.776h-80.319a6 6 0 0 0 -6 6.14l1.022 43.641-2.49 6.189a85.209 85.209 0 0 0 -9.194-.831v-71.7h7.69a6 6 0 0 0 6-6v-23.512a6 6 0 0 0 -6-6h-7.69v-16.076h7.69a6 6 0 0 0 6-6v-23.511a6 6 0 0 0 -6-6h-28.19l-18.762-18.749v-42.922a2.644 2.644 0 0 1 2.641-2.641h173.048a2.644 2.644 0 0 1 2.642 2.641z"/><path d="m469.075 101.087h-23.475a6 6 0 0 0 -6 6v23.513a6 6 0 0 0 6 6h23.479a6 6 0 0 0 6-6v-23.513a6 6 0 0 0 -6.004-6zm-6 23.512h-11.475v-11.512h11.479z"/><path d="m356.074 101.087h-23.48a6 6 0 0 0 -6 6v23.513a6 6 0 0 0 6 6h23.48a6 6 0 0 0 6-6v-23.513a6 6 0 0 0 -6-6zm-6 23.512h-11.48v-11.512h11.48z"/><path d="m414.845 101.087h-23.481a6 6 0 0 0 -6 6v23.513a6 6 0 0 0 6 6h23.481a6 6 0 0 0 6-6v-23.513a6 6 0 0 0 -6-6zm-6 23.512h-11.481v-11.512h11.481z"/><path d="m469.075 151.064h-23.475a6 6 0 0 0 -6 6v23.511a6 6 0 0 0 6 6h23.479a6 6 0 0 0 6-6v-23.511a6 6 0 0 0 -6.004-6zm-6 23.511h-11.475v-11.511h11.479z"/><path d="m414.78 151.064h-23.351a6 6 0 0 0 -6 6v23.511a6 6 0 0 0 6 6h23.351a6 6 0 0 0 6-6v-23.511a6 6 0 0 0 -6-6zm-6 23.511h-11.351v-11.511h11.351z"/><path d="m469.075 202.651h-23.475a6 6 0 0 0 -6 6v23.512a6 6 0 0 0 6 6h23.479a6 6 0 0 0 6-6v-23.512a6 6 0 0 0 -6.004-6zm-6 23.512h-11.475v-11.512h11.479z"/><path d="m414.78 202.651h-23.351a6 6 0 0 0 -6 6v23.512a6 6 0 0 0 6 6h23.351a6 6 0 0 0 6-6v-23.512a6 6 0 0 0 -6-6zm-6 23.512h-11.351v-11.512h11.351z"/><path d="m271.605 18.64h-139.505a6 6 0 0 0 0 12h139.5a6 6 0 0 0 0-12z"/><path d="m86.773 30.64h23.332a6 6 0 0 0 0-12h-23.332a6 6 0 0 0 0 12z"/><path d="m271.605 55.067h-87.391a6 6 0 0 0 0 12h87.391a6 6 0 1 0 0-12z"/><path d="m136.034 55.067a6 6 0 0 0 0 12h24.845a6 6 0 1 0 0-12z"/><path d="m370.513 365.619a39.866 39.866 0 0 1 8.881 10.611 6 6 0 1 0 10.4-5.992 51.8 51.8 0 0 0 -11.547-13.8 6 6 0 1 0 -7.73 9.178z"/><path d="m387.573 413.879a6 6 0 0 0 -8.2 2.2 39.814 39.814 0 0 1 -8.888 10.606 6 6 0 1 0 7.723 9.183 51.749 51.749 0 0 0 11.559-13.791 6 6 0 0 0 -2.194-8.198z"/><path d="m388.982 382.287a6 6 0 0 0 -4.883 6.939 40.659 40.659 0 0 1 0 13.855 6 6 0 0 0 4.878 6.942 5.932 5.932 0 0 0 1.039.091 6 6 0 0 0 5.9-4.968 52.6 52.6 0 0 0 .007-17.975 6 6 0 0 0 -6.941-4.884z"/><path d="m115.443 159.536a4.8 4.8 0 1 1 0 9.578 5.1 5.1 0 0 1 -4.053-1.943 6 6 0 1 0 -9.455 7.389 16.963 16.963 0 0 0 7.514 5.48 6 6 0 0 0 11.99-.02 16.743 16.743 0 0 0 -6-32.484 4.8 4.8 0 1 1 0-9.578 5.093 5.093 0 0 1 4.061 1.942 6 6 0 0 0 9.457-7.388 16.949 16.949 0 0 0 -7.51-5.479v-.2a6 6 0 0 0 -12 0v.222a16.743 16.743 0 0 0 6 32.483z"/><path d="m311.154 404.148-26.335-5.248a18.674 18.674 0 0 0 -8.589-11.031l6.288-24.268a9.7 9.7 0 0 0 -8.027-12.046 55.249 55.249 0 0 0 -7.577-.586 53.238 53.238 0 0 0 -38.736 16.8 52.928 52.928 0 0 0 38.738 89.185h.084c25.306-.036 47.089-17.466 51.8-41.442a9.714 9.714 0 0 0 -7.646-11.364zm-37.616-.189a6.624 6.624 0 1 1 -6.624-6.615 6.627 6.627 0 0 1 6.624 6.615zm-25.317 36.626a41.063 41.063 0 0 1 18.693-77.621c1.006 0 2.13.057 3.328.166l-5.8 22.4a18.566 18.566 0 0 0 -10.082 32.136zm18.757 4.368h-.064a42.721 42.721 0 0 1 -7.272-.629l5.841-21.823c.474.036.948.072 1.431.072a18.544 18.544 0 0 0 4.694-.622l11.411 19.832a42.318 42.318 0 0 1 -16.041 3.17zm26.367-9.283-11.71-20.352a18.6 18.6 0 0 0 2.511-4.318l22.354 4.46a38.639 38.639 0 0 1 -13.155 20.21z"/><path d="m292.112 350.931-10.362 36.992a6 6 0 0 0 5.491 7.611l37.74 1.8c.1 0 .193.007.29.007a6 6 0 0 0 5.915-5.022 39.71 39.71 0 0 0 -32.3-45.689 6 6 0 0 0 -6.774 4.301zm27.6 34.141-24.38-1.165 6.73-24.029a27.755 27.755 0 0 1 17.655 25.194z"/><path d="m152.382 141.283h90.358a6 6 0 0 0 0-12h-90.358a6 6 0 0 0 0 12z"/><path d="m152.382 180.257h90.358a6 6 0 0 0 0-12h-90.358a6 6 0 0 0 0 12z"/><path d="m279.822 213.231a6 6 0 0 0 6 6h24a6 6 0 0 0 0-12h-24a6 6 0 0 0 -6 6z"/><path d="m99.812 213.231a6 6 0 0 0 6 6h156.8a6 6 0 0 0 0-12h-156.8a6 6 0 0 0 -6 6z"/><path d="m309.821 246.205h-159.131a6 6 0 0 0 0 12h159.131a6 6 0 0 0 0-12z"/><path d="m105.812 258.205h20.858a6 6 0 0 0 0-12h-20.858a6 6 0 0 0 0 12z"/><path d="m309.821 285.179h-76.433a6 6 0 0 0 0 12h76.433a6 6 0 0 0 0-12z"/><path d="m105.812 297.179h110.133a6 6 0 0 0 0-12h-110.133a6 6 0 0 0 0 12z"/><path d="m188.854 336.153h120.967a6 6 0 0 0 0-12h-120.967a6 6 0 0 0 0 12z"/><path d="m167.631 336.153a6 6 0 0 0 0-12h-61.819a6 6 0 0 0 0 12z"/><path d="m198.034 363.127h-90.358a6 6 0 1 0 0 12h90.358a6 6 0 1 0 0-12z"/><path d="m198.034 402.1h-90.358a6 6 0 0 0 0 12h90.358a6 6 0 0 0 0-12z"/><path d="m198.034 441.075h-90.358a6 6 0 1 0 0 12h90.358a6 6 0 0 0 0-12z"/><path d="m88.773 136.971a6 6 0 0 0 -6 6v56.6a6 6 0 0 0 12 0v-56.6a6 6 0 0 0 -6-6z"/><path d="m88.773 116.751a6 6 0 0 0 -6 6v1.925a6 6 0 0 0 12 0v-1.925a6 6 0 0 0 -6-6z"/></g></svg>