<svg height="511pt" viewBox="-19 0 511 511.99891" width="511pt" xmlns="http://www.w3.org/2000/svg"><path d="m66.160156 94.296875v247.667969h236.34375v-247.667969c0-51.046875-43.835937-91.066406-94.667968-86.4375l-16.550782 1.507813c-4.625.421874-9.28125.421874-13.90625 0l-16.550781-1.507813c-50.832031-4.628906-94.667969 35.390625-94.667969 86.4375zm0 0" fill="#fdbd37"/><path d="m207.835938 7.859375-16.550782 1.507813c-1.925781.175781-3.855468.261718-5.789062.289062 38.308594 8.742188 67.445312 43.027344 67.445312 84.640625v247.667969h49.5625v-247.667969c0-51.046875-43.835937-91.066406-94.667968-86.4375zm0 0" fill="#fa9a39"/><path d="m328.554688 324.484375c-27.59375-14.007813-56.71875-23.746094-86.441407-29.222656-11.507812-2.121094-19.84375-12.179688-19.84375-23.878907v-46.421874h-75.875v46.421874c0 11.699219-8.335937 21.757813-19.84375 23.878907-29.726562 5.476562-58.847656 15.214843-86.441406 29.222656-19.699219 10-32.109375 30.21875-32.109375 52.308594v116.03125c0 6.449219 5.230469 11.679687 11.679688 11.679687h340.984374v-127.710937c0-22.089844-12.410156-42.308594-32.109374-52.308594zm0 0" fill="#fed6a6"/><path d="m328.554688 324.484375c-27.59375-14.007813-56.71875-23.746094-86.441407-29.222656-11.507812-2.121094-19.84375-12.179688-19.84375-23.878907v-46.421874h-49.277343v78.171874c0 11.703126 8.339843 21.757813 19.84375 23.878907 29.726562 5.476562 58.851562 15.21875 86.445312 29.226562 19.695312 10 32.105469 30.214844 32.105469 52.308594v95.957031h49.277343v-127.710937c0-22.089844-12.410156-42.308594-32.109374-52.308594zm0 0" fill="#efc79c"/><path d="m328.554688 324.484375c-27.59375-14.007813-56.71875-23.746094-86.441407-29.222656-5.027343-.925781-9.445312-3.367188-12.832031-6.796875l-19.0625 68.03125c-16.070312 9.058594-35.707031 9.058594-51.773438 0l-19.0625-68.03125c-3.386718 3.429687-7.808593 5.871094-12.835937 6.796875-29.722656 5.476562-58.847656 15.214843-86.441406 29.226562-19.695313 9.996094-32.105469 30.214844-32.105469 52.304688v116.03125c0 6.449219 5.230469 11.679687 11.679688 11.679687h340.984374v-128.066406c0-22-12.429687-42.113281-32.109374-51.953125zm0 0" fill="#51a1c8"/><path d="m328.554688 324.484375c-27.59375-14.007813-56.71875-23.746094-86.441407-29.222656-5.027343-.925781-9.445312-3.367188-12.832031-6.796875l-12.324219 43.980468c21.34375 5.675782 42.238281 13.597657 62.324219 23.789063 19.695312 10 32.105469 30.21875 32.105469 52.308594v95.960937h49.277343v-127.710937c0-22.089844-12.410156-42.308594-32.109374-52.308594zm0 0" fill="#4497b7"/><path d="m101.136719 117.78125h-13.792969c-11.707031 0-21.183594 9.492188-21.183594 21.195312v10.027344c0 11.707032 9.476563 21.195313 21.183594 21.195313h13.792969zm0 0" fill="#fed6a6"/><path d="m267.527344 117.78125h13.792968c11.707032 0 21.183594 9.492188 21.183594 21.195312v10.027344c0 11.707032-9.480468 21.195313-21.183594 21.195313h-13.792968zm0 0" fill="#fed6a6"/><path d="m181.957031 67.222656c-32.316406 30.726563-72.734375 37.964844-83.980469 39.433594-1.734374.226562-3.023437 1.710938-3.015624 3.457031l.273437 71.839844c0 59.230469 62.179687 87.121094 89.097656 87.699219 26.917969-.578125 89.09375-28.46875 89.09375-87.699219l.277344-71.839844c.007813-1.746093-1.28125-3.230469-3.015625-3.457031-11.246094-1.46875-51.664062-8.707031-83.980469-39.433594-1.328125-1.261718-3.421875-1.261718-4.75 0zm0 0" fill="#ffe3c2"/><path d="m270.6875 106.65625c-7.085938-.925781-25.761719-4.148438-46.691406-14.089844l-.117188 89.386719c0 44.683594-35.382812 71.523437-64.320312 82.265625 9.421875 3.496094 18.160156 5.289062 24.773437 5.433594 26.917969-.578125 89.09375-28.46875 89.09375-87.699219l.277344-71.839844c.003906-1.746093-1.28125-3.230469-3.015625-3.457031zm0 0" fill="#f7d6b5"/><path d="m184.332031 448.894531-44.949219-160.429687s-14.492187.882812-25.445312 4.417968c-4.804688 1.550782-8.835938 4.175782-11.699219 7.429688l-24.167969 27.46875c-1.566406 1.777344-.859374 4.570312 1.359376 5.394531l36.191406 13.410157c2.011718.746093 2.828125 3.152343 1.683594 4.964843l-9.378907 14.882813c-.828125 1.316406-.648437 3.03125.433594 4.148437zm0 0" fill="#3990b2"/><path d="m184.332031 448.894531 44.949219-160.429687s14.492188.882812 25.445312 4.417968c4.804688 1.550782 8.835938 4.175782 11.699219 7.429688l24.167969 27.46875c1.566406 1.777344.859375 4.570312-1.359375 5.394531l-36.195313 13.410157c-2.007812.746093-2.824218 3.152343-1.679687 4.964843l9.375 14.882813c.832031 1.316406.652344 3.03125-.429687 4.148437zm0 0" fill="#3990b2"/><path d="m158.445312 356.496094 25.886719 92.398437 25.886719-92.398437c-16.070312 9.058594-35.707031 9.058594-51.773438 0zm0 0" fill="#fc6a58"/><path d="m442.410156 355.621094h-175.972656c-12.695312 0-22.988281 10.292968-22.988281 22.992187v102.898438c0 12.699219 10.292969 22.992187 22.988281 22.992187h175.972656c12.695313 0 22.988282-10.296875 22.988282-22.992187v-102.898438c.003906-12.699219-10.292969-22.992187-22.988282-22.992187zm0 0" fill="#d08f61"/><path d="m442.410156 355.621094h-46.371094c10.933594 0 19.800782 8.863281 19.800782 19.800781v109.28125c0 10.933594-8.867188 19.800781-19.800782 19.800781h46.371094c12.695313 0 22.988282-10.296875 22.988282-22.992187v-102.898438c.003906-12.699219-10.292969-22.992187-22.988282-22.992187zm0 0" fill="#c67f4f"/><path d="m465.375 378.136719c-.253906-12.476563-10.429688-22.515625-22.964844-22.515625h-175.972656c-12.535156 0-22.707031 10.039062-22.964844 22.515625.507813 26.253906 21.9375 47.382812 48.3125 47.382812h125.277344c26.375 0 47.804688-21.128906 48.3125-47.382812zm0 0" fill="#8b5f46"/><path d="m465.375 378.136719c0-.097657.003906-.203125.003906-.300781-.410156-12.335938-10.535156-22.214844-22.96875-22.214844h-46.371094c10.933594 0 19.800782 8.863281 19.800782 19.800781v50.097656h1.222656c26.375 0 47.804688-21.128906 48.3125-47.382812zm0 0" fill="#844535"/><path d="m374.4375 437.652344h-40.027344c-2.246094 0-4.066406-1.816406-4.066406-4.0625v-16.144532c0-2.242187 1.820312-4.0625 4.066406-4.0625h40.027344c2.246094 0 4.066406 1.816407 4.066406 4.0625v16.144532c0 2.246094-1.820312 4.0625-4.066406 4.0625zm0 0" fill="#e4ebf0"/><path d="m175.0625 158.667969v19.921875c0 5.863281 4.769531 10.632812 10.632812 10.632812h6.566407c4.140625 0 7.5-3.355468 7.5-7.5 0-4.144531-3.359375-7.5-7.5-7.5h-2.199219v-15.554687c0-4.144531-3.355469-7.5-7.5-7.5s-7.5 3.359375-7.5 7.5zm0 0"/><path d="m160.882812 206.472656c-2.21875-3.5-6.851562-4.539062-10.351562-2.324218-3.5 2.214843-4.542969 6.847656-2.328125 10.347656 7.011719 11.078125 20.855469 17.960937 36.132813 17.960937 15.273437 0 29.121093-6.882812 36.128906-17.960937 2.214844-3.5 1.171875-8.132813-2.328125-10.347656-3.5-2.214844-8.132813-1.171876-10.347657 2.324218-4.222656 6.675782-13.429687 10.984375-23.453124 10.984375-10.027344 0-19.234376-4.308593-23.453126-10.984375zm0 0"/><path d="m229.941406 156.710938c4.140625 0 7.5-3.355469 7.5-7.5v-9.074219c0-4.144531-3.359375-7.5-7.5-7.5-4.144531 0-7.503906 3.355469-7.503906 7.5v9.074219c0 4.144531 3.359375 7.5 7.503906 7.5zm0 0"/><path d="m138.722656 132.636719c-4.144531 0-7.5 3.355469-7.5 7.5v9.074219c0 4.144531 3.355469 7.5 7.5 7.5 4.144532 0 7.5-3.355469 7.5-7.5v-9.074219c0-4.144531-3.359375-7.5-7.5-7.5zm0 0"/><path d="m8 415.59375c4.144531 0 7.5-3.359375 7.5-7.5v-31.304688c0-19.371093 10.730469-36.851562 28.003906-45.621093 11.273438-5.722657 22.933594-10.765625 34.863282-15.085938 0 0-5.925782 6.734375-5.929688 6.742188-4.945312 5.621093-2.621094 14.78125 4.386719 17.378906l31.425781 11.644531-6.667969 10.582032c-2.683593 4.261718-2.109375 9.757812 1.398438 13.371093 0 0 75.933593 78.273438 75.96875 78.3125 2.90625 2.996094 7.894531 2.980469 10.785156-.019531l51.527344-53.117188c2.785156 5.910157 6.625 11.335938 11.414062 16.039063 10.5 10.316406 24.390625 15.996094 39.109375 15.996094h31.0625c0 6.378906 5.1875 12.136719 11.5625 12.136719h40.03125c6.375 0 11.5625-4.398438 11.5625-12.136719h31.0625c14.71875 0 28.609375-5.679688 39.109375-15.996094 10.484375-10.296875 16.414063-24.054687 16.699219-38.738281.003906-.101563.003906-.199219 0-.300782-.339844-16.464843-14.007812-29.859374-30.464844-29.859374h-44.722656v-14.53125c0-10.226563-8.894531-18.550782-19.824219-18.550782 0 0-49.496093.121094-50.746093.355469-5.625-2.738281-11.332032-5.3125-17.113282-7.726563v-213.371093c0-26.433594-11.195312-51.816407-30.714844-69.636719-19.519531-17.820312-45.8125-26.667969-72.136718-24.269531-15.3125 1.394531-30.15625 1.410156-45.644532 0-26.328124-2.398438-52.613281 6.449219-72.132812 24.269531-19.519531 17.824219-30.714844 43.203125-30.714844 69.636719v213.371093c-7.445312 3.105469-14.773437 6.488282-21.945312 10.128907-22.339844 11.339843-36.214844 33.945312-36.214844 58.996093v31.304688c0 4.140625 3.355469 7.5 7.5 7.5zm108.003906-47.910156s7.640625-12.128906 7.648438-12.140625c3.628906-5.761719.941406-13.636719-5.421875-15.992188l-30.566407-11.328125 20.203126-22.957031c2.046874-2.328125 4.941406-4.144531 8.375-5.25 5.746093-1.855469 12.734374-2.925781 17.609374-3.5l35.285157 125.941406zm150.183594-254.109375-.261719 68.375c0 29.597656-17.132812 48.902343-31.503906 59.882812-17.71875 13.539063-38.335937 20.003907-50.089844 20.3125-11.753906-.308593-32.371093-6.773437-50.089843-20.3125-14.371094-10.980469-31.507813-30.285156-31.507813-59.910156l-.261719-68.347656c14.941406-2.402344 51.300782-10.828125 81.859375-38.335938 30.558594 27.507813 66.917969 35.933594 81.855469 38.335938zm-82.015625 163.570312h.160156.160157c7.980468-.171875 18.765624-2.460937 30.277343-7.082031 0 8.746094 2.179688 14.769531 6.210938 20.210938l-17.109375 61.070312c-12.292969 5.875-26.785156 5.875-39.082032 0l-17.109374-61.070312c4.03125-5.441407 6.640624-11.714844 6.214843-20.210938 11.511719 4.621094 22.296875 6.910156 30.277344 7.082031zm.160156 143.945313-14.605469-52.128906c9.570313 2.371093 19.636719 2.371093 29.207032 0h.003906zm15.195313 1.367187 35.285156-125.941406c4.863281.570313 11.839844 1.640625 17.609375 3.5 3.429687 1.109375 6.324219 2.921875 8.371094 5.25l20.203125 22.960937s-30.519532 11.308594-30.5625 11.324219c-7.050782 2.609375-8.570313 10.996094-4.84375 16.914063 0 0-11.265625 9.65625-9.164063 27.953125zm113.664062-97.042969c-1.300781 2.464844-2.03125 5.242188-2.03125 8.171876v14.53125h-40.675781s21.328125-7.90625 21.351563-7.914063c6.957031-2.578125 9.277343-11.824219 4.390624-17.382813l-5.929687-6.738281c7.753906 2.808594 15.398437 5.921875 22.894531 9.332031zm31.179688 22.703126h-18.207032c0-14.121094-.007812-15.746094.492188-16.136719 3.554688 1.554687 6.933594 4.375 9.777344 6.964843 2.996094 2.726563 5.667968 5.8125 7.9375 9.171876zm26.632812 82.03125h-33.160156v-9.269532h33.160156zm86.871094-52.003907c-.515625 22-18.789062 39.867188-40.8125 39.867188h-31.058594c0-7.347657-5.191406-12.132813-11.566406-12.132813h-40.027344c-6.378906 0-11.566406 4.742188-11.566406 12.132813h-31.058594c-22.023437 0-40.296875-17.867188-40.8125-39.867188.246094-8.300781 7.15625-15.027343 15.464844-15.027343h175.972656c8.308594 0 15.214844 6.726562 15.464844 15.027343zm-75.1875-44.558593v14.53125h-21.066406c-3.242188-6.746094-7.574219-12.847657-12.800782-18.082032h29.042969c2.613281 0 4.824219 1.628906 4.824219 3.550782zm-111.695312-39.378907c-3.707032-3.792969-8.5-6.703125-13.960938-8.464843-8.597656-2.773438-18.929688-4.023438-24.074219-4.507813-2.070312-2.851563-3.1875-6.269531-3.1875-9.855469v-8.546875c4.65625-2.640625 9.285157-5.664062 13.757813-9.078125 17.0625-13.039062 37.398437-36.078125 37.398437-71.777344l.019531-4.28125s5.410157.457032 14.058594-3.480468v127.621094c-7.902344-2.851563-15.917968-5.398438-24.011718-7.628907zm24.011718-145.207031c0 7.550781-6.136718 13.695312-13.683594 13.695312h-.320312l.144531-37.417968h.175781c7.542969 0 13.683594 6.144531 13.683594 13.695312zm-195.515625-113.265625c16.414063-14.988281 38.53125-22.421875 60.660157-20.410156 16.234374 1.476562 31.953124 1.496093 48.367187 0 22.125-2.007813 44.242187 5.421875 60.65625 20.410156 16.417969 14.988281 25.832031 36.332031 25.832031 58.558594v19.46875c-4.070312-2.222657-8.734375-3.484375-13.683594-3.484375h-.121093v-.140625c.019531-5.515625-4.082031-10.210938-9.542969-10.921875-10.988281-1.4375-49.226562-8.375-79.785156-37.433594-4.230469-4.019531-10.855469-4.019531-15.085938 0-30.558594 29.058594-68.792968 35.996094-79.78125 37.433594-5.464844.710937-9.566406 5.410156-9.546875 10.921875v.140625h-.117187c-4.949219 0-9.613282 1.261718-13.683594 3.484375v-19.46875c.003906-22.226563 9.417969-43.570313 25.832031-58.558594zm-25.828125 103.238281c0-7.550781 6.136719-13.695312 13.683594-13.695312h.175781l.140625 37.417968h-.316406c-7.546875 0-13.683594-6.144531-13.683594-13.695312zm0 35.242188c5.953125 3.820312 14.058594 3.480468 14.058594 3.480468l.015625 4.253907c0 35.726562 20.339844 58.765625 37.398437 71.804687 4.476563 3.414063 9.105469 6.4375 13.761719 9.078125v8.546875c0 3.585938-1.121093 7.003906-3.191406 9.855469-5.140625.484375-15.472656 1.734375-24.070313 4.507813-5.460937 1.761718-10.253906 4.671874-13.960937 8.464843-8.097656 2.230469-16.109375 4.777344-24.011719 7.628907zm0 0"/><path d="m465.402344 421.144531c-4.144532 0-7.5 3.355469-7.5 7.5v52.863281c0 8.542969-6.949219 15.492188-15.492188 15.492188h-175.972656c-8.539062 0-15.488281-6.949219-15.488281-15.492188v-52.863281c0-4.144531-3.359375-7.5-7.5-7.5-4.144531 0-7.5 3.355469-7.5 7.5v52.863281c0 5.652344 1.542969 10.949219 4.234375 15.492188h-168.808594v-59.574219c0-4.140625-3.355469-7.5-7.5-7.5s-7.5 3.359375-7.5 7.5v59.574219h-36.695312c-2.304688 0-4.179688-1.875-4.179688-4.183594v-49.804687c0-4.144531-3.355469-7.5-7.5-7.5s-7.5 3.355469-7.5 7.5v49.804687c0 10.578125 8.605469 19.183594 19.179688 19.183594h422.730468c16.8125 0 30.488282-13.679688 30.488282-30.492188v-52.863281c.003906-4.144531-3.355469-7.5-7.496094-7.5zm0 0"/></svg>