<svg id="Capa_1" enable-background="new 0 0 512 512" height="512" viewBox="0 0 512 512" width="512" xmlns="http://www.w3.org/2000/svg"><g><g><path d="m121 106h270c8.284 0 15 6.716 15 15v270c0 8.284-9.193 13.431-17.477 13.431h-266.312c-8.284 0-15-6.716-15-15l-.44-267.413c0-8.284 5.945-16.018 14.229-16.018z" fill="#7dc3ee"/><path d="m406 391c0 8.28-6.72 15-15 15h-270c-8.284 0-15-6.716-15-15v-270c0-8.28 6.72-15 15-15v279c0 3.314 2.686 6 6 6z" fill="#64acdc"/><path d="m138 372v-232c0-1.105.895-2 2-2l11-2h223c1.105 0 2 .895 2 2v223l-2 11c0 1.105-.895 2-2 2h-232c-1.105 0-2-.895-2-2z" fill="#f8f7f7"/><g><path d="m197.428 259.911c-3.858 5.141-1.109 12.83 5.208 13.117.128.006.256.009.386.009h42.995c.655 0 1.208.321 1.548.793.371.516 2.114.962 1.83 1.62l-23.936 54.382c-3.078 7.118-.584 15.344 6.111 17.848 1.415.529 2.96.822 4.598.822 4.109 0 7.979-1.934 10.445-5.221l68.73-91.582c3.936-5.245.194-12.733-6.364-12.733h-42.995c-1.372 0-2.295-1.405-1.751-2.664l23.588-54.558c2.67-6.175.185-12.863-4.892-16.161-2.011-1.307-4.307-.968-6.973-.968-4.109 0-7.979 1.934-10.445 5.221z" fill="#ffd163"/><g fill="#ffb65f"><path d="m263.029 275.702-31.46 71.978c-6.694-2.508-10.471-10.309-7.39-17.422l23.592-54.556c.544-1.259-.381-2.67-1.755-2.67h15.258c1.373-.001 2.298 1.411 1.755 2.67z"/><path d="m282.931 165.579-80.294 107.443c-6.313-.286-9.841-7.581-5.979-12.721l68.727-91.585c1.24-1.64 2.823-2.947 4.615-3.843 1.783-.887 3.776-1.373 5.836-1.373 2.67 0 5.083.772 7.095 2.079z"/></g></g><path d="m376 361v13c0 1.1-.9 2-2 2h-236c-1.1 0-2-.9-2-2v-236c0-1.1.9-2 2-2h13v222c0 1.657 1.343 3 3 3z" fill="#e8e8e8"/><g><g><path d="m382.5 27.5c0-11.046-8.954-20-20-20-2.391 0-4.685.42-6.81 1.189-7.693 2.786-12.339 10.146-12.339 18.8 0 11.046 8.603 18.574 19.649 18.574 8.525 0 15.305-3.898 18.183-11.41.851-2.221 1.317-4.632 1.317-7.153z" fill="#ffd163"/><path d="m381.31 34.31c-2.79 7.7-10.15 13.19-18.81 13.19-11.05 0-20-8.95-20-20 0-8.66 5.49-16.02 13.19-18.81-.77 2.12-1.19 4.42-1.19 6.81 0 11.05 8.95 20 20 20 2.39 0 4.69-.42 6.81-1.19z" fill="#ffb65f"/></g><g><path d="m170.5 27.5c0-11.046-8.954-20-20-20-2.391 0-4.685.42-6.81 1.189-7.693 2.786-12.339 10.146-12.339 18.8 0 11.046 8.603 18.574 19.649 18.574 8.525 0 15.305-3.898 18.183-11.41.851-2.221 1.317-4.632 1.317-7.153z" fill="#ffd163"/><path d="m169.31 34.31c-2.79 7.7-10.15 13.19-18.81 13.19-11.05 0-20-8.95-20-20 0-8.66 5.49-16.02 13.19-18.81-.77 2.12-1.19 4.42-1.19 6.81 0 11.05 8.95 20 20 20 2.39 0 4.69-.42 6.81-1.19z" fill="#ffb65f"/></g><g><path d="m47.5 149.517c0-11.046-8.954-20-20-20-2.391 0-4.685.42-6.81 1.189-7.693 2.786-12.339 10.146-12.339 18.8 0 11.046 8.603 18.574 19.649 18.574 8.525 0 15.305-3.898 18.183-11.41.851-2.221 1.317-4.632 1.317-7.153z" fill="#ffd163"/><path d="m46.31 156.327c-2.79 7.7-10.15 13.19-18.81 13.19-11.05 0-20-8.95-20-20 0-8.66 5.49-16.02 13.19-18.81-.77 2.12-1.19 4.42-1.19 6.81 0 11.05 8.95 20 20 20 2.39 0 4.69-.42 6.81-1.19z" fill="#ffb65f"/></g><g><path d="m47.5 256c0-11.046-8.954-20-20-20-2.391 0-4.685.42-6.81 1.189-7.693 2.786-12.339 10.146-12.339 18.8 0 11.046 8.603 18.574 19.649 18.574 8.525 0 15.305-3.898 18.183-11.41.851-2.221 1.317-4.632 1.317-7.153z" fill="#ffd163"/><path d="m46.31 262.81c-2.79 7.7-10.15 13.19-18.81 13.19-11.05 0-20-8.95-20-20 0-8.66 5.49-16.02 13.19-18.81-.77 2.12-1.19 4.42-1.19 6.81 0 11.05 8.95 20 20 20 2.39 0 4.69-.42 6.81-1.19z" fill="#ffb65f"/></g><g><path d="m47.5 363.483c0-11.046-8.954-20-20-20-2.391 0-4.685.42-6.81 1.189-7.693 2.786-12.339 10.146-12.339 18.8 0 11.046 8.603 18.574 19.649 18.574 8.525 0 15.305-3.898 18.183-11.41.851-2.221 1.317-4.632 1.317-7.153z" fill="#ffd163"/><path d="m46.31 370.293c-2.79 7.7-10.15 13.19-18.81 13.19-11.05 0-20-8.95-20-20 0-8.66 5.49-16.02 13.19-18.81-.77 2.12-1.19 4.42-1.19 6.81 0 11.05 8.95 20 20 20 2.39 0 4.69-.42 6.81-1.19z" fill="#ffb65f"/></g><g><path d="m504.5 149.517c0-11.046-8.954-20-20-20-2.391 0-4.685.42-6.81 1.189-7.693 2.786-12.339 10.146-12.339 18.8 0 11.046 8.603 18.574 19.649 18.574 8.525 0 15.305-3.898 18.183-11.41.851-2.221 1.317-4.632 1.317-7.153z" fill="#ffd163"/><path d="m503.31 156.327c-2.79 7.7-10.15 13.19-18.81 13.19-11.05 0-20-8.95-20-20 0-8.66 5.49-16.02 13.19-18.81-.77 2.12-1.19 4.42-1.19 6.81 0 11.05 8.95 20 20 20 2.39 0 4.69-.42 6.81-1.19z" fill="#ffb65f"/></g><g><path d="m504.5 256c0-11.046-8.954-20-20-20-2.391 0-4.685.42-6.81 1.189-7.693 2.786-12.339 10.146-12.339 18.8 0 11.046 8.603 18.574 19.649 18.574 8.525 0 15.305-3.898 18.183-11.41.851-2.221 1.317-4.632 1.317-7.153z" fill="#ffd163"/><path d="m503.31 262.81c-2.79 7.7-10.15 13.19-18.81 13.19-11.05 0-20-8.95-20-20 0-8.66 5.49-16.02 13.19-18.81-.77 2.12-1.19 4.42-1.19 6.81 0 11.05 8.95 20 20 20 2.39 0 4.69-.42 6.81-1.19z" fill="#ffb65f"/></g><g><path d="m504.5 363.483c0-11.046-8.954-20-20-20-2.391 0-4.685.42-6.81 1.189-7.693 2.786-12.339 10.146-12.339 18.8 0 11.046 8.603 18.574 19.649 18.574 8.525 0 15.305-3.898 18.183-11.41.851-2.221 1.317-4.632 1.317-7.153z" fill="#ffd163"/><path d="m503.31 370.293c-2.79 7.7-10.15 13.19-18.81 13.19-11.05 0-20-8.95-20-20 0-8.66 5.49-16.02 13.19-18.81-.77 2.12-1.19 4.42-1.19 6.81 0 11.05 8.95 20 20 20 2.39 0 4.69-.42 6.81-1.19z" fill="#ffb65f"/></g><g><path d="m276 27.5c0-11.046-8.954-20-20-20-2.391 0-4.685.42-6.81 1.189-7.693 2.786-12.339 10.146-12.339 18.8 0 11.046 8.603 18.574 19.649 18.574 8.525 0 15.305-3.898 18.183-11.41.851-2.221 1.317-4.632 1.317-7.153z" fill="#ffd163"/><path d="m274.81 34.31c-2.79 7.7-10.15 13.19-18.81 13.19-11.05 0-20-8.95-20-20 0-8.66 5.49-16.02 13.19-18.81-.77 2.12-1.19 4.42-1.19 6.81 0 11.05 8.95 20 20 20 2.39 0 4.69-.42 6.81-1.19z" fill="#ffb65f"/></g><g><path d="m382.5 484.543c0-11.046-8.954-20-20-20-2.391 0-4.685.42-6.81 1.189-7.693 2.786-12.339 10.146-12.339 18.8 0 11.046 8.603 18.574 19.649 18.574 8.525 0 15.305-3.898 18.183-11.41.851-2.221 1.317-4.632 1.317-7.153z" fill="#ffd163"/><path d="m381.31 491.353c-2.79 7.7-10.15 13.19-18.81 13.19-11.05 0-20-8.95-20-20 0-8.66 5.49-16.02 13.19-18.81-.77 2.12-1.19 4.42-1.19 6.81 0 11.05 8.95 20 20 20 2.39 0 4.69-.42 6.81-1.19z" fill="#ffb65f"/></g><g><path d="m170.5 484.543c0-11.046-8.954-20-20-20-2.391 0-4.685.42-6.81 1.189-7.693 2.786-12.339 10.146-12.339 18.8 0 11.046 8.603 18.574 19.649 18.574 8.525 0 15.305-3.898 18.183-11.41.851-2.221 1.317-4.632 1.317-7.153z" fill="#ffd163"/><path d="m169.31 491.353c-2.79 7.7-10.15 13.19-18.81 13.19-11.05 0-20-8.95-20-20 0-8.66 5.49-16.02 13.19-18.81-.77 2.12-1.19 4.42-1.19 6.81 0 11.05 8.95 20 20 20 2.39 0 4.69-.42 6.81-1.19z" fill="#ffb65f"/></g><g><path d="m276 484.543c0-11.046-8.954-20-20-20-2.391 0-4.685.42-6.81 1.189-7.693 2.786-12.339 10.146-12.339 18.8 0 11.046 8.603 18.574 19.649 18.574 8.525 0 15.305-3.898 18.183-11.41.851-2.221 1.317-4.632 1.317-7.153z" fill="#ffd163"/><path d="m274.81 491.353c-2.79 7.7-10.15 13.19-18.81 13.19-11.05 0-20-8.95-20-20 0-8.66 5.49-16.02 13.19-18.81-.77 2.12-1.19 4.42-1.19 6.81 0 11.05 8.95 20 20 20 2.39 0 4.69-.42 6.81-1.19z" fill="#ffb65f"/></g></g></g><g><path d="m224 128.5h-88c-4.143 0-7.5 3.357-7.5 7.5v240c0 4.143 3.357 7.5 7.5 7.5h240c4.143 0 7.5-3.357 7.5-7.5v-132c0-4.143-3.357-7.5-7.5-7.5s-7.5 3.357-7.5 7.5v124.5h-225v-225h80.5c4.143 0 7.5-3.357 7.5-7.5s-3.357-7.5-7.5-7.5z"/><path d="m376 216.5c4.143 0 7.5-3.357 7.5-7.5v-73c0-4.143-3.357-7.5-7.5-7.5h-116.5c-4.143 0-7.5 3.357-7.5 7.5s3.357 7.5 7.5 7.5h109v65.5c0 4.143 3.357 7.5 7.5 7.5z"/><path d="m189.196 271.989c2.635 5.272 7.932 8.547 13.825 8.547h34.484l-20.21 46.745c-2.756 6.375-2.125 13.646 1.689 19.45 3.813 5.804 10.236 9.269 17.182 9.269 6.435 0 12.582-3.072 16.444-8.219l13.225-17.621c2.486-3.312 1.815-8.015-1.497-10.501-3.313-2.486-8.016-1.814-10.501 1.497l-13.225 17.621c-1.044 1.392-2.706 2.223-4.446 2.223-2.707 0-4.151-1.753-4.646-2.507-.495-.753-1.531-2.774-.457-5.259l24.74-57.222c1.003-2.318.771-4.984-.616-7.096-1.387-2.11-3.742-3.381-6.268-3.381h-45.898c-.139 0-.282 0-.408-.252-.126-.253-.04-.368.044-.479l68.729-91.582c1.044-1.392 2.706-2.223 4.446-2.223 2.707 0 4.151 1.753 4.646 2.507.495.753 1.531 2.774.457 5.259l-24.74 57.222c-1.003 2.318-.771 4.984.616 7.096 1.387 2.11 3.742 3.381 6.268 3.381h45.898c.139 0 .282 0 .408.252.126.253.04.368-.044.479l-34.494 45.964c-2.486 3.313-1.815 8.015 1.497 10.501 3.313 2.486 8.015 1.814 10.501-1.497l34.494-45.964c3.537-4.714 4.098-10.917 1.463-16.188-2.635-5.272-7.932-8.547-13.825-8.547h-34.484l20.21-46.745c2.756-6.375 2.125-13.646-1.689-19.45-3.813-5.804-10.236-9.269-17.182-9.269-6.435 0-12.582 3.072-16.444 8.219l-68.729 91.582c-3.537 4.714-4.097 10.917-1.463 16.188z"/><path d="m484.155 335.983c-12.563 0-23.178 8.472-26.452 20h-17.406c-.668 0-1.295-.26-1.769-.733l-25.028-25.028v-66.722h44.548c3.274 11.528 13.889 20 26.452 20 15.163 0 27.5-12.337 27.5-27.5s-12.337-27.5-27.5-27.5c-12.563 0-23.178 8.472-26.452 20h-44.548v-65.722l25.031-25.03c.472-.472 1.099-.731 1.767-.731h17.406c3.274 11.528 13.889 20 26.452 20 15.163 0 27.5-12.337 27.5-27.5s-12.337-27.5-27.5-27.5c-12.563 0-23.178 8.472-26.452 20h-17.406c-4.676 0-9.071 1.821-12.374 5.126l-14.424 14.423v-40.566c0-12.406-10.094-22.5-22.5-22.5h-40.893l14.768-14.768c3.305-3.306 5.125-7.7 5.125-12.375v-17.405c11.528-3.274 20-13.889 20-26.452 0-15.163-12.337-27.5-27.5-27.5s-27.5 12.337-27.5 27.5c0 12.563 8.472 23.178 20 26.452v17.406c0 .658-.267 1.303-.732 1.768-.355.384-24.919 24.862-25.346 25.375h-64.922v-44.691c11.273-3.435 19.5-13.928 19.5-26.31 0-15.163-12.337-27.5-27.5-27.5s-27.5 12.337-27.5 27.5c0 12.745 8.717 23.49 20.5 26.594v44.406h-64.922c-.331-.418-25.083-25.082-25.346-25.375-.465-.465-.732-1.109-.732-1.768v-17.405c11.528-3.274 20-13.889 20-26.452 0-15.163-12.337-27.5-27.5-27.5s-27.5 12.337-27.5 27.5c0 12.563 8.472 23.178 20 26.452v17.406c0 4.675 1.82 9.069 5.125 12.375l14.768 14.767h-41.893c-12.406 0-22.5 10.094-22.5 22.5v40.911l-14.767-14.766c-3.305-3.307-7.7-5.128-12.376-5.128h-17.405c-3.274-11.528-13.889-20-26.452-20-15.163 0-27.5 12.337-27.5 27.5s12.337 27.5 27.5 27.5c12.563 0 23.178-8.472 26.452-20h17.406c.668 0 1.295.26 1.769.733.383.354 24.863 24.918 25.374 25.344v16.906c0 4.143 3.357 7.5 7.5 7.5s7.5-3.357 7.5-7.5v-79c0-4.136 3.364-7.5 7.5-7.5h270c4.136 0 7.5 3.364 7.5 7.5v270c0 4.136-3.364 7.5-7.5 7.5h-270.001c-4.136 0-7.5-3.364-7.5-7.5v-156c0-4.143-3.357-7.5-7.5-7.5s-7.5 3.357-7.5 7.5v13.5h-44.548c-3.274-11.528-13.889-20-26.452-20-15.163 0-27.5 12.337-27.5 27.5s12.337 27.5 27.5 27.5c12.563 0 23.178-8.472 26.452-20h44.548v66.406c-.416.33-25.085 25.085-25.376 25.346-.472.472-1.099.731-1.767.731h-17.405c-3.274-11.528-13.889-20-26.452-20-15.163 0-27.5 12.337-27.5 27.5s12.337 27.5 27.5 27.5c12.563 0 23.178-8.472 26.452-20h17.406c4.676 0 9.071-1.821 12.374-5.126l14.768-14.768v39.911c0 12.406 10.094 22.5 22.5 22.5h41.893l-14.768 14.768c-3.305 3.306-5.125 7.7-5.125 12.375v17.406c-11.528 3.274-20 13.889-20 26.452 0 15.163 12.337 27.5 27.5 27.5s27.5-12.337 27.5-27.5c0-12.563-8.472-23.178-20-26.452v-17.406c0-.658.267-1.303.732-1.768.355-.384 24.919-24.862 25.346-25.375h64.922v44.406c-11.783 3.104-20.5 13.849-20.5 26.594 0 15.163 12.337 27.5 27.5 27.5s27.5-12.337 27.5-27.5c0-12.381-8.227-22.875-19.5-26.31v-44.69h64.922c.331.418 25.083 25.082 25.346 25.375.466.465.732 1.109.732 1.768v17.406c-11.528 3.274-20 13.889-20 26.452 0 15.163 12.337 27.5 27.5 27.5s27.5-12.337 27.5-27.5c0-12.563-8.472-23.178-20-26.452v-17.406c0-4.675-1.82-9.069-5.125-12.375l-14.768-14.768h40.893c12.406 0 22.5-10.094 22.5-22.5v-39.566l14.422 14.421c3.305 3.307 7.7 5.128 12.376 5.128h17.406c3.274 11.528 13.889 20 26.452 20 15.163 0 27.5-12.337 27.5-27.5s-12.338-27.5-27.501-27.5zm.345-92.483c6.893 0 12.5 5.607 12.5 12.5s-5.607 12.5-12.5 12.5-12.5-5.607-12.5-12.5 5.607-12.5 12.5-12.5zm-.345-106.483c6.893 0 12.5 5.607 12.5 12.5s-5.607 12.5-12.5 12.5-12.5-5.607-12.5-12.5 5.608-12.5 12.5-12.5zm-134.155-109.517c0-6.893 5.607-12.5 12.5-12.5s12.5 5.607 12.5 12.5-5.607 12.5-12.5 12.5-12.5-5.607-12.5-12.5zm-106.5 0c0-6.893 5.607-12.5 12.5-12.5s12.5 5.607 12.5 12.5-5.607 12.5-12.5 12.5-12.5-5.607-12.5-12.5zm-105.5 0c0-6.893 5.607-12.5 12.5-12.5s12.5 5.607 12.5 12.5-5.607 12.5-12.5 12.5-12.5-5.607-12.5-12.5zm-110.5 134.517c-6.893 0-12.5-5.607-12.5-12.5s5.607-12.5 12.5-12.5 12.5 5.607 12.5 12.5-5.607 12.5-12.5 12.5zm0 106.483c-6.893 0-12.5-5.607-12.5-12.5s5.607-12.5 12.5-12.5 12.5 5.607 12.5 12.5-5.607 12.5-12.5 12.5zm0 107.483c-6.893 0-12.5-5.607-12.5-12.5s5.607-12.5 12.5-12.5 12.5 5.607 12.5 12.5-5.607 12.5-12.5 12.5zm135.5 108.517c0 6.893-5.607 12.5-12.5 12.5s-12.5-5.607-12.5-12.5 5.607-12.5 12.5-12.5 12.5 5.607 12.5 12.5zm105.5 0c0 6.893-5.607 12.5-12.5 12.5s-12.5-5.607-12.5-12.5 5.607-12.5 12.5-12.5 12.5 5.607 12.5 12.5zm106.5 0c0 6.893-5.607 12.5-12.5 12.5s-12.5-5.607-12.5-12.5 5.607-12.5 12.5-12.5 12.5 5.607 12.5 12.5zm109.155-108.517c-6.893 0-12.5-5.607-12.5-12.5s5.607-12.5 12.5-12.5 12.5 5.607 12.5 12.5-5.607 12.5-12.5 12.5z"/></g></g></svg>