<svg id="Layer_5" enable-background="new 0 0 64 64" height="512" viewBox="0 0 64 64" width="512" xmlns="http://www.w3.org/2000/svg"><g><g><g><path d="m55.78 28.02-2.29-1.36c-.59.3-1.2.57-1.84.77l-.65 2.57h-6l-.65-2.57c-.64-.2-1.25-.47-1.84-.77l-2.29 1.36-2.02-2.02h-14.2v36h34v-36.2z" fill="#f0d0b4"/></g><g><circle cx="50" cy="54" fill="#b4dd7f" r="2"/></g><g><circle cx="42" cy="54" fill="#b4dd7f" r="2"/></g><g><path d="m10 50v8h-4c-1.1 0-2.1-.45-2.83-1.17-.72-.73-1.17-1.73-1.17-2.83 0-2.21 1.79-4 4-4z" fill="#aab2bd"/></g><g><path d="m35.06 52.65c.57.21.94.75.94 1.35s-.37 1.14-.94 1.35l-7.06 2.65v-4-4z" fill="#aab2bd"/></g><g><path d="m14 54v4h-4v-8h4z" fill="#ffeaa7"/></g><g><path d="m28 54v4h-4-10v-4z" fill="#69d6f4"/></g><g><path d="m28 50v4h-14v-4h6 4z" fill="#b4dd7f"/></g><g><path d="m35.95 8.05.1.1-.07.07 1.36 2.29c-.3.59-.57 1.2-.77 1.84l-2.57.65v6l2.57.65c.2.64.47 1.25.77 1.84l-1.36 2.29 2.22 2.22h-14.2-8-8c-3.74 0-6.67-3.41-5.87-7.29.48-2.27 2.31-4.1 4.58-4.58.51-.11 1.02-.15 1.5-.12-.14-.65-.21-1.32-.21-2.01 0-5.52 4.48-10 10-10 3.85 0 7.19 2.17 8.86 5.36 1.16-.86 2.59-1.36 4.14-1.36 1.93 0 3.68.78 4.95 2.05z" fill="#e6e9ed"/></g><g><path d="m62 13v6l-2.57.65c-.2.64-.47 1.25-.77 1.84l1.36 2.29-2.02 2.02-2.22 2.22-2.29-1.36c-.59.3-1.2.57-1.84.77l-.65 2.57h-6l-.65-2.57c-.64-.2-1.25-.47-1.84-.77l-2.29 1.36-2.02-2.02-2.22-2.22 1.36-2.29c-.3-.59-.57-1.2-.77-1.84l-2.57-.65v-6l2.57-.65c.2-.64.47-1.25.77-1.84l-1.36-2.29.07-.07 4.17-4.17 2.29 1.36c.59-.3 1.2-.57 1.84-.77l.65-2.57h6l.65 2.57c.64.2 1.25.47 1.84.77l2.29-1.36 4.24 4.24-1.36 2.29c.3.59.57 1.2.77 1.84zm-6 3c0-4.42-3.58-8-8-8s-8 3.58-8 8 3.58 8 8 8 8-3.58 8-8z" fill="#ffc729"/></g><g><path d="m48 8c4.42 0 8 3.58 8 8s-3.58 8-8 8-8-3.58-8-8 3.58-8 8-8zm4 8c0-2.21-1.79-4-4-4s-4 1.79-4 4 1.79 4 4 4 4-1.79 4-4z" fill="#fcd770"/></g></g><g><path d="m63 19.777v-7.555l-2.802-.713c-.119-.319-.253-.639-.4-.957l1.479-2.489-5.342-5.342-2.489 1.48c-.317-.147-.638-.281-.956-.4l-.713-2.801h-7.555l-.712 2.802c-.318.119-.639.252-.956.4l-2.489-1.48-4.048 4.048c-1.419-1.145-3.17-1.77-5.017-1.77-1.383 0-2.685.353-3.821.973-2.024-3.083-5.441-4.973-9.179-4.973-6.065 0-11 4.935-11 11 0 .358.025.715.06 1.071-.185.024-.37.046-.555.085-2.647.552-4.797 2.702-5.349 5.349-.44 2.111.073 4.264 1.409 5.908 1.337 1.644 3.318 2.587 5.435 2.587h8c.552 0 1 .449 1 1v2c0 .551-.448 1-1 1h-7c-1.654 0-3 1.346-3 3s1.346 3 3 3h9c.552 0 1 .449 1 1v11h-13c-2.757 0-5 2.243-5 5s2.243 5 5 5h17v4h36v-36.787l2.277-2.278-1.479-2.489c.147-.317.281-.637.4-.956zm-45 15.223h-9c-.552 0-1-.449-1-1s.448-1 1-1h7c1.654 0 3-1.346 3-3v-2c0-1.654-1.346-3-3-3h-8c-1.512 0-2.927-.674-3.882-1.849s-1.321-2.719-1.005-4.238c.393-1.88 1.919-3.407 3.8-3.799 1.521-.318 3.064.049 4.238 1.004 1.175.955 1.849 2.37 1.849 3.882h2c0-2.117-.942-4.097-2.587-5.434-.973-.791-2.126-1.287-3.343-1.474-.044-.362-.07-.726-.07-1.092 0-4.962 4.037-9 9-9 3.091 0 5.912 1.58 7.56 4.151-1.57 1.461-2.56 3.539-2.56 5.849h2c0-3.309 2.691-6 6-6 1.495 0 2.904.55 4.008 1.545l1.194 2.009c-.147.318-.281.637-.4.957l-2.802.712v7.555l2.802.713c.119.319.253.639.4.956l-1.479 2.489 1.064 1.064h-14.787v2h2v22h-2v-11c0-1.654-1.346-3-3-3zm-5 22h-2v-6h2zm2-2h12v2h-12zm14-3.557 5.713 2.142c.172.065.287.231.287.415s-.115.35-.288.415l-5.712 2.142zm-2 1.557h-12v-2h12zm-24 1c0-1.654 1.346-3 3-3h3v6h-3c-1.654 0-3-1.346-3-3zm54 7h-32v-2h3.182l7.232-2.712c.948-.355 1.586-1.275 1.586-2.288s-.638-1.933-1.585-2.288l-7.233-2.712h-3.182v-22h12.787l2.278 2.278 2.489-1.48c.317.147.638.281.956.4l.713 2.802h7.555l.713-2.802c.318-.119.639-.252.956-.4l2.489 1.48 1.064-1.065zm1.646-42.179-.168.528c-.179.559-.416 1.125-.704 1.683l-.256.493 1.246 2.096-3.143 3.143-2.095-1.246-.492.254c-.56.289-1.126.525-1.686.704l-.528.169-.597 2.355h-4.445l-.598-2.354-.528-.169c-.56-.179-1.126-.415-1.686-.704l-.492-.254-2.095 1.246-3.143-3.143 1.246-2.096-.256-.493c-.288-.558-.525-1.124-.704-1.683l-.168-.528-2.354-.599v-4.445l2.354-.599.168-.528c.179-.558.416-1.125.705-1.683l.255-.493-1.246-2.095 3.143-3.143 2.095 1.246.492-.254c.56-.289 1.126-.525 1.686-.704l.528-.169.597-2.356h4.445l.598 2.354.528.169c.56.179 1.126.415 1.686.704l.492.254 2.095-1.246 3.143 3.143-1.246 2.095.255.493c.289.559.526 1.125.705 1.683l.168.528 2.354.6v4.445z"/><path d="m48 7c-4.963 0-9 4.038-9 9s4.037 9 9 9 9-4.038 9-9-4.037-9-9-9zm0 16c-3.859 0-7-3.14-7-7s3.141-7 7-7 7 3.14 7 7-3.141 7-7 7z"/><path d="m48 11c-2.757 0-5 2.243-5 5s2.243 5 5 5 5-2.243 5-5-2.243-5-5-5zm0 8c-1.654 0-3-1.346-3-3s1.346-3 3-3 3 1.346 3 3-1.346 3-3 3z"/><path d="m29 44.586-1.293-1.293-1.414 1.414 2.707 2.707 5.707-5.707-1.414-1.414z"/><path d="m29 36.586-1.293-1.293-1.414 1.414 2.707 2.707 5.707-5.707-1.414-1.414z"/><path d="m37 33h18v2h-18z"/><path d="m41 37h14v2h-14z"/><path d="m37 37h2v2h-2z"/><path d="m37 41h18v2h-18z"/><path d="m53 45h2v2h-2z"/><path d="m37 45h14v2h-14z"/><path d="m42 51c-1.654 0-3 1.346-3 3s1.346 3 3 3 3-1.346 3-3-1.346-3-3-3zm0 4c-.552 0-1-.449-1-1s.448-1 1-1 1 .449 1 1-.448 1-1 1z"/><path d="m50 51c-1.654 0-3 1.346-3 3s1.346 3 3 3 3-1.346 3-3-1.346-3-3-3zm0 4c-.552 0-1-.449-1-1s.448-1 1-1 1 .449 1 1-.448 1-1 1z"/></g></g></svg>