<svg id="Capa_1" enable-background="new 0 0 513 513" height="512" viewBox="0 0 513 513" width="512" xmlns="http://www.w3.org/2000/svg"><g><g><path d="m315.44 326.194h-117.95v103.54l7.03 20.865h101.832l9.158-20.865z" fill="#a79ba7"/><g><g id="XMLID_248_"><g><path d="m255.924 395.244h59.563l-.047-69.05h-79.557-38.393v69.05 34.49l7.03 20.865h38.393l-7.03-20.865v-14.449c0-11.068 8.972-20.041 20.041-20.041z" fill="#918291"/><path d="m482.16 41.544h-451.32c-12.89 0-23.34 10.45-23.34 23.33v269.655c-.1.177-.107.275 0 .275 2.03 0 47.858 22.72 47.858 22.72h432.062l18.08-22.72v-269.93c0-12.88-10.45-23.33-23.34-23.33z" fill="#c8effe"/><path d="m77.543 334.594v-292.03c0-.342.011-.681.026-1.02h-46.729c-12.89 0-23.34 10.45-23.34 23.33v269.655c-.1.177-.107.275 0 .275 2.03 0 47.858 22.72 47.858 22.72h41.181c-10.814-2.037-18.996-11.526-18.996-22.93z" fill="#99e6fc"/><path d="m505.5 334.804v22.1c0 12.89-10.45 23.34-23.34 23.34h-451.32c-12.89 0-23.34-10.45-23.34-23.34v-22.1h2.03z" fill="#b5adb6"/></g></g><path d="m100.883 357.934c-12.82 0-23.221-10.337-23.335-23.13h-68.018-2.03v22.1c0 12.89 10.45 23.34 23.34 23.34h451.32c12.545 0 22.774-9.898 23.314-22.31z" fill="#a79ba7"/><g id="XMLID_250_"><g><path d="m361.22 461.504c4.4 3.06 2.24 9.96-3.11 9.96h-203.22c-5.35 0-7.51-6.9-3.11-9.96l45.71-31.77h84.44 33.58z" fill="#b5adb6"/></g></g><path d="m190.275 461.504 45.71-31.77h-38.495l-45.71 31.77c-4.4 3.06-2.24 9.96 3.11 9.96h38.495c-5.35 0-7.51-6.9-3.11-9.96z" fill="#a79ba7"/><g id="XMLID_249_"><g><path d="m166.45 140.004v-.01c-10.83-5.79-23.21-9.07-36.36-9.07-42.68 0-77.29 34.6-77.29 77.29 0 15.65 4.65 30.21 12.66 42.38l44.165 4.956 66.907-54.31z" fill="#fd8087"/><path d="m52.8 208.214c0 15.65 4.65 30.21 12.66 42.38l12.083 1.356v-100.395c-15.212 14.115-24.743 34.269-24.743 56.659z" fill="#fe646f"/><path d="m207.38 208.214c0 10.24-1.99 20.01-5.61 28.95l-71.68-28.95 36.36-68.21c24.36 12.99 40.93 38.66 40.93 68.21z" fill="#86e8d0"/><path d="m130.09 208.214 71.68 28.95c-11.45 28.34-39.23 48.34-71.68 48.34-27.03 0-50.83-13.88-64.63-34.91z" fill="#ffde55"/></g></g><g fill="#99e6fc"><path d="m454.832 139.99h-182.725c-3.713 0-6.724-3.01-6.724-6.724v-24.741c0-3.713 3.01-6.724 6.724-6.724h182.726c3.713 0 6.724 3.01 6.724 6.724v24.741c-.001 3.714-3.011 6.724-6.725 6.724z"/><path d="m380.979 214.386h-108.872c-3.713 0-6.724-3.01-6.724-6.724v-24.741c0-3.713 3.01-6.724 6.724-6.724h108.873c3.713 0 6.724 3.01 6.724 6.724v24.741c-.001 3.714-3.011 6.724-6.725 6.724z"/><path d="m334.476 288.781h-62.37c-3.713 0-6.724-3.01-6.724-6.724v-24.741c0-3.713 3.01-6.724 6.724-6.724h62.37c3.713 0 6.724 3.01 6.724 6.724v24.741c0 3.714-3.011 6.724-6.724 6.724z"/></g></g></g><g><path d="m482.162 34.04h-451.324c-17.004 0-30.838 13.834-30.838 30.838v292.025c0 17.004 13.834 30.838 30.838 30.838h159.15v38.075l-42.493 29.531c-4.678 3.251-6.677 9.088-4.973 14.524s6.676 9.088 12.373 9.088h203.211c5.697 0 10.669-3.652 12.373-9.088s-.295-11.273-4.973-14.524l-42.493-29.531v-38.075h159.15c17.004 0 30.838-13.834 30.838-30.838v-292.025c-.001-17.004-13.835-30.838-30.839-30.838zm-451.324 15h451.324c8.733 0 15.838 7.105 15.838 15.838v262.429h-483v-262.429c0-8.733 7.105-15.838 15.838-15.838zm451.324 323.701h-192.685c-4.142 0-7.5 3.358-7.5 7.5s3.358 7.5 7.5 7.5h18.535v41.996c0 2.457 1.203 4.757 3.22 6.159l40.382 28.064h-190.227l38.452-26.723h82.091c4.142 0 7.5-3.358 7.5-7.5s-3.358-7.5-7.5-7.5h-76.941v-34.496h52.526c4.142 0 7.5-3.358 7.5-7.5s-3.358-7.5-7.5-7.5h-226.677c-8.733 0-15.838-7.105-15.838-15.838v-14.597h483v14.597c0 8.733-7.105 15.838-15.838 15.838z"/><path d="m130.094 293c46.753 0 84.79-38.037 84.79-84.79s-38.037-84.79-84.79-84.79c-18.629 0-36.315 5.937-51.144 17.168-3.302 2.5-3.951 7.205-1.45 10.507 2.5 3.301 7.205 3.952 10.507 1.45 12.201-9.241 26.754-14.125 42.087-14.125 9.189 0 17.96 1.802 26.002 5.044l-31.719 59.526-56.396 36.98c-4.895-9.534-7.677-20.325-7.677-31.759 0-11.82 3.02-23.508 8.732-33.803 2.01-3.622.703-8.188-2.919-10.197s-8.188-.702-10.197 2.919c-6.945 12.516-10.616 26.721-10.616 41.081 0 46.753 38.036 84.789 84.79 84.789zm69.789-84.789c0 6.596-.94 12.974-2.658 19.027l-56.591-22.859 28.695-53.851c18.429 12.576 30.554 33.738 30.554 57.683zm-68.959 8.424 60.68 24.51c-11.783 21.917-34.932 36.855-61.51 36.855-21.677 0-41.075-9.935-53.885-25.489z"/><path d="m272.106 147.49h182.726c7.843 0 14.224-6.381 14.224-14.224v-24.741c0-7.843-6.381-14.224-14.224-14.224h-23.732c-4.142 0-7.5 3.358-7.5 7.5s3.358 7.5 7.5 7.5h22.956v23.188h-181.173v-23.188h126.255c4.142 0 7.5-3.358 7.5-7.5s-3.358-7.5-7.5-7.5h-127.032c-7.843 0-14.224 6.381-14.224 14.224v24.741c.001 7.844 6.382 14.224 14.224 14.224z"/><path d="m272.106 221.886h108.873c7.843 0 14.224-6.381 14.224-14.224v-24.741c0-7.843-6.381-14.224-14.224-14.224h-108.873c-7.843 0-14.224 6.381-14.224 14.224v24.741c.001 7.843 6.382 14.224 14.224 14.224zm.777-38.188h107.32v23.188h-107.32z"/><path d="m272.106 296.281h62.37c7.843 0 14.224-6.381 14.224-14.224v-24.741c0-7.843-6.381-14.224-14.224-14.224h-62.37c-7.843 0-14.224 6.381-14.224 14.224v24.741c.001 7.843 6.382 14.224 14.224 14.224zm.777-38.188h60.817v23.188h-60.817z"/></g></g></svg>