<svg height="512pt" viewBox="-3 0 512 512.00042" width="512pt" xmlns="http://www.w3.org/2000/svg"><path d="m332.847656 474.761719c0 8.191406-3.316406 15.617187-8.695312 20.984375-5.367188 5.375-12.792969 8.691406-20.984375 8.691406h-265.953125c-16.390625 0-29.675782-13.285156-29.675782-29.675781 0-56.277344 34.429688-105.148438 84.265626-125.550781.894531-.363282 1.789062-.722657 2.691406-1.054688.011718 0 .023437-.011719.023437-.011719.089844-.027343.179688-.070312.269531-.109375 15.015626-5.726562 31.316407-8.875 48.347657-8.875h54.109375c16.941406 0 33.164062 3.105469 48.109375 8.773438.019531.011718.039062.023437.058593.023437 1.066407.410157 2.121094.820313 3.164063 1.253907 13.238281 5.417968 25.417969 12.863281 36.171875 21.960937 29.414062 24.871094 48.097656 62.046875 48.097656 103.589844zm0 0" fill="#fff5f4"/><path d="m188.714844 339.160156c-19.558594 0-38.230469 3.578125-55.273438 10.050782-14.25 5.417968-27.367187 12.863281-38.945312 21.96875-3.125 2.441406-6.128906 5.015624-9.023438 7.699218-26.421875 24.539063-42.761718 58.4375-42.761718 95.882813 0 16.390625 14.3125 29.675781 31.957031 29.675781h-37.453125c-16.390625 0-29.675782-13.285156-29.675782-29.675781 0-56.277344 34.429688-105.148438 84.265626-125.550781.894531-.363282 1.789062-.722657 2.691406-1.054688.011718 0 .023437-.011719.023437-.011719.089844-.027343.179688-.070312.269531-.109375 15.015626-5.726562 31.316407-8.875 48.347657-8.875zm0 0" fill="#ebe0da"/><path d="m333.421875 400.226562v16.363282h-17.175781c-2.011719 0-3.980469-.140625-5.910156-.414063v-15.949219c0-2.742187 2.230468-4.972656 4.976562-4.972656h13.132812c2.746094 0 4.976563 2.230469 4.976563 4.972656zm0 0" fill="#ebe0da"/><path d="m271.695312 396.277344c-.058593 5.097656-6.429687 7.40625-10.128906 4l-24.671875-17.808594c-2.191406-1.144531-4.773437-1.226562-7.035156-.210938l-54.1875 23.046876c-3.667969 2.792968-8.765625 2.761718-12.402344-.082032l-52.742187-22.964844c-2.257813-1.015624-4.84375-.933593-7.042969.210938l-24.664063 17.808594c-3.707031 3.40625-10.066406 1.097656-10.128906-4-.300781-26.148438 11.777344-40.390625 25.808594-48.117188.007812 0 .019531-.011718.019531-.011718.089844-.027344.179688-.070313.269531-.109376 15.015626-5.726562 31.316407-8.875 48.351563-8.875h54.105469c16.945312 0 33.164062 3.105469 48.109375 8.773438.019531.011719.039062.023438.058593.023438.121094.058593.242188.097656.363282.148437.011718 0 .011718 0 .011718.011719 14.078126 7.707031 26.207032 21.949218 25.90625 48.15625zm0 0" fill="#c8bebc"/><g fill="#f2d1a5"><path d="m136.359375 296.78125v73.328125l28.8125 32.417969c1.890625 3.347656 6.683594 3.398437 8.664063.121094.007812-.011719.019531-.03125.027343-.039063l30.160157-32.5v-73.328125zm0 0"/><path d="m112.699219 212.433594c0 21.117187-17.121094 38.238281-38.242188 38.238281-21.117187 0-38.238281-17.121094-38.238281-38.238281 0-21.121094 17.121094-38.242188 38.238281-38.242188 21.121094 0 38.242188 17.121094 38.242188 38.242188zm0 0"/><path d="m304.175781 212.441406c0 21.117188-17.121093 38.238282-38.242187 38.238282-21.117188 0-38.238282-17.121094-38.238282-38.238282 0-21.121094 17.121094-38.242187 38.238282-38.242187 21.121094 0 38.242187 17.121093 38.242187 38.242187zm0 0"/></g><path d="m271.625 150.070312v89.613282c0 45.125-51.535156 83.222656-83.84375 95.363281-7.003906 2.640625-13.117188 4.058594-17.585938 4.058594-12.5625-.011719-37.917968-11.136719-60.140624-29.125-22.21875-18-41.292969-42.839844-41.292969-70.296875v-89.613282c0-18.128906 14.691406-32.820312 32.824219-32.820312h137.21875c18.128906 0 32.820312 14.691406 32.820312 32.820312zm0 0" fill="#ffe4c2"/><path d="m187.777344 335.042969c-7.003906 2.640625-13.113282 4.058593-17.585938 4.058593-12.5625-.011718-37.917968-11.136718-60.136718-29.125-22.21875-18-41.292969-42.839843-41.292969-70.296874v-89.613282c0-18.128906 14.691406-32.820312 32.820312-32.820312h35.175781c-18.132812 0-32.824218 14.691406-32.824218 32.820312v89.613282c0 27.457031 19.074218 52.296874 41.292968 70.296874 14.300782 11.578126 29.898438 20.3125 42.550782 25.066407zm0 0" fill="#f2d1a5"/><path d="m27.417969 191.808594h24.449219c20.785156 0 37.789062-17.007813 37.789062-37.792969v-12.140625c0-18.445312-15.089844-33.539062-33.539062-33.539062h-1.382813c-18.523437 0-33.542969 15.015624-33.542969 33.539062v43.707031c.003906 3.4375 2.789063 6.226563 6.226563 6.226563zm0 0" fill="#ca7400"/><path d="m312.976562 191.808594h-24.449218c-20.785156 0-37.792969-17.007813-37.792969-37.792969v-12.140625c0-18.445312 15.09375-33.539062 33.539063-33.539062h1.386718c18.523438 0 33.539063 15.015624 33.539063 33.539062v43.707031c0 3.4375-2.789063 6.226563-6.222657 6.226563zm0 0" fill="#ca7400"/><path d="m281.34375 19.3125v60.421875c0 8.019531-1.4375 15.675781-4.039062 22.660156-8.160157 21.949219-27.828126 37.414063-50.792969 37.414063h-119.085938c-26.714843 0-48.378906-23.726563-48.378906-53 0-14.632813 5.414063-27.890625 14.167969-37.476563 6.683594-7.316406 15.304687-12.5 24.945312-14.550781 2.992188-.644531 6.097656-.976562 9.265625-.976562 0 0 109.921875 7.699218 157.730469-24.550782 7.074219-4.773437 16.1875.953125 16.1875 10.058594zm0 0" fill="#ec8500"/><path d="m277.300781 102.390625c-8.160156 21.949219-27.828125 37.414063-50.789062 37.414063h-119.089844c-26.710937 0-48.378906-23.726563-48.378906-53 0-14.632813 5.414062-27.890626 14.167969-37.476563 6.683593-7.316406 15.308593-12.5 24.945312-14.550781-1.578125 5.226562-2.433594 10.8125-2.433594 16.621094 0 29.273437 21.667969 53.003906 48.378906 53.003906h119.089844c4.875 0 9.609375-.707032 14.109375-2.011719zm0 0" fill="#db7d00"/><path d="m497.660156 344.632812v129.546876c0 2.996093-.4375 5.890624-1.242187 8.621093-3.714844 12.523438-15.316407 21.667969-29.050781 21.667969h-163.496094c-16.734375 0-30.292969-13.5625-30.292969-30.289062v-129.546876c0-5.5625 4.507813-10.070312 10.074219-10.070312h203.933594c5.566406 0 10.074218 4.507812 10.074218 10.070312zm0 0" fill="#ca7400"/><path d="m497.660156 344.632812v129.546876c0 2.996093-.4375 5.890624-1.242187 8.621093-2.738281.808594-5.632813 1.246094-8.636719 1.246094h-163.5c-16.730469 0-30.289062-13.566406-30.289062-30.289063v-119.195312h193.59375c5.566406 0 10.074218 4.507812 10.074218 10.070312zm0 0" fill="#ca7400"/><path d="m496.414062 482.800781c-3.707031 12.523438-15.316406 21.667969-29.042968 21.667969h-163.5c-16.730469 0-30.289063-13.566406-30.289063-30.289062v-129.539063c0-5.570313 4.503907-10.082031 10.070313-10.082031h10.339844v119.199218c0 16.722657 13.558593 30.289063 30.292968 30.289063h163.496094c3.007812 0 5.898438-.441406 8.632812-1.246094zm0 0" fill="#b96a00"/><path d="m497.660156 344.632812v29.289063c0 8.046875-2.230468 15.578125-6.101562 22.003906-7.46875 12.382813-21.046875 20.664063-36.566406 20.664063h-138.746094c-23.566406 0-42.667969-19.101563-42.667969-42.667969v-29.289063c0-5.5625 4.507813-10.070312 10.074219-10.070312h203.933594c5.566406 0 10.074218 4.507812 10.074218 10.070312zm0 0" fill="#b96a00"/><path d="m460.941406 400.226562v15.949219c-1.9375.273438-3.929687.414063-5.949218.414063h-17.132813v-16.363282c0-2.742187 2.230469-4.972656 4.972656-4.972656h13.136719c2.753906 0 4.972656 2.230469 4.972656 4.972656zm0 0" fill="#ebe0da"/><path d="m491.5625 395.921875c-7.476562 12.382813-21.054688 20.664063-36.570312 20.664063h-138.75c-23.566407 0-42.660157-19.097657-42.660157-42.664063v-29.28125c0-5.570313 4.503907-10.082031 10.070313-10.082031h10.339844v21.867187c0 23.566407 19.097656 42.664063 42.664062 42.664063h138.746094c5.71875 0 11.175781-1.128906 16.160156-3.167969zm0 0" fill="#a86000"/><path d="m328.449219 437.609375h-13.140625c-2.742188 0-4.96875-2.226563-4.96875-4.972656v-32.410157c0-2.746093 2.226562-4.972656 4.96875-4.972656h13.140625c2.746093 0 4.972656 2.226563 4.972656 4.972656v32.410157c0 2.746093-2.226563 4.972656-4.972656 4.972656zm0 0" fill="#c8bebc"/><path d="m455.972656 437.609375h-13.140625c-2.746093 0-4.96875-2.226563-4.96875-4.972656v-32.410157c0-2.746093 2.222657-4.972656 4.96875-4.972656h13.140625c2.746094 0 4.972656 2.226563 4.972656 4.972656v32.410157c-.003906 2.746093-2.230468 4.972656-4.972656 4.972656zm0 0" fill="#c8bebc"/><path d="m333.421875 400.226562v16.363282h-17.175781c-2.011719 0-3.980469-.140625-5.910156-.414063v-15.949219c0-2.742187 2.230468-4.972656 4.976562-4.972656h13.132812c2.746094 0 4.976563 2.230469 4.976563 4.972656zm0 0" fill="#ebe0da"/><path d="m460.941406 400.226562v15.949219c-1.9375.273438-3.929687.414063-5.949218.414063h-17.132813v-16.363282c0-2.742187 2.230469-4.972656 4.972656-4.972656h13.136719c2.753906 0 4.972656 2.230469 4.972656 4.972656zm0 0" fill="#ebe0da"/><path d="m182.886719 255.390625c0 7-5.695313 12.695313-12.691407 12.695313-7 0-12.691406-5.695313-12.691406-12.695313 0-4.160156-3.375-7.535156-7.539062-7.535156-15.457032 0-6.457032 35.304687 20.230468 35.304687 26.710938 0 35.667969-35.304687 20.230469-35.304687-4.164062 0-7.539062 3.375-7.539062 7.535156zm0 0"/><path d="m234.191406 213.433594c0 6.636718-5.378906 12.015625-12.015625 12.015625-6.640625 0-12.019531-5.378907-12.019531-12.015625 0-6.640625 5.378906-12.019532 12.019531-12.019532 6.636719 0 12.015625 5.378907 12.015625 12.019532zm0 0"/><path d="m130.230469 213.433594c0 6.636718-5.378907 12.015625-12.015625 12.015625-6.636719 0-12.019532-5.378907-12.019532-12.015625 0-6.640625 5.382813-12.019532 12.019532-12.019532 6.636718 0 12.015625 5.378907 12.015625 12.019532zm0 0"/><path d="m251.890625 193.648438c7.992187-12.714844-21.339844-20.371094-47.449219-14.929688-4.074218.851562-6.6875 4.839844-5.839844 8.917969.851563 4.074219 4.84375 6.6875 8.917969 5.839843 5.832031-1.214843 24.59375-3.359374 33.980469 2.539063 3.523438 2.21875 8.175781 1.152344 10.390625-2.367187zm0 0"/><path d="m141.785156 187.636719c.847656-4.078125-1.765625-8.066407-5.839844-8.917969-2.914062-.609375-28.902343-5.632812-45.078124 4.535156-6.398438 4.023438-3.507813 13.917969 4.019531 13.917969 1.371093 0 2.757812-.371094 4.003906-1.15625 9.371094-5.894531 27.710937-3.828125 33.988281-2.539063 4.066406.84375 8.058594-1.769531 8.90625-5.839843zm0 0"/><path d="m206.875 439.101562c0 5.132813-4.160156 9.292969-9.296875 9.292969-5.132813 0-9.292969-4.160156-9.292969-9.292969 0-5.136718 4.160156-9.296874 9.292969-9.296874 5.136719 0 9.296875 4.160156 9.296875 9.296874zm0 0"/><path d="m206.875 477.5c0 5.136719-4.160156 9.296875-9.296875 9.296875-5.132813 0-9.292969-4.160156-9.292969-9.296875 0-5.132812 4.160156-9.296875 9.292969-9.296875 5.136719 0 9.296875 4.164063 9.296875 9.296875zm0 0"/><path d="m487.589844 327.054688h-51.785156v-10.5625c0-15.011719-12.210938-27.234376-27.222657-27.234376h-45.886719c-15.015624 0-27.226562 12.222657-27.226562 27.234376v10.5625c-55.992188 0-54.132812-.792969-59.394531 1.730468-.007813.007813-.007813.007813-.019531.019532-8.652344 4.132812-9.96875 10.972656-9.96875 20.449218-9.691407-5.328125-16.289063-7.558594-17.296876-8.039062-.019531 0-.027343-.007813-.035156-.007813-18.789062-7.226562-36.195312-8.90625-37.730468-8.90625 5.496093-3.132812 11.046874-6.691406 16.421874-10.589843 3.367188-2.445313 4.121094-7.15625 1.679688-10.535157-2.445312-3.363281-7.15625-4.117187-10.523438-1.675781-19.796874 14.339844-39.714843 22.089844-48.410156 22.089844-22.332031-.011719-93.894531-42.394532-93.894531-91.886719v-47.496094c3.566406-2.300781 6.792969-5.074219 9.589844-8.25 12.59375-14.253906 11.304687-29.15625 11.304687-37.605469 3.316406.664063 6.734375 1.015626 10.230469 1.015626 129.210937 0 124.710937.890624 135.769531-2.460938v9.132812c0 15.765626 8.144532 29.972657 20.894532 38.160157v47.503906c0 19.195313-10.859376 37.015625-23.878907 50.914063-2.84375 3.035156-2.691406 7.808593.34375 10.652343 3.035157 2.84375 7.808594 2.691407 10.652344-.34375 13.214844-14.097656 21.9375-29.074219 25.746094-44.035156 19.9375-4.9375 34.761719-22.984375 34.761719-44.429687 0-4.554688-.664063-8.945313-1.910157-13.097657h3.167969c7.585938 0 13.765625-6.167969 13.765625-13.757812v-43.707031c0-22.609376-18.359375-41.011719-40.960937-41.082032 4.019531-13.199218 3.105468-16.421875 3.105468-81.480468 0-15.140626-15.832031-24.472657-27.949218-16.3125-13.566407 9.15625-34.226563 15.839843-61.402344 19.859374-4.121094.601563-6.964844 4.429688-6.351563 8.550782.601563 4.121094 4.433594 6.964844 8.550781 6.351562 29.425782-4.339844 52.179688-11.839844 67.636719-22.261718 2.09375-1.460938 4.441407 1.015624 4.441407 3.8125v60.417968c0 28.824219-21.097657 52.539063-47.292969 52.539063h-119.089844c-11.660156 0-22.40625-5.507813-29.957031-14.601563-24.355469-29.285156-5.304688-76.09375 29.714844-76.328125 15.511718 1.054688 41.316406 1.203125 63.96875-.351562 4.148437-.28125 7.285156-3.878907 7.003906-8.03125-.28125-4.148438-3.890625-7.285157-8.03125-7.003907-34.203125 2.332032-61.695313.3125-62.699219.3125-30.832031 0-55.917969 27.164063-55.917969 60.539063 0 4.824219.523438 9.515625 1.519532 14.019531-21.871094.902344-39.367188 18.972656-39.367188 41.050782v43.707031c0 7.589843 6.171875 13.757812 13.757812 13.757812h3.167969c-7.53125 25.027344 7.648438 51.253907 32.820313 57.515625 6.84375 26.953125 28.230468 47.898438 41.910156 58.980469 7.625 6.179687 15.898438 11.78125 24.078125 16.441406-1.121094.1875-15.679687 1.066407-33.796875 7.449219-32.097656 11.296875-58.53125 33.464844-75.414062 61.714844-2.128907 3.578125-.964844 8.199218 2.601562 10.339844 3.578125 2.128906 8.210938.964843 10.34375-2.601563 8.339844-13.972656 19.132812-25.921875 31.0625-35.253906-1.988281 6.398437-3.136719 13.816406-3.035156 22.441406.132812 11.417969 13.792968 17.097656 22.371094 9.804687l23.65625-17.082031c1.289062.144531 54.546874 24.054688 55.476562 24.441407v83.371093h-125.441406c-12.210938 0-22.140625-9.929687-22.140625-22.140625 0-13.585937 2.121093-26.953125 6.28125-39.734375 1.296875-3.960937-.875-8.210937-4.824219-9.496093-3.957031-1.296876-8.21875.863281-9.507812 4.820312-4.660157 14.300781-7.023438 29.238281-7.023438 44.410156 0 20.523438 16.691406 37.214844 37.214844 37.214844h430.167968c20.847657 0 37.816407-16.960938 37.816407-37.816406 0-3.945313 0-126.621094 0-129.519532 0-9.710937-7.898438-17.609374-17.609375-17.609374zm-208.4375-86.878907c.007812-.160156.007812-.3125.007812-.472656v-41.3125c5.378906 1.140625 8.929688.972656 14.542969.972656 7.167969 15.140625.808594 33.445313-14.550781 40.8125zm-20.542969-102.476562c7.136719-4.492188 14.695313-11.964844 20.25-21.234375 17.523437-3.828125 32.800781 8.9375 32.800781 25.433594v42.390624c-11.816406 0-14.53125 0-23.132812 0-16.5625 0-30.261719-13.46875-30.261719-30.25 0-13.136718-.097656-13.605468.34375-16.339843zm-211.929687 61.664062c5.597656 0 9.179687.167969 14.542968-.972656 0 .234375-.003906 41.527344.011719 41.765625-15.359375-7.34375-21.722656-25.652344-14.554687-40.792969zm5.1875-15.074219c-8.117188 0-14.953126 0-23.136719 0v-42.390624c0-14.570313 12.179687-27.519532 29.707031-25.90625 5.296875 10.414062 13.4375 19.125 23.660156 24.800781.363282 13.046875.878906 22.011719-5.800781 31.054687-5.667969 7.773438-14.714844 12.441406-24.429687 12.441406zm159.6875 185.839844v-22.613281c6.390624.511719 19.761718 3.144531 31.046874 7.46875 13.867188 7.777344 20.933594 20.1875 21.523438 37.867187l-22.820312-16.472656c-2.644532-1.914062-8.519532-3.628906-14.453126-1.015625l-28.75 12.230469c12.136719-13.085938 13.453126-13.625 13.453126-17.464844zm-97.941407 5.277344c-5.167969-2.324219-11.039062-1.480469-14.542969.972656l-22.804687 16.472656c.59375-17.648437 7.628906-30.050781 21.4375-37.828124 9.738281-3.679688 19.417969-6.101563 31.113281-7.507813 0 24.203125-.621094 24.777344 1.910156 27.617187l11.183594 12.59375zm30.277344-8.140625c0-15.496094 0-11.890625 0-27.617187 10.089844 4.441406 19.367187 7.015624 26.300781 7.015624 6.882813 0 16.148438-2.554687 26.289063-7.007812v27.519531l-26.902344 28.992188zm33.839844 129.660156v-84.007812c4.378906-2.34375 55.382812-23.8125 55.453125-23.804688 26.804687 19.34375 26.972656 20.46875 32.902344 20.316407v60.53125h-33.585938c-4.160156 0-7.539062 3.378906-7.539062 7.539062s3.378906 7.535156 7.539062 7.535156h35.175781c1.300781 4.34375 3.363281 8.355469 6.035157 11.890625zm172.8125-180.433593c0-6.703126 5.449219-12.160157 12.152343-12.160157h45.886719c6.703125 0 12.148438 5.457031 12.148438 12.160157v10.5625h-70.1875zm139.582031 157.691406c0 12.542968-10.210938 22.742187-22.753906 22.742187-8.609375 0-155.308594 0-163.5 0-12.535156-.019531-22.710938-10.230469-22.710938-22.742187 0-6.863282 0-57.402344 0-64.410156 5.960938 5.851562 13.367188 10.222656 21.636719 12.523437v10.359375c0 6.894531 5.609375 12.515625 12.511719 12.515625h13.136718c6.902344 0 12.511719-5.621094 12.511719-12.515625v-8.519531h89.359375v8.519531c0 6.894531 5.621094 12.515625 12.515625 12.515625h13.132813c6.90625 0 12.511718-5.621094 12.511718-12.515625v-10.359375c8.269532-2.300781 15.6875-6.683594 21.648438-12.53125zm-164.242188-50.046875v5.957031h-8.011718v-5.957031zm-8.011718-15.074219v-6.253906h8.011718v6.253906zm135.53125 15.074219v5.957031h-8.007813v-5.957031zm-8.007813-15.074219v-6.253906h8.007813v6.253906zm44.730469-35.113281c0 14.589843-8.945312 27.132812-21.648438 32.417969v-6.121094c0-6.890625-5.605468-12.511719-12.511718-12.511719h-13.132813c-6.894531 0-12.515625 5.621094-12.515625 12.511719v8.816406h-89.359375v-8.816406c0-6.890625-5.609375-12.511719-12.511719-12.511719h-13.136718c-6.902344 0-12.511719 5.621094-12.511719 12.511719v6.121094c-12.691406-5.285157-21.636719-17.828126-21.636719-32.417969 0-31.230469-.253906-29.671875.433594-30.703125 1.15625-1.699219-12.875-1.117188 205.996094-1.117188 1.386718 0 2.535156 1.136719 2.535156 2.535156zm0 0"/></svg>