<svg id="_x33_0" enable-background="new 0 0 62 62" height="512" viewBox="0 0 62 62" width="512" xmlns="http://www.w3.org/2000/svg"><g><g><g><path d="m54 57c1.66 0 3 1.34 3 3 0 .55-.45 1-1 1h-6c-.55 0-1-.45-1-1 0-.83.34-1.58.88-2.12s1.29-.88 2.12-.88z" fill="#aab2bd"/></g><g><path d="m43 58v2c0 .55-.45 1-1 1h-36c-.55 0-1-.45-1-1v-2c0-.55.45-1 1-1h11 14 11c.55 0 1 .45 1 1z" fill="#969faa"/></g><g><path d="m47 45h-46v-29c0-.552.448-1 1-1h44c.552 0 1 .448 1 1z" fill="#69d6f4"/></g><g><path d="m17 51h14v6h-14z" fill="#aab2bd"/></g><g><path d="m35 45v6h-4-14-15c-.55 0-1-.45-1-1v-5z" fill="#ccd1d9"/></g><g><path d="m61 33v19c0 .55-.45 1-1 1h-24c-.55 0-1-.45-1-1v-1-6-8-4h4 4 4z" fill="#e6e9ed"/></g><g><path d="m57 39v10h-14v-4h4v-6z" fill="#ff826e"/></g><g><path d="m47 39v6h-4-4v-8h8z" fill="#fcd770"/></g><g><path d="m47 27h13c.55 0 1 .45 1 1v5h-14-4-4-4v-5c0-.55.45-1 1-1z" fill="#b4dd7f"/></g><g><path d="m31 15v7c0 2.83-1.3 5.35-3.34 7-.79-.65-1.69-1.17-2.68-1.52-.63-.23-1.29-.4-1.98-.48v-3c2.35-.59 4-2.7 4-5.12v-1.88h2c.55 0 1.05-.22 1.41-.59.37-.36.59-.86.59-1.41z" fill="#fcd770"/></g><g><path d="m31 9v6c0-1.1-.9-2-2-2h-2v-.76c0-1.47-.34-2.92-1-4.24l-2 3-3-3-2 3-3.59-3.59c-.26-.26-.62-.41-1-.41-.78 0-1.41.63-1.41 1.41v.59c-1.1 0-2 .9-2 2v2h-2c-1.1 0-2 .9-2 2v-8c0-2.21 1.79-4 4-4 .61-1.23 1.87-2 3.24-2h8.76c4.42 0 8 3.58 8 8z" fill="#fcd770"/></g><g><path d="m9 17h2v1.88c0 1.21.41 2.34 1.12 3.25.7.9 1.7 1.57 2.88 1.87v3c-.69.08-1.35.25-1.98.48-.99.35-1.89.87-2.68 1.52-2.04-1.65-3.34-4.17-3.34-7v-7c0 .55.22 1.05.59 1.41.36.37.86.59 1.41.59z" fill="#fcd770"/></g><g><path d="m31 36.06v.94h-8c0-2.21-1.79-4-4-4 1.58 0 3.01-.61 4.08-1.6 1.07-1 1.78-2.38 1.9-3.92.99.35 1.89.87 2.68 1.52.38.32.73.65 1.05 1.02 1.43 1.62 2.29 3.74 2.29 6.04z" fill="#e6e9ed"/></g><g><path d="m19 33c-2.21 0-4 1.79-4 4h-8v-.94c0-2.82 1.29-5.37 3.34-7.06.79-.65 1.69-1.17 2.68-1.52.24 3.09 2.83 5.52 5.98 5.52z" fill="#e6e9ed"/></g><g><circle cx="19" cy="37" fill="#ff826e" r="4"/></g><g><path d="m29 13c1.1 0 2 .9 2 2 0 .55-.22 1.05-.59 1.41-.36.37-.86.59-1.41.59h-2v-4z" fill="#f0d0b4"/></g><g><path d="m11 13v4h-2c-.55 0-1.05-.22-1.41-.59-.37-.36-.59-.86-.59-1.41 0-1.1.9-2 2-2z" fill="#f0d0b4"/></g><g><path d="m27 17v1.88c0 2.42-1.65 4.53-4 5.12v3c.69.08 1.35.25 1.98.48-.12 1.54-.83 2.92-1.9 3.92-1.07.99-2.5 1.6-4.08 1.6-3.15 0-5.74-2.43-5.98-5.52.63-.23 1.29-.4 1.98-.48v-3c-1.18-.3-2.18-.97-2.88-1.87-.71-.91-1.12-2.04-1.12-3.25v-1.88-4-2c0-1.1.9-2 2-2v-.59c0-.78.63-1.41 1.41-1.41.38 0 .74.15 1 .41l3.59 3.59 2-3 3 3 2-3c.66 1.32 1 2.77 1 4.24v.76z" fill="#f0d0b4"/></g></g><g><circle cx="15" cy="15" r="1"/><circle cx="23" cy="15" r="1"/><path d="m21 18.764c-.381.762-1.147 1.236-2 1.236s-1.619-.474-2-1.236l-.105-.211-1.789.895.105.211c.722 1.444 2.174 2.341 3.789 2.341s3.067-.897 3.789-2.342l.105-.211-1.789-.895z"/><circle cx="19" cy="37" r="1"/><path d="m60 26h-12v-10c0-1.103-.897-2-2-2h-14v-5c0-4.963-4.038-9-9-9h-8.764c-1.558 0-2.978.767-3.829 2.035-2.479.294-4.407 2.408-4.407 4.965v7h-4c-1.103 0-2 .897-2 2v34c0 1.103.897 2 2 2h14v4h-10c-1.103 0-2 .897-2 2v2c0 1.103.897 2 2 2h36c1.103 0 2-.897 2-2v-2c0-1.103-.897-2-2-2h-10v-4h2c0 1.103.897 2 2 2h24c1.103 0 2-.897 2-2v-24c0-1.103-.897-2-2-2zm0 6h-12v-2h-2v2h-2v-2h-2v2h-2v-2h-2v2h-2v-4h24zm-14-6h-10c-1.103 0-2 .897-2 2v8h-2.003c-.017-2.695-1.098-5.169-2.865-6.991 1.835-1.862 2.868-4.36 2.868-7.009v-6h14zm-22.101 10c-.228-1.117-.843-2.083-1.681-2.795 1.685-.881 2.981-2.428 3.515-4.296 2.54 1.378 4.241 4.059 4.265 7.09h-6.099zm-1.899 1c0 1.654-1.346 3-3 3s-3-1.346-3-3 1.346-3 3-3 3 1.346 3 3zm-7.899-1h-6.098c.023-3.031 1.724-5.713 4.265-7.09.534 1.868 1.83 3.415 3.515 4.296-.839.711-1.454 1.677-1.682 2.794zm-6.101-14v-4.184c.314.112.648.184 1 .184h1v.877c0 2.619 1.61 4.924 4 5.853v1.427c-1.315.283-2.525.826-3.59 1.558-1.537-1.502-2.41-3.543-2.41-5.715zm2-6h-1c-.551 0-1-.448-1-1s.449-1 1-1h1zm18-2h1c.551 0 1 .448 1 1s-.449 1-1 1h-1zm0 4.877v-.877h1c.352 0 .686-.072 1-.184v4.184c0 2.172-.873 4.213-2.41 5.715-1.065-.733-2.275-1.275-3.59-1.558v-1.427c2.39-.929 4-3.234 4-5.853zm-2 0c0 1.968-1.333 3.676-3.243 4.153l-.757.19v4.663l.876.109c.331.041.653.109.97.189-.537 2.193-2.524 3.819-4.846 3.819s-4.309-1.626-4.846-3.819c.317-.08.639-.148.97-.189l.876-.109v-4.663l-.757-.189c-1.91-.478-3.243-2.186-3.243-4.154v-7.877c0-.552.449-1 1-1h1v-1.586c0-.338.468-.532.707-.293l4.448 4.448 2-3 3 3 1.591-2.386c.168.671.254 1.363.254 2.053zm-15-14.877h.618l.276-.553c.447-.892 1.344-1.447 2.342-1.447h8.764c3.86 0 7 3.141 7 7v3.184c-.314-.112-.648-.184-1-.184h-1.014c-.035-1.538-.404-3.072-1.092-4.447l-.771-1.541-2.279 3.419-3-3-2 3-2.724-2.725c-.449-.448-1.071-.706-1.706-.706-1.248 0-2.277.951-2.401 2.167-1.171.409-2.013 1.524-2.013 2.833v1h-1c-.352 0-.686.072-1 .184v-5.184c0-1.654 1.346-3 3-3zm-5 12v6c0 2.649 1.033 5.147 2.868 7.009-1.767 1.822-2.849 4.296-2.865 6.991h-2.003v2h10.101c.465 2.279 2.484 4 4.899 4s4.434-1.721 4.899-4h10.101v6h-32v-28zm36.001 44h-36.001v-2h36zm-12.001-4h-12v-4h12zm-28-6v-4h32v4zm34 2v-18h24l.001 18z"/><path d="m48 38v-2h-10v10h4v4h16v-12zm-8 0h6v6h-6zm16 10h-12v-2h4v-6h8z"/><path d="m54 56h-2c-2.206 0-4 1.794-4 4 0 1.103.897 2 2 2h6c1.103 0 2-.897 2-2 0-2.206-1.794-4-4-4zm-4 4c0-1.103.897-2 2-2h2c1.103 0 2 .897 2.001 2z"/></g></g></svg>