<?xml version="1.0" encoding="iso-8859-1"?>
<!-- Generator: Adobe Illustrator 19.0.0, SVG Export Plug-In . SVG Version: 6.00 Build 0)  -->
<svg xmlns="http://www.w3.org/2000/svg" xmlns:xlink="http://www.w3.org/1999/xlink" version="1.1" id="Layer_1" x="0px" y="0px" viewBox="0 0 512.127 512.127" style="enable-background:new 0 0 512.127 512.127;" xml:space="preserve" width="512" height="512">
<g id="XMLID_1423_">
	<path id="XMLID_2769_" style="fill:#AA89B7;" d="M128.444,373.635v9.111c0,20.128-16.317,36.444-36.444,36.444h0h0   c-20.128,0-36.444-16.317-36.444-36.444v-9.111c0-20.128,16.317-36.444,36.444-36.444h0   C112.128,337.19,128.444,353.507,128.444,373.635z"/>
	<path id="XMLID_2768_" style="fill:#AA89B7;" d="M292.571,373.635v9.111c0,20.128-16.317,36.444-36.444,36.444h0h0   c-20.128,0-36.444-16.317-36.444-36.444v-9.111c0-20.128,16.317-36.444,36.444-36.444h0   C276.255,337.19,292.571,353.507,292.571,373.635z"/>
	<path id="XMLID_2767_" style="fill:#FFC66C;" d="M128.444,419.19H55.556C30.396,419.19,10,439.586,10,464.746v37.317h164v-37.317   C174,439.586,153.604,419.19,128.444,419.19z"/>
	<path id="XMLID_2764_" style="fill:#FFC66C;" d="M292.571,419.19h-72.889c-25.16,0-45.556,20.396-45.556,45.556v37.317h164v-37.317   C338.127,439.586,317.731,419.19,292.571,419.19z"/>
	<path id="XMLID_1207_" style="fill:#AA89B7;" d="M456.571,373.635v9.111c0,20.128-16.317,36.444-36.444,36.444h0h0   c-20.128,0-36.444-16.317-36.444-36.444v-9.111c0-20.128,16.317-36.444,36.444-36.444h0   C440.255,337.19,456.571,353.507,456.571,373.635z"/>
	<path id="XMLID_1206_" style="fill:#FFC66C;" d="M456.571,419.19h-72.889c-25.16,0-45.556,20.396-45.556,45.556v37.317h164v-37.317   C502.127,439.586,481.731,419.19,456.571,419.19z"/>
	<g id="XMLID_2849_">
		<g id="XMLID_2850_">
			<path id="XMLID_2859_" style="fill:#4DBAF6;" d="M266.287,154.319H107.713C83.571,154.319,64,173.889,64,198.031v80.81h246     v-80.81C310,173.889,290.429,154.319,266.287,154.319z"/>
			<polygon id="XMLID_2858_" style="fill:#FFFFFF;" points="239.752,154.318 239.752,211.067 187,160.382 134.248,211.067      134.248,154.318    "/>
			<path id="XMLID_2855_" style="fill:#AA89B7;" d="M187,10.063L187,10.063c-29.89,0-54.12,24.23-54.12,54.12v13.028h26.461     c17.59,0,34.277-7.788,45.575-21.27l0,0l36.204,21.27V64.183C241.12,34.294,216.89,10.063,187,10.063z"/>
			<path id="XMLID_2854_" style="fill:#FCCD9D;" d="M193.258,66.576c-9.859,6.848-21.666,10.635-33.917,10.635H132.88v22.987     c0,29.89,24.23,54.12,54.12,54.12h0c29.89,0,54.12-24.231,54.12-54.12V77.212l-18.102-10.635l-18.102-10.635L193.258,66.576z"/>
		</g>
	</g>
	<g id="XMLID_2880_">
		<g id="XMLID_2878_">
			<path id="XMLID_2879_" style="fill:#FF5D5D;" d="M490.541,137.452H364.094l-35.915,16.866V21.523     c0-6.329,5.13-11.459,11.459-11.459h150.902c6.329,0,11.459,5.13,11.459,11.459v104.471     C502,132.322,496.87,137.452,490.541,137.452z"/>
		</g>
		<g id="XMLID_924_">
			<path id="XMLID_1259_" d="M458.246,409.233c5.241-7.519,8.325-16.647,8.325-26.487v-9.111c0-25.609-20.835-46.444-46.444-46.444     s-46.444,20.835-46.444,46.444v9.111c0,9.84,3.084,18.968,8.325,26.487c-18.147,0.541-34.129,9.819-43.881,23.772     c-9.751-13.953-25.733-23.23-43.881-23.772c5.241-7.519,8.325-16.647,8.325-26.487v-9.111c0-25.609-20.835-46.444-46.444-46.444     s-46.444,20.835-46.444,46.444v9.111c0,9.84,3.084,18.968,8.325,26.487c-18.187,0.542-34.199,9.858-43.944,23.861     c-9.745-14.003-25.758-23.318-43.944-23.861c5.241-7.519,8.325-16.647,8.325-26.487v-9.111c0-25.609-20.835-46.444-46.444-46.444     s-46.444,20.835-46.444,46.444v9.111c0,9.84,3.084,18.968,8.325,26.487C24.021,410.124,0,434.674,0,464.746v37.317     c0,5.522,4.478,10,10,10h492.127c5.522,0,10-4.478,10-10v-37.317C512.127,434.674,488.106,410.124,458.246,409.233z      M393.683,373.635c0-14.581,11.863-26.444,26.444-26.444s26.444,11.863,26.444,26.444v9.111     c0,14.581-11.863,26.444-26.444,26.444s-26.444-11.863-26.444-26.444V373.635z M229.683,373.635     c0-14.581,11.863-26.444,26.444-26.444s26.444,11.863,26.444,26.444v9.111c0,14.581-11.863,26.444-26.444,26.444     s-26.444-11.863-26.444-26.444V373.635z M65.556,373.635c0-14.581,11.863-26.444,26.444-26.444s26.444,11.863,26.444,26.444     v9.111c0,14.581-11.863,26.444-26.444,26.444s-26.444-11.863-26.444-26.444V373.635z M164,492.063H20v-27.317     c0-19.605,15.95-35.556,35.556-35.556h72.889c19.605,0,35.556,15.95,35.556,35.556V492.063z M184.127,464.746     c0-19.605,15.95-35.556,35.556-35.556h72.889c19.605,0,35.556,15.95,35.556,35.556v27.317h-144V464.746z M492.127,492.063h-144     v-27.317c0-19.605,15.95-35.556,35.556-35.556h72.889c19.605,0,35.556,15.95,35.556,35.556V492.063z"/>
			<path id="XMLID_1309_" d="M187,268.844c-2.63,0-5.21,1.069-7.07,2.93c-1.86,1.859-2.93,4.43-2.93,7.07     c0,2.63,1.069,5.21,2.93,7.069c1.86,1.86,4.44,2.931,7.07,2.931s5.21-1.07,7.069-2.931c1.86-1.87,2.931-4.439,2.931-7.069     c0-2.631-1.07-5.211-2.931-7.07C192.21,269.913,189.63,268.844,187,268.844z"/>
			<path id="XMLID_1315_" d="M64,288.841h83c5.522,0,10-4.478,10-10s-4.478-10-10-10H74v-70.81c0-18.59,15.124-33.713,33.713-33.713     h16.535v46.749c0,4.009,2.394,7.629,6.081,9.2c3.688,1.57,7.957,0.788,10.848-1.989L177,183.858v30.106c0,5.522,4.478,10,10,10     s10-4.478,10-10v-30.106l35.823,34.42c1.9,1.825,4.396,2.789,6.931,2.789c1.321,0,2.653-0.262,3.917-0.8     c3.688-1.571,6.081-5.191,6.081-9.2v-46.749h16.535c18.589,0,33.713,15.123,33.713,33.713v70.81h-73c-5.522,0-10,4.478-10,10     s4.478,10,10,10h83c5.522,0,10-4.478,10-10v-80.81c0-29.617-24.096-53.713-53.713-53.713h-32.826     c10.93-11.504,17.659-27.037,17.659-44.12V77.212V66.576v-2.393c0-35.355-28.764-64.12-64.12-64.12s-64.12,28.765-64.12,64.12     v2.393v10.636v22.986c0,17.083,6.729,32.616,17.659,44.12h-32.826C78.096,144.318,54,168.414,54,198.031v80.81     C54,284.363,58.478,288.841,64,288.841z M144.248,164.318h24.221l-24.221,23.272V164.318z M229.752,187.591l-24.221-23.272     h24.221V187.591z M142.88,64.184c0-24.328,19.792-44.12,44.12-44.12c22.78,0,41.584,17.354,43.884,39.536l-20.902-12.28     c-4.211-2.474-9.593-1.544-12.73,2.199c-9.422,11.244-23.24,17.693-37.91,17.693H142.88v-0.636V64.184z M142.88,100.198V87.212     h16.461c17.726,0,34.563-6.702,47.348-18.631l24.432,14.354v17.263c0,24.328-19.792,44.12-44.12,44.12     S142.88,124.526,142.88,100.198z"/>
			<path id="XMLID_1330_" d="M322.818,162.76c1.629,1.034,3.491,1.559,5.362,1.559c1.446,0,2.898-0.314,4.25-0.948l33.896-15.918     h124.215c11.832,0,21.459-9.626,21.459-21.459V21.522c0-11.833-9.627-21.459-21.459-21.459H339.639     c-11.832,0-21.459,9.626-21.459,21.459v132.796C318.18,157.74,319.93,160.925,322.818,162.76z M338.18,21.522     c0-0.805,0.654-1.459,1.459-1.459h150.902c0.805,0,1.459,0.654,1.459,1.459v104.471c0,0.805-0.654,1.459-1.459,1.459H364.095     c-1.47,0-2.921,0.324-4.251,0.948l-21.664,10.174V21.522z"/>
			<path id="XMLID_1331_" d="M367.434,62.639h95.312c5.522,0,10-4.478,10-10s-4.478-10-10-10h-95.312c-5.522,0-10,4.478-10,10     S361.911,62.639,367.434,62.639z"/>
			<path id="XMLID_1332_" d="M367.434,102.639h65.753c5.522,0,10-4.478,10-10s-4.478-10-10-10h-65.753c-5.522,0-10,4.478-10,10     S361.911,102.639,367.434,102.639z"/>
		</g>
	</g>
</g>















</svg>
