<?xml version="1.0" encoding="iso-8859-1"?>
<!-- Generator: Adobe Illustrator 19.0.0, SVG Export Plug-In . SVG Version: 6.00 Build 0)  -->
<svg version="1.1" id="Capa_1" xmlns="http://www.w3.org/2000/svg" xmlns:xlink="http://www.w3.org/1999/xlink" x="0px" y="0px"
	 viewBox="0 0 512 512" style="enable-background:new 0 0 512 512;" xml:space="preserve">
<g>
	<g>
		<path style="fill:#B19046;" d="M238.345,388.414h35.31v105.931c0,9.751-7.904,17.655-17.655,17.655
			c-9.751,0-17.655-7.905-17.655-17.655V388.414z"/>
		<path style="fill:#B19046;" d="M321.148,388.414l56.055,97.103c3.154,5.456,3.157,12.18,0.009,17.639
			c-3.148,5.459-8.97,8.824-15.272,8.828s-12.127-3.356-15.281-8.812l-66.207-114.759h-48.905l-66.207,114.759
			c-4.875,8.434-15.665,11.319-24.099,6.444s-11.319-15.665-6.444-24.099l56.055-97.103L220.69,35.31C220.69,15.809,236.499,0,256,0
			s35.31,15.809,35.31,35.31L321.148,388.414z"/>
	</g>
	<path style="fill:#35495E;" d="M152.806,35.31h341.539c9.739,0.029,17.627,7.916,17.655,17.655v317.793
		c-0.029,9.739-7.916,17.627-17.655,17.655H17.655C7.916,388.385,0.029,380.497,0,370.759V52.966
		c0.029-9.739,7.916-17.627,17.655-17.655H152.806z"/>
	<path style="fill:#FF5364;" d="M467.862,256H256c-4.875,0-8.828-3.952-8.828-8.828s3.952-8.828,8.828-8.828h211.862
		c4.875,0,8.828,3.952,8.828,8.828S472.737,256,467.862,256z"/>
	<path style="fill:#F3D55B;" d="M467.862,291.31H256c-4.875,0-8.828-3.952-8.828-8.828s3.952-8.828,8.828-8.828h211.862
		c4.875,0,8.828,3.952,8.828,8.828S472.737,291.31,467.862,291.31z"/>
	<path style="fill:#2FA8CC;" d="M467.862,326.621H256c-4.875,0-8.828-3.952-8.828-8.828s3.952-8.828,8.828-8.828h211.862
		c4.875,0,8.828,3.952,8.828,8.828S472.737,326.621,467.862,326.621z"/>
	<path style="fill:#FFFFFF;" d="M423.724,88.276v52.966h-52.966c0,29.252,23.713,52.966,52.966,52.966
		c29.252,0,52.966-23.713,52.966-52.966S452.976,88.276,423.724,88.276z"/>
	<path style="fill:#FF5364;" d="M256,203.034c-4.875,0-8.828-3.952-8.828-8.828s3.952-8.828,8.828-8.828
		c46.875,0,80.806-52.728,80.806-88.276c0-4.875,3.952-8.828,8.828-8.828s8.828,3.952,8.828,8.828
		C354.461,145.082,310.543,203.034,256,203.034z"/>
	<g>
		<polygon style="fill:#E64C3C;" points="167.724,167.724 211.862,220.69 211.862,317.793 167.724,273.655 150.069,308.966 
			97.103,308.966 79.448,273.655 35.31,317.793 35.31,220.69 79.448,167.724 		"/>
		<path style="fill:#E64C3C;" d="M79.448,79.448C79.448,39.559,123.586,0,123.586,0s44.138,39.559,44.138,79.448H79.448z"/>
	</g>
	<rect x="79.448" y="79.448" style="fill:#F0C419;" width="88.276" height="194.207"/>
	<path style="fill:#E64C3C;" d="M167.724,238.345H79.448c-4.875,0-8.828-3.952-8.828-8.828s3.952-8.828,8.828-8.828h88.276
		c4.875,0,8.828,3.952,8.828,8.828S172.599,238.345,167.724,238.345z"/>
	<path style="fill:#F0C419;" d="M144.331,308.966c0.892,2.422,1.34,4.985,1.324,7.567c0,12.56-22.069,45.399-22.069,45.399
		s-22.069-32.839-22.069-45.399c-0.016-2.581,0.432-5.144,1.324-7.567"/>
	<g>
		<path style="fill:#FFFFFF;" d="M132.414,123.586h-17.655c-4.875,0-8.828-3.952-8.828-8.828s3.952-8.828,8.828-8.828h17.655
			c4.875,0,8.828,3.952,8.828,8.828S137.289,123.586,132.414,123.586z"/>
		<path style="fill:#FFFFFF;" d="M132.414,158.897h-17.655c-4.875,0-8.828-3.952-8.828-8.828s3.952-8.828,8.828-8.828h17.655
			c4.875,0,8.828,3.952,8.828,8.828S137.289,158.897,132.414,158.897z"/>
	</g>
	<path style="fill:#2FA8CC;" d="M353.103,203.034H256c-4.875,0-8.828-3.952-8.828-8.828V97.103c0-4.875,3.952-8.828,8.828-8.828
		s8.828,3.952,8.828,8.828v88.276h88.276c4.875,0,8.828,3.952,8.828,8.828S357.979,203.034,353.103,203.034z"/>
</g>
<g>
</g>
<g>
</g>
<g>
</g>
<g>
</g>
<g>
</g>
<g>
</g>
<g>
</g>
<g>
</g>
<g>
</g>
<g>
</g>
<g>
</g>
<g>
</g>
<g>
</g>
<g>
</g>
<g>
</g>
</svg>
