<?xml version="1.0" encoding="iso-8859-1"?>
<!-- Generator: Adobe Illustrator 19.0.0, SVG Export Plug-In . SVG Version: 6.00 Build 0)  -->
<svg version="1.1" id="Capa_1" xmlns="http://www.w3.org/2000/svg" xmlns:xlink="http://www.w3.org/1999/xlink" x="0px" y="0px"
	 viewBox="0 0 480 480" style="enable-background:new 0 0 480 480;" xml:space="preserve">
<polygon style="fill:#006837;" points="400,48 80,48 48,80 48,400 80,432 400,432 432,400 432,80 "/>
<g>
	<rect y="232" style="fill:#999999;" width="48" height="16"/>
	<rect y="192" style="fill:#999999;" width="48" height="16"/>
	<rect y="152" style="fill:#999999;" width="48" height="16"/>
	<rect y="112" style="fill:#999999;" width="48" height="16"/>
	<rect y="352" style="fill:#999999;" width="48" height="16"/>
	<rect y="312" style="fill:#999999;" width="48" height="16"/>
	<rect y="272" style="fill:#999999;" width="48" height="16"/>
	<rect x="432" y="232" style="fill:#999999;" width="48" height="16"/>
	<rect x="432" y="192" style="fill:#999999;" width="48" height="16"/>
	<rect x="432" y="152" style="fill:#999999;" width="48" height="16"/>
	<rect x="432" y="112" style="fill:#999999;" width="48" height="16"/>
	<rect x="432" y="352" style="fill:#999999;" width="48" height="16"/>
	<rect x="432" y="312" style="fill:#999999;" width="48" height="16"/>
	<rect x="432" y="272" style="fill:#999999;" width="48" height="16"/>
	<rect x="232" style="fill:#999999;" width="16" height="48"/>
	<rect x="272" style="fill:#999999;" width="16" height="48"/>
	<rect x="312" style="fill:#999999;" width="16" height="48"/>
	<rect x="352" style="fill:#999999;" width="16" height="48"/>
	<rect x="112" style="fill:#999999;" width="16" height="48"/>
	<rect x="152" style="fill:#999999;" width="16" height="48"/>
	<rect x="192" style="fill:#999999;" width="16" height="48"/>
	<rect x="232" y="432" style="fill:#999999;" width="16" height="48"/>
	<rect x="272" y="432" style="fill:#999999;" width="16" height="48"/>
	<rect x="312" y="432" style="fill:#999999;" width="16" height="48"/>
	<rect x="352" y="432" style="fill:#999999;" width="16" height="48"/>
	<rect x="112" y="432" style="fill:#999999;" width="16" height="48"/>
	<rect x="152" y="432" style="fill:#999999;" width="16" height="48"/>
	<rect x="192" y="432" style="fill:#999999;" width="16" height="48"/>
</g>
<rect x="96" y="96" style="fill:#009245;" width="288" height="288"/>
<g>
	<rect x="136" y="136" style="fill:#F7931E;" width="32" height="32"/>
	<rect x="272" y="176" style="fill:#F7931E;" width="32" height="32"/>
	<rect x="200" y="240" style="fill:#F7931E;" width="32" height="32"/>
	<rect x="176" y="312" style="fill:#F7931E;" width="32" height="32"/>
	<rect x="312" y="256" style="fill:#F7931E;" width="32" height="32"/>
</g>
<g>
	<path style="fill:#F8CF26;" d="M296,176h-16v-40c0-4.418,3.582-8,8-8h96v16h-88V176z"/>
	<path style="fill:#F8CF26;" d="M200,264h-48c-4.418,0-8-3.582-8-8v-40H96v-16h56c4.418,0,8,3.582,8,8v40h40V264z"/>
	<rect x="208" y="184" style="fill:#F8CF26;" width="16" height="16"/>
	<rect x="264" y="262.92" style="fill:#F8CF26;" width="16" height="16"/>
	<rect x="128" y="320" style="fill:#F8CF26;" width="16" height="16"/>
	<rect x="336" y="184" style="fill:#F8CF26;" width="16" height="16"/>
	<path style="fill:#F8CF26;" d="M280,384h-16v-48h-56v-16h64c4.418,0,8,3.582,8,8V384z"/>
	<path style="fill:#F8CF26;" d="M336,324.688V288h-16v40c0,2.122,0.844,4.156,2.344,5.656L372.688,384H384v-11.312L336,324.688z"/>
	<path style="fill:#F8CF26;" d="M252.688,96l-48,48H168v16h40c2.122,0,4.156-0.844,5.656-2.344L275.312,96H252.688z"/>
</g>
<g>
</g>
<g>
</g>
<g>
</g>
<g>
</g>
<g>
</g>
<g>
</g>
<g>
</g>
<g>
</g>
<g>
</g>
<g>
</g>
<g>
</g>
<g>
</g>
<g>
</g>
<g>
</g>
<g>
</g>
</svg>
