<svg height="512pt" viewBox="0 -20 512 511" width="512pt" xmlns="http://www.w3.org/2000/svg"><path d="m207.90625 368.71875h96.1875v96.1875h-96.1875zm0 0" fill="#827189"/><path d="m207.90625 368.71875h96.1875v32.0625h-96.1875zm0 0" fill="#634e6c"/><path d="m480.4375 368.71875h-448.875c-13.28125 0-24.046875-10.765625-24.046875-24.046875v-312.609375c0-13.28125 10.765625-24.046875 24.046875-24.046875h448.875c13.28125 0 24.046875 10.765625 24.046875 24.046875v312.609375c0 13.28125-10.765625 24.046875-24.046875 24.046875zm0 0" fill="#827189"/><path d="m55.609375 344.671875v-312.609375c0-13.28125 10.765625-24.046875 24.046875-24.046875h-48.09375c-13.28125 0-24.046875 10.765625-24.046875 24.046875v312.609375c0 13.28125 10.765625 24.046875 24.046875 24.046875h48.09375c-13.28125 0-24.046875-10.765625-24.046875-24.046875zm0 0" fill="#634e6c"/><path d="m7.515625 48.09375h496.96875v280.546875h-496.96875zm0 0" fill="#efedf0"/><path d="m7.515625 48.09375h48.09375v280.546875h-48.09375zm0 0" fill="#d0cad3"/><path d="m480.4375.5h-448.875c-17.402344 0-31.5625 14.160156-31.5625 31.5625v312.609375c0 17.402344 14.160156 31.5625 31.5625 31.5625h168.828125v81.15625h-24.546875c-4.152344 0-7.515625 3.367187-7.515625 7.515625 0 4.152344 3.363281 7.515625 7.515625 7.515625h160.3125c4.152344 0 7.515625-3.363281 7.515625-7.515625 0-4.148438-3.363281-7.515625-7.515625-7.515625h-24.546875v-81.15625h168.828125c17.402344 0 31.5625-14.160156 31.5625-31.5625v-312.609375c0-17.402344-14.160156-31.5625-31.5625-31.5625zm-448.875 15.03125h448.875c9.117188 0 16.53125 7.414062 16.53125 16.53125v8.515625h-38.574219c-4.148437 0-7.515625 3.363281-7.515625 7.515625 0 4.148438 3.367188 7.515625 7.515625 7.515625h38.574219v265.515625h-481.9375v-265.515625h407.292969c4.152343 0 7.515625-3.367187 7.515625-7.515625 0-4.152344-3.363282-7.515625-7.515625-7.515625h-407.292969v-8.515625c0-9.117188 7.414062-16.53125 16.53125-16.53125zm265.015625 441.859375h-81.15625v-81.15625h81.15625zm183.859375-96.1875h-448.875c-9.117188 0-16.53125-7.414063-16.53125-16.53125v-8.515625h481.9375v8.515625c0 9.117187-7.414062 16.53125-16.53125 16.53125zm0 0"/><path d="m376.234375 72.640625h-248.484375c-4.152344 0-7.515625 3.363281-7.515625 7.515625v216.421875c0 4.152344 3.363281 7.515625 7.515625 7.515625h248.484375c4.152344 0 7.515625-3.363281 7.515625-7.515625v-216.421875c0-4.152344-3.363281-7.515625-7.515625-7.515625zm-127.75 56.835937c-18.238281 3.519532-32.0625 19.597657-32.0625 38.851563 0 4.152344 3.363281 7.515625 7.515625 7.515625h24.546875v25.046875h-113.21875v-25.046875h56.609375c4.152344 0 7.515625-3.363281 7.515625-7.515625v-80.65625h49.09375zm-113.21875 6.261719c.164063.011719.332031.027344.5.027344h48.59375v25.046875h-49.09375zm49.09375-48.066406v33.0625h-48.59375c-.167969 0-.335937.015625-.5.027344v-33.089844zm135.265625 201.390625v-15.855469c7.5 2.417969 13.425781 8.355469 15.84375 15.855469zm49.09375 0h-17.757812c-3.519532-18.238281-19.597657-32.0625-38.851563-32.0625-4.152344 0-7.515625 3.363281-7.515625 7.515625v24.546875h-169.328125v-73.140625h113.21875v24.546875c0 4.152344 3.363281 7.515625 7.515625 7.515625s7.515625-3.363281 7.515625-7.515625v-72.140625c0-4.152344-3.363281-7.515625-7.515625-7.515625h-23.371094c3.179688-9.871094 12.457032-17.03125 23.371094-17.03125 4.152344 0 7.515625-3.363281 7.515625-7.515625v-48.59375h105.203125zm0 0"/><path d="m320.125 128.75c-17.402344 0-31.5625 14.160156-31.5625 31.5625s14.160156 31.5625 31.5625 31.5625 31.5625-14.160156 31.5625-31.5625-14.160156-31.5625-31.5625-31.5625zm0 48.09375c-9.117188 0-16.53125-7.414062-16.53125-16.53125s7.414062-16.53125 16.53125-16.53125 16.53125 7.414062 16.53125 16.53125-7.414062 16.53125-16.53125 16.53125zm0 0"/><path d="m336.15625 200.890625h-32.0625c-4.152344 0-7.515625 3.363281-7.515625 7.515625s3.363281 7.515625 7.515625 7.515625h32.0625c4.152344 0 7.515625-3.363281 7.515625-7.515625s-3.363281-7.515625-7.515625-7.515625zm0 0"/><path d="m304.09375 119.734375h32.0625c4.152344 0 7.515625-3.363281 7.515625-7.515625s-3.363281-7.515625-7.515625-7.515625h-32.0625c-4.152344 0-7.515625 3.363281-7.515625 7.515625s3.363281 7.515625 7.515625 7.515625zm0 0"/><path d="m151.796875 111.71875h16.03125c4.152344 0 7.515625-3.363281 7.515625-7.515625s-3.363281-7.515625-7.515625-7.515625h-16.03125c-4.152344 0-7.515625 3.363281-7.515625 7.515625s3.363281 7.515625 7.515625 7.515625zm0 0"/></svg>