<?xml version="1.0" encoding="iso-8859-1"?>
<!-- Generator: Adobe Illustrator 19.0.0, SVG Export Plug-In . SVG Version: 6.00 Build 0)  -->
<svg version="1.1" id="Capa_1" xmlns="http://www.w3.org/2000/svg" xmlns:xlink="http://www.w3.org/1999/xlink" x="0px" y="0px"
	 viewBox="0 0 512 512" style="enable-background:new 0 0 512 512;" xml:space="preserve">
<path style="fill:#5E3732;" d="M287.196,160.602c-16.105-37.502,10.081-48.706,10.081-48.706h28.98v48.706H287.196z"/>
<path style="fill:#F9C5B5;" d="M343.665,395.689l0.187-12.937v-22.063c0-3.916-3.4-6.966-7.293-6.542l-35.045,3.817
	c-7.468,0.813-14.044-4.91-14.271-12.418l-1.614-53.682c-0.107-3.556-3.021-6.383-6.578-6.383h-8.809
	c-8.571,0-14.752-8.212-12.379-16.448c3.726-12.931,8.919-30.666,12.703-42.428c0.129-0.401,0.218-0.809,0.268-1.227l3.453-28.77
	c0.028-0.236,0.042-0.474,0.043-0.711c0.1-22.835,9.786-44.342,22.121-60.556c1.293-1.7,3.342-2.65,5.476-2.57l135.271,5.158
	c3.302,0.126,5.998,2.681,6.302,5.971l14.397,156.044l5.997,85.954"/>
<path style="fill:#7C4238;" d="M358.167,175.262c-73.159-12.487-60.889-63.428-60.889-63.428s80.249-42.615,190.837,9.66
	c1.895,0.896,3.321,2.548,3.904,4.556c5.524,18.988,31.193,119.234-26.733,167.773l2.998-20.318c0,0-13.615,24.277-29.057,31.809
	l-12.727-60.456"/>
<path style="fill:#FFAEAE;" d="M390.392,219.669c11.909-11.909,29.138-13.989,38.481-4.646c9.343,9.343,7.264,26.573-4.646,38.481
	c-11.909,11.909-29.138,13.989-38.481,4.646"/>
<path style="opacity:0.1;enable-background:new    ;" d="M343.853,375.821c0,0,33.095-10.434,33.095-49.957
	c0-2.463-1.813-4.534-4.275-4.534l0,0c-2.364,0-4.28,1.916-4.28,4.28v8.847c0,9.023-6.823,16.584-15.798,17.509l-16.034,2.18
	c0,0,5.557-0.693,7.107,4.978c0,0,0.262,0.026,0.184,5.303L343.853,375.821z"/>
<g style="opacity:0.1;">
	<path d="M441.563,395.689l-0.888-112.391c61.259-51.526,44.875-158.206,39.302-178.043c5.569,2.249,11.221,4.722,16.951,7.441
		c1.995,0.946,3.495,2.687,4.11,4.808c5.806,20.031,32.784,125.785-28.096,176.993l3.15-21.434c0,0-7.804,13.966-18.421,24.472
		l0.227,2.468l6.647,92.953l0.252,2.736h-23.236V395.689z"/>
</g>
<path style="fill:#FFFFFF;" d="M286.551,322.483c37.054-5.638,37.304-37.98,37.304-37.98c-23.423,7.279-38.081,12.144-38.081,12.144
	L286.551,322.483z"/>
<polygon style="fill:#FFC433;" points="132.434,246.709 37.987,253.164 37.987,186.523 163.273,195.23 163.273,244.457 "/>
<path style="fill:#DDA322;" d="M182.36,250.473h-9.586c-3.306,0-5.985-2.679-5.985-5.985v-57.059c0-3.306,2.679-5.985,5.985-5.985
	h9.586c3.306,0,5.985,2.679,5.985,5.985v57.059C188.345,247.792,185.666,250.473,182.36,250.473z"/>
<path style="fill:#FFC433;" d="M224.573,237.622h-40.488v-35.556h40.488c2.754,0,4.988,2.233,4.988,4.988v25.581
	C229.561,235.389,227.328,237.622,224.573,237.622z"/>
<path style="fill:#F9C5B5;" d="M266.564,408.806l-119.15,44.403l-20.503-134.647l19.99-2.498c5.278-0.659,9.022-5.473,8.361-10.751
	l0.832-34.046l6.611-27.102c2.691-5.908,0.06-12.945-5.85-15.638l0,0c-5.908-2.691-12.945-0.06-15.638,5.85l-5.508,12.092
	l-91.718,5.401l7.706,66.136c0.659,5.278,5.473,9.022,10.751,8.361l13.031-1.628l14.523,166.568H282.7L266.564,408.806z"/>
<polygon style="fill:#65CDEF;" points="462.842,386.98 462.842,486.764 266.564,491.308 266.564,467.476 266.564,438.141 
	266.564,408.806 338.661,400.461 "/>
<polygon style="opacity:0.1;enable-background:new    ;" points="462.842,486.764 462.842,386.98 435.274,389.972 435.274,486.764 
	"/>
<path style="fill:#65CDEF;" d="M198.681,126.493c20.063,0,36.327-16.264,36.327-36.327S218.744,53.84,198.681,53.84
	c-1.373,0-2.724,0.083-4.057,0.231c-7.9-18.802-26.485-32.006-48.156-32.006c-28.837,0-52.213,23.376-52.213,52.214
	c0,0.013,0.001,0.027,0.001,0.04c-13.757,0.738-24.686,12.125-24.686,26.067c0,14.419,11.688,26.107,26.107,26.107L198.681,126.493
	L198.681,126.493z"/>
<path style="opacity:0.1;enable-background:new    ;" d="M198.665,53.841c-1.373,0-2.724,0.083-4.057,0.231
	c-7.9-18.802-26.485-32.006-48.156-32.006c-4.588,0-9.035,0.597-13.273,1.708c15.788,4.137,28.66,15.476,34.888,30.298
	c1.333-0.149,2.685-0.231,4.057-0.231c20.063,0,36.327,16.264,36.327,36.327s-16.264,36.327-36.327,36.327h26.542
	c20.063,0,36.327-16.264,36.327-36.327C234.991,70.104,218.727,53.841,198.665,53.841z"/>
<path style="fill:#DDA322;" d="M34.016,270.855H19.452c-5.509,0-9.975-4.466-9.975-9.975v-82.073c0-5.509,4.466-9.975,9.975-9.975
	h14.564c5.509,0,9.975,4.466,9.975,9.975v82.073C43.992,266.389,39.526,270.855,34.016,270.855z"/>
<path style="opacity:0.1;enable-background:new    ;" d="M224.745,226.133h-40.661v9.764c0,3.191-2.587,5.778-5.778,5.778h-9.254
	c-3.191,0-5.778-2.587-5.778-5.778v-2.929l-30.84,2.251l-88.441,6.045v8.471c0,5.319-4.311,9.63-9.63,9.63H19.107
	c-5.319,0-9.63-4.311-9.63-9.63v10.783c0,5.319,4.311,9.63,9.63,9.63h15.254c5.319,0,9.63-4.311,9.63-9.63v-8.471l88.441-6.045
	l9.219-0.673l5.682-11.198l10.747,1.043l5.192,8.576v2.929c0,3.191,2.587,5.778,5.778,5.778h9.254c3.191,0,5.778-2.587,5.778-5.778
	v-9.764h40.661c2.659,0,4.815-2.156,4.815-4.815v-10.783C229.561,223.977,227.404,226.133,224.745,226.133z"/>
<polygon style="opacity:0.1;enable-background:new    ;" points="43.234,249.132 44.497,259.976 151.206,253.694 148.683,242.776 
	"/>
<path style="fill:#F2B8AD;" d="M157.365,228.528c-5.908-2.691-12.945-0.06-15.638,5.85l-16.606,35.773
	c0,0-21.371,7.685-26.493,27.441c-0.377,1.453-2.189,1.914-3.207,0.811c-14.252-15.444-35.033-13.859-47.3-11.086l3.576,30.69
	c0.613,4.906,4.816,8.481,9.644,8.431c0.366-0.004,0.734-0.023,1.105-0.07l2.78-0.347l10.266-1.101l25.071-2.689
	c0.023,0.062,0.042,0.122,0.064,0.184l6.7-0.91l0,0l0,0l40.08-5.441c5.278-0.659,9.022-5.473,8.361-10.751l0.832-34.046
	l6.611-27.102C165.906,238.256,163.274,231.219,157.365,228.528z"/>
<path d="M198.395,134.406H94.459c-18.651,0-33.825-15.174-33.825-33.825c0-15.649,10.651-28.919,25.244-32.726
	c3.199-30.186,28.811-53.783,59.831-53.783c22.508,0,42.858,12.424,53.214,32.065c24.094,0.284,43.607,19.973,43.607,44.132
	C242.53,114.606,222.731,134.406,198.395,134.406z M100.506,74.164c0,0.04,0.001,0.078,0.001,0.114c0,3.976-3.11,7.257-7.081,7.471
	c-9.996,0.537-17.828,8.808-17.828,18.832c0,10.4,8.461,18.862,18.862,18.862h103.935c16.085,0,29.173-13.087,29.173-29.173
	c0-16.085-13.087-29.172-29.173-29.172c-1.049,0-2.148,0.063-3.264,0.188c-3.304,0.363-6.442-1.479-7.727-4.538
	c-7.073-16.835-23.438-27.712-41.693-27.712C120.808,29.036,100.545,49.273,100.506,74.164z"/>
<path d="M121.247,278.683c-0.513-4.1-4.254-7.004-8.351-6.497c-7.065,0.884-13.363,4.465-17.734,10.083
	c-0.095,0.123-0.189,0.245-0.281,0.369c-0.121-0.098-0.241-0.193-0.364-0.288c-5.62-4.371-12.603-6.291-19.671-5.41
	c-4.1,0.513-7.008,4.253-6.496,8.351c0.512,4.1,4.251,7.004,8.351,6.497c3.096-0.392,6.162,0.455,8.628,2.372
	c2.465,1.918,4.035,4.679,4.423,7.779c0.473,3.786,3.696,6.555,7.415,6.555c0.309,0,0.622-0.02,0.937-0.059
	c3.784-0.474,6.553-3.694,6.555-7.411c0-0.311-0.019-0.625-0.059-0.941c-0.799-6.397,3.755-12.252,10.152-13.051
	C118.852,286.522,121.759,282.782,121.247,278.683z"/>
<path d="M299.076,233.106V210.21c0-4.133-3.35-7.482-7.482-7.482c-4.132,0-7.482,3.349-7.482,7.482v22.897
	c0,4.133,3.35,7.482,7.482,7.482C295.726,240.588,299.076,237.239,299.076,233.106z"/>
<path d="M511.762,185.696c-1.623-37.275-11.283-67.256-11.694-68.514c-0.628-1.927-2.012-3.516-3.834-4.404
	c-60.402-29.448-112.272-31.02-145.149-27.145c-33.671,3.963-54.655,14.117-57.899,15.773c-2.654,1.086-12.712,5.886-17.925,17.958
	c-4.578,10.601-3.922,23.353,1.915,37.919c-5.394,11.518-9.645,25.626-9.645,41.517c0,4.133,3.35,7.482,7.482,7.482
	c4.132,0,7.482-3.349,7.482-7.482c0-16.59,6.071-34.497,16.85-50.167c1.167,1.775,2.448,3.538,3.877,5.271
	c12.107,14.674,30.695,23.349,55.281,25.809l30.172,31.46c-1.228,0.996-2.425,2.058-3.574,3.207c-2.922,2.923-2.922,7.659,0,10.581
	c2.922,2.921,7.659,2.921,10.58,0c8.821-8.822,21.599-10.948,27.901-4.647c6.302,6.303,4.176,19.081-4.646,27.901
	c-8.821,8.821-21.598,10.951-27.901,4.646c-2.922-2.921-7.659-2.922-10.58,0.001c-2.922,2.922-2.922,7.659,0,10.58
	c5.364,5.364,12.601,7.978,20.286,7.977c9.859,0,20.455-4.302,28.775-12.623c14.807-14.808,16.891-36.816,4.646-49.063
	c-8.037-8.037-20.281-9.902-31.934-6.046l-34.866-36.355c-1.27-1.324-2.982-2.136-4.81-2.279
	c-21.725-1.718-37.762-8.624-47.667-20.524c-9.498-11.412-11.091-24.912-11.247-31.48c7.361-3.187,24.969-9.793,49.94-12.642
	c30.203-3.448,77.615-1.931,133.157,24.407c0.327,1.142,0.731,2.602,1.185,4.327c0.375,7.853,2.612,71.61-20.513,118.424
	c-1.83,3.704-0.311,8.191,3.394,10.021c1.065,0.526,2.196,0.775,3.308,0.775c2.757,0,5.41-1.53,6.714-4.171
	c7.471-15.123,12.484-31.641,15.833-47.612c-1.18,22.478-6.407,45.729-19.531,64.646c-0.57-2.461-2.37-4.544-4.882-5.397
	c-3.419-1.161-7.179,0.282-8.939,3.434c-2.633,4.712-9.759,15.7-17.834,23.235c-0.318-1.616-0.651-3.305-0.987-4.991
	c-0.818-4.116-1.647-8.229-2.294-11.311c-0.335-1.596-0.623-2.925-0.84-3.853c-1.686-7.237-6.624-7.383-8.669-7.108
	c-3.407,0.456-6.835,3.498-6.477,8.24c0.067,0.887,0.285,1.726,0.629,2.494c0.927,4.047,3.72,18.074,6.169,30.763
	c0.442,2.287,1.923,4.239,4.008,5.278c1.051,0.524,2.195,0.786,3.338,0.786c1.125,0,2.251-0.254,3.29-0.762
	c0.875-0.428,1.738-0.905,2.595-1.41l9.13,70.893l-105.736,12.755V357.36l1.725-0.178c12.524-1.292,21.969-11.759,21.969-24.35
	v-14.027c0-4.133-3.35-7.482-7.482-7.482c-4.132,0-7.482,3.349-7.482,7.482v14.027c0,4.894-3.672,8.963-8.54,9.465l-7.192,0.74
	c-0.428-0.028-0.859-0.028-1.291,0.019l-19.138,2.084l-0.129,0.013c-0.006,0.001-0.011,0.002-0.017,0.003l-21.633,2.356
	c-1.862,0.206-3.16-0.653-3.767-1.181c-0.607-0.529-1.633-1.694-1.69-3.567l-0.48-15.953c28.179-7.174,35.847-30.638,35.833-42.807
	c-0.002-2.377-1.134-4.611-3.048-6.019s-4.383-1.823-6.653-1.117c-12.22,3.798-21.86,6.88-28.134,8.91
	c-1.899-4.889-6.613-8.304-12.18-8.304h-9.488c-2.07,0-3.275-1.19-3.809-1.9c-0.534-0.709-1.344-2.196-0.771-4.182
	c3.667-12.73,8.803-30.273,12.452-41.563c1.271-3.931-0.886-8.149-4.818-9.42c-3.931-1.268-8.149,0.888-9.42,4.818
	c-3.71,11.48-8.896,29.188-12.594,42.023c-1.731,6.01-0.567,12.324,3.194,17.321c3.763,5,9.509,7.867,15.765,7.867h7.666
	l1.527,50.776c0.167,5.524,2.652,10.775,6.823,14.404c4.17,3.63,9.708,5.37,15.21,4.769l21.665-2.359l10.959-1.128v37.174
	l-68.667,8.283c-0.058,0.007-0.115,0.023-0.173,0.031c-0.205,0.029-0.408,0.065-0.608,0.11c-0.078,0.018-0.155,0.039-0.232,0.06
	c-0.196,0.052-0.387,0.11-0.576,0.176c-0.043,0.015-0.087,0.024-0.13,0.04l-111.601,41.59l-18.145-119.168l12.545-1.567
	c4.559-0.57,8.623-2.881,11.444-6.506c2.69-3.459,3.942-7.72,3.557-12.063l0.809-33.109l2.801-12.07
	c0.956,0.215,1.945,0.339,2.965,0.339h9.028c7.426,0,13.467-6.041,13.467-13.467v-2.217h33.418c6.876,0,12.469-5.593,12.469-12.469
	v-25.902c0-6.876-5.593-12.469-12.469-12.469h-33.418v-2.216c0-7.426-6.041-13.467-13.467-13.467h-9.028
	c-5.593,0-10.398,3.429-12.43,8.295l-29.7-2.168c-4.114-0.298-7.705,2.797-8.006,6.918c-0.301,4.121,2.796,7.706,6.917,8.006
	l29.753,2.172v18.506c-8.67-1.795-17.757,2.55-21.578,10.937l-3.719,8.164l-80.098,5.848v-51.147l37.307,2.722
	c4.115,0.302,7.705-2.797,8.006-6.918c0.301-4.121-2.796-7.706-6.917-8.006l-38.397-2.802v-0.921
	c0-9.625-7.832-17.457-17.457-17.457H17.457C7.832,162.161,0,169.993,0,179.618v82.994c0,9.625,7.832,17.457,17.457,17.457h14.876
	c1.777,0,3.489-0.27,5.105-0.765l5.222,41.789c1.177,9.41,9.784,16.102,19.199,14.933l5.442-0.68l13.39,153.572
	c0.333,3.829,3.513,6.781,7.356,6.831c0.927,0.013,93.766,1.217,185.998,1.826c35.518,0.234,66.394,0.353,92.29,0.353
	c13.612,0,25.849-0.032,36.66-0.098c62.092-0.374,63.054-1.324,65.91-4.143c1.466-1.446,2.273-3.371,2.273-5.419v-98.775
	c0-0.314-0.026-0.622-0.064-0.928c0.075-0.608,0.084-1.233,0.002-1.868l-11.261-87.448c0.337-0.361,0.68-0.719,1.008-1.083
	c0.608,0.791,1.38,1.467,2.287,1.974c2.714,1.513,6.082,1.191,8.459-0.81C500.072,275.393,513.956,236.098,511.762,185.696z
	 M287.574,139.357c-0.753-5.27-0.314-9.903,1.334-13.848c0.243-0.584,0.514-1.127,0.795-1.653c0.513,2.954,1.265,6.161,2.348,9.503
	C290.66,135.107,289.147,137.111,287.574,139.357z M294.017,311.361l-0.308-10.25c4.029-1.313,10.522-3.41,19.041-6.099
	C310.104,300.923,304.765,307.72,294.017,311.361z M222.07,210.66v20.915h-30.924V210.66H222.07z M170.148,194.978h6.035v8.201
	v35.878v8.202h-6.035v-1.304v-4.001c0.174-1.581,0.218-3.321,0-5.112v-40.559V194.978z M34.827,262.614
	c0,1.376-1.119,2.494-2.494,2.494H17.457c-1.375,0-2.494-1.118-2.494-2.494V179.62c0-1.376,1.119-2.494,2.494-2.494h14.876
	c1.375,0,2.494,1.118,2.494,2.494v7.877v63.811c-0.426,1.11-0.595,2.338-0.437,3.6l0.437,3.496
	C34.827,258.404,34.827,262.614,34.827,262.614z M95.01,480.877L81.533,326.311c-0.177-2.025-1.169-3.89-2.75-5.169
	c-1.58-1.277-3.612-1.853-5.631-1.605l-13.148,1.643c-1.227,0.148-2.344-0.718-2.496-1.94l-7.196-57.582l72.506-5.293l-1.155,2.535
	c-1.713,3.761-0.053,8.198,3.707,9.911c3.761,1.713,8.198,0.054,9.911-3.707l11.944-26.218c0.996-2.185,3.684-3.191,5.869-2.195
	c1.059,0.483,1.775,0.816,2.093,1.58v2.791c-0.138,0.734-0.352,1.619-0.646,2.697c-0.026,0.095-0.05,0.189-0.072,0.284
	l-6.329,27.271c-0.115,0.495-0.18,1.001-0.192,1.508l-0.839,34.353c-0.009,0.371,0.009,0.742,0.055,1.11
	c0.153,1.224-0.718,2.343-1.941,2.496l-20.17,2.521c-2.003,0.25-3.821,1.301-5.039,2.91c-1.218,1.61-1.734,3.644-1.43,5.64
	l20.688,135.862c0.339,2.227,1.663,4.182,3.604,5.324c1.164,0.684,2.474,1.031,3.793,1.031c0.881,0,1.767-0.156,2.613-0.471
	l110.131-41.042v48.427c0,4.133,3.35,7.482,7.482,7.482c4.132,0,7.482-3.349,7.482-7.482v-52.566l181.841-21.933v85.374
	C420.717,484.076,228.182,482.581,95.01,480.877z"/>
<g>
</g>
<g>
</g>
<g>
</g>
<g>
</g>
<g>
</g>
<g>
</g>
<g>
</g>
<g>
</g>
<g>
</g>
<g>
</g>
<g>
</g>
<g>
</g>
<g>
</g>
<g>
</g>
<g>
</g>
</svg>
