<svg id="Capa_1" enable-background="new 0 0 512 512" height="512" viewBox="0 0 512 512" width="512" xmlns="http://www.w3.org/2000/svg"><g><path d="m406 482h-26.3c-17.736-9.669-31.465-24.438-39.758-42h-167.884c-8.294 17.562-22.023 32.331-39.758 42h-26.3c-8.284 0-15 6.716-15 15s6.716 15 15 15h300c8.284 0 15-6.716 15-15s-6.716-15-15-15z"/><path d="m271 345c0 8.284-6.716 15-15 15s-15-6.716-15-15v-15h-241v25c0 30.327 24.673 55 55 55h402c30.327 0 55-24.673 55-55v-25h-241z"/><path d="m231 285c0 5.498 1.812 10.679 5.169 15h39.662c3.357-4.321 5.169-9.502 5.169-15 0-13.785-11.215-25-25-25s-25 11.215-25 25z"/><path d="m180.144 259.739c-2.041 6.127-7.774 10.261-14.232 10.261h-14.912v30h52.141c-1.399-4.841-2.141-9.883-2.141-15 0-30.327 24.673-55 55-55s55 24.673 55 55c0 5.117-.742 10.159-2.141 15h52.141v-30h-14.912c-6.458 0-12.191-4.134-14.232-10.261-3.408-10.235-8.817-19.572-16.078-27.752-4.288-4.831-5.002-11.864-1.772-17.458l7.484-12.962-25.981-15-7.422 12.855c-3.227 5.589-9.67 8.487-15.989 7.197-10.534-2.149-21.663-2.149-32.197 0-6.319 1.289-12.762-1.609-15.989-7.197l-7.422-12.855-25.981 15 7.484 12.962c3.23 5.594 2.516 12.627-1.772 17.458-7.26 8.18-12.67 17.517-16.077 27.752z"/><path d="m457 0h-402c-30.327 0-55 24.673-55 55v245h121v-45c0-8.284 6.716-15 15-15h19.678c3.058-6.81 6.803-13.274 11.209-19.348l-9.859-17.076c-1.989-3.445-2.528-7.54-1.499-11.382 1.029-3.843 3.543-7.119 6.989-9.108l51.962-30c3.445-1.99 7.539-2.53 11.382-1.499 3.843 1.029 7.119 3.543 9.108 6.989l9.811 16.992c7.448-.757 14.988-.757 22.437 0l9.811-16.992c1.989-3.445 5.265-5.959 9.108-6.989 3.844-1.029 7.937-.49 11.382 1.499l51.962 30c3.445 1.989 5.959 5.265 6.989 9.108s.491 7.938-1.499 11.382l-9.859 17.076c4.407 6.074 8.152 12.538 11.209 19.348h19.679c8.284 0 15 6.716 15 15v45h121v-245c0-30.327-24.673-55-55-55zm-20 150h-81c-8.284 0-15-6.716-15-15s6.716-15 15-15h81c8.284 0 15 6.716 15 15s-6.716 15-15 15zm0-60h-121c-8.284 0-15-6.716-15-15s6.716-15 15-15h121c8.284 0 15 6.716 15 15s-6.716 15-15 15z"/></g></svg>