<svg id="filled_outline" height="512" viewBox="0 0 512 512" width="512" xmlns="http://www.w3.org/2000/svg" data-name="filled outline"><path d="m456 368a32 32 0 0 0 32-32v-264h-464v264a32 32 0 0 0 32 32z" fill="#548aff"/><path d="m488 336a32 32 0 0 0 -32-32h-24v-272h24a32 32 0 0 1 32 32z" fill="#7dafff"/><path d="m24 336a32 32 0 0 1 32-32h24v-272h-24a32 32 0 0 0 -32 32z" fill="#7dafff"/><path d="m216 312h80v64h-80z" fill="#f5714f"/><path d="m328 240a79.2659 79.2659 0 0 1 -13.31006 43.97l-18.68994 28.03h-80l-18.68994-28.03a79.27259 79.27259 0 0 1 -13.31006-43.97 72 72 0 0 1 144 0z" fill="#ffc431"/><path d="m216 376 16 32h48l16-32z" fill="#e04f2b"/><path d="m161.37256 328a22.627 22.627 0 0 0 -16 6.62744l-116.40186 116.40198a16.97048 16.97048 0 0 0 11.99976 28.97058h119.02954a23.99994 23.99994 0 0 0 24-24v-105.37256a22.6274 22.6274 0 0 0 -22.62744-22.62744zm-25.37256 104h-40l40-40z" fill="#ffa100"/><path d="m400 440-24 40-24-40z" fill="#ffceb6"/><path d="m352 264h48v32h-48z" fill="#e8f2ff"/><path d="m352 320h48v120h-48z" fill="#ffc431"/><path d="m352 296h48v24h-48z" fill="#ffe28f"/><path d="m456 24h-24a8.00008 8.00008 0 0 0 -8 8v32h-336v-32a8.00008 8.00008 0 0 0 -8-8h-24a40.04552 40.04552 0 0 0 -40 40v272a40.04552 40.04552 0 0 0 40 40h16v-16h-16a24 24 0 0 1 0-48h24a8.00008 8.00008 0 0 0 8-8v-224h336v224a8.00008 8.00008 0 0 0 8 8h24a24 24 0 0 1 0 48h-32v16h32a40.04552 40.04552 0 0 0 40-40v-272a40.04552 40.04552 0 0 0 -40-40zm-384 272h-16a39.79461 39.79461 0 0 0 -24 8.019v-240.019a24.02718 24.02718 0 0 1 24-24h16zm384 0h-16v-256h16a24.02718 24.02718 0 0 1 24 24v240.019a39.79461 39.79461 0 0 0 -24-8.019z"/><path d="m176 240a86.9927 86.9927 0 0 0 14.65625 48.40674l17.34375 26.01514v61.57812a7.95449 7.95449 0 0 0 .85059 3.57471l-.00586.00293 16 32a7.99869 7.99869 0 0 0 7.15527 4.42236h48a7.99869 7.99869 0 0 0 7.15527-4.42236l16-32-.00586-.00293a7.95449 7.95449 0 0 0 .85059-3.57471v-61.57812l17.34375-26.01514a86.9927 86.9927 0 0 0 14.65625-48.40674 80 80 0 0 0 -160 0zm59.95117 10.96338 15.249 11.43652a7.998 7.998 0 0 0 9.5996 0l15.249-11.43652-10.60736 53.03662h-18.88282zm52.04883 69.03662v48h-64v-48zm-12.94434 80h-38.11132l-8-16h54.11132zm-19.05566-224a64.07239 64.07239 0 0 1 64 64 71.042 71.042 0 0 1 -11.96875 39.53174l-16.3125 24.46826h-9.96021l14.08619-70.43115a7.99982 7.99982 0 0 0 -12.64453-7.96875l-27.2002 20.3999-27.2002-20.3999a7.99982 7.99982 0 0 0 -12.64453 7.96875l14.08619 70.43115h-9.96021l-16.3125-24.46826a71.042 71.042 0 0 1 -11.96875-39.53174 64.07239 64.07239 0 0 1 64-64z"/><path d="m16 463.0293a24.9991 24.9991 0 0 0 24.9707 24.9707h119.0293a32.03635 32.03635 0 0 0 32-32v-105.37256a30.62726 30.62726 0 0 0 -52.28418-21.65674l-116.40234 116.40186a24.80859 24.80859 0 0 0 -7.31348 17.65674zm135.03027-122.74512a14.62689 14.62689 0 0 1 24.96973 10.34326v9.37256h-16v16h16v16h-16v16h16v16h-16v16h16v16a16.01833 16.01833 0 0 1 -16 16h-16v-16h-16v16h-16v-16h-16v16h-16v-16h-16v16h-23.0293a8.97038 8.97038 0 0 1 -6.34277-15.314z"/><path d="m96 440h40a8.00008 8.00008 0 0 0 8-8v-40a8.0001 8.0001 0 0 0 -13.65723-5.65674l-40 40a8.00038 8.00038 0 0 0 5.65723 13.65674zm32-28.68652v12.68652h-12.68652z"/><path d="m344 264v176a8.006 8.006 0 0 0 1.13965 4.11572l24 40a8.00046 8.00046 0 0 0 13.7207 0l24-40a8.006 8.006 0 0 0 1.13965-4.11572v-176a8.00008 8.00008 0 0 0 -8-8h-48a8.00008 8.00008 0 0 0 -8 8zm40 168v-104h8v104zm-24 0v-104h8v104zm0-120v-8h32v8zm16 152.45068-9.87061-16.45068h19.74122zm16-192.45068v16h-32v-16z"/><path d="m171.633 143.632h16v24h-16z" transform="matrix(.707 -.707 .707 .707 -57.435 172.603)"/><path d="m248 112h16v24h-16z"/><path d="m320.367 147.632h24v16h-24z" transform="matrix(.707 -.707 .707 .707 -12.695 280.618)"/><path d="m352 224h24v16h-24z"/><path d="m136 224h24v16h-24z"/></svg>