<svg height="512pt" viewBox="-3 0 512 512" width="512pt" xmlns="http://www.w3.org/2000/svg"><path d="m316.757812 152.085938v110.253906c0 46.613281 20.429688 90.882812 55.890626 121.132812 6.445312 5.5 6.140624 15.53125-.605469 20.660156-10.4375 7.933594-27.773438 18.613282-52.675781 26.230469-18.648438 5.703125-38.089844 8.398438-57.589844 8.398438h-138.683594c-19.5 0-38.941406-2.695313-57.589844-8.398438-24.902344-7.617187-42.238281-18.296875-52.675781-26.230469-6.746094-5.128906-7.054687-15.160156-.605469-20.660156 35.460938-30.25 55.890625-74.519531 55.890625-121.132812v-108.234375zm0 0" fill="#e38803"/><path d="m355.8125 474.605469c0 8.226562-3.328125 15.6875-8.730469 21.078125-5.390625 5.402344-12.847656 8.730468-21.078125 8.730468h-267.132812c-16.464844 0-29.808594-13.34375-29.808594-29.808593 0-37.609375 15.242188-71.65625 39.894531-96.308594 2.695313-2.695313 5.5-5.277344 8.417969-7.730469 10.800781-9.144531 23.035156-16.625 36.328125-22.066406.898437-.363281 1.796875-.726562 2.707031-1.058594.007813 0 .019532-.011718.019532-.011718.089843-.03125.179687-.070313.273437-.109376 15.078125-5.753906 31.453125-8.914062 48.5625-8.914062h54.347656c17.058594 0 33.378907 3.128906 48.421875 8.851562.050782.019532.089844.039063.140625.050782.058594.03125.132813.050781.191407.082031.9375.351563 1.878906.726563 2.804687 1.109375 13.296875 5.441406 25.53125 12.921875 36.332031 22.054688 29.542969 24.984374 48.308594 62.324218 48.308594 104.050781zm0 0" fill="#fff5f4"/><g fill="#ebe0da"><path d="m210.640625 338.410156c-19.601563 0-38.296875 3.59375-55.367187 10.09375-14.273438 5.441406-27.40625 12.921875-39.003907 22.066406-3.140625 2.453126-6.148437 5.035157-9.042969 7.730469-26.46875 24.652344-42.832031 58.699219-42.832031 96.308594 0 16.464844 14.324219 29.808594 32.007813 29.808594h-37.527344c-16.464844 0-29.808594-13.34375-29.808594-29.808594 0-37.609375 15.242188-71.65625 39.890625-96.308594 2.695313-2.695312 5.503907-5.277343 8.417969-7.730469 12.519531-10.601562 26.933594-18.691406 39.035156-23.125.011719 0 .019532-.011718.019532-.011718 15.476562-5.144532 27.785156-9.023438 48.835937-9.023438zm0 0"/><path d="m334.304688 399.738281v16.433594h-17.253907c-2.019531 0-3.996093-.140625-5.933593-.414063v-16.019531c0-2.757812 2.242187-4.996093 4.996093-4.996093h13.191407c2.757812 0 5 2.238281 5 4.996093zm0 0"/><path d="m334.304688 399.738281v16.433594h-17.253907c-2.019531 0-3.996093-.140625-5.933593-.414063v-16.019531c0-2.757812 2.242187-4.996093 4.996093-4.996093h13.191407c2.757812 0 5 2.238281 5 4.996093zm0 0"/></g><path d="m294.390625 395.769531c-.0625 5.117188-6.460937 7.441407-10.175781 4.019531l-24.78125-17.886718c-2.199219-1.152344-4.792969-1.234375-7.066406-.214844l-54.425782 23.148438c-3.6875 2.804687-8.8125 2.777343-12.457031-.082032l-52.976563-23.066406c-2.269531-1.019531-4.863281-.9375-7.074218.214844l-24.773438 17.886718c-3.722656 3.421876-10.113281 1.097657-10.171875-4.019531-.304687-26.265625 11.828125-40.566406 25.921875-48.328125.007813 0 .019532-.011718.019532-.011718.089843-.03125.179687-.070313.273437-.109376 15.078125-5.753906 31.453125-8.914062 48.5625-8.914062h54.347656c17.058594 0 33.378907 3.128906 48.421875 8.851562.050782.019532.089844.039063.140625.050782.058594.03125.121094.058594.183594.082031h.007813c14.132812 7.75 26.324218 22.054687 26.023437 48.378906zm0 0" fill="#7af4ab"/><path d="m158.449219 295.832031v73.652344l28.941406 32.566406c1.898437 3.359375 6.710937 3.410157 8.699219.121094.011718-.011719.023437-.03125.03125-.042969l30.292968-32.644531v-73.652344zm0 0" fill="#f2bb88"/><path d="m134.679688 211.113281c0 21.210938-17.195313 38.410157-38.40625 38.410157-21.214844 0-38.410157-17.199219-38.410157-38.410157 0-21.214843 17.195313-38.410156 38.410157-38.410156 21.210937 0 38.40625 17.195313 38.40625 38.410156zm0 0" fill="#f2bb88"/><path d="m327.007812 211.117188c0 21.214843-17.195312 38.410156-38.410156 38.410156-21.210937 0-38.40625-17.195313-38.40625-38.410156 0-21.210938 17.195313-38.410157 38.40625-38.410157 21.214844 0 38.410156 17.199219 38.410156 38.410157zm0 0" fill="#f2bb88"/><path d="m192.433594 57.164062h101.882812v181.3125c0 55.152344-76.640625 99.863282-101.878906 99.867188h-.003906c-25.238282-.003906-101.878906-44.714844-101.878906-99.867188v-181.3125zm0 0" fill="#f2d1a5"/><path d="m210.105469 334.269531c-7.035157 2.644531-13.164063 4.070313-17.664063 4.070313h-.011718c-12.617188 0-38.085938-11.175782-60.402344-29.246094-22.320313-18.078125-41.476563-43.039062-41.476563-70.617188v-181.3125h35.328125v181.3125c0 27.578126 19.160156 52.539063 41.476563 70.617188 14.363281 11.628906 30.042969 20.414062 42.75 25.175781zm0 0" fill="#f2bb88"/><path d="m325.714844 154.117188h-37.105469c-18.984375 0-34.375-15.390626-34.375-34.375l2.050781-58.976563c0-18.984375 15.390625-34.375 34.378906-34.375h9.105469c18.984375 0 34.375 15.390625 34.375 34.375l-2.050781 86.972656c0 3.523438-2.855469 6.378907-6.378906 6.378907zm0 0" fill="#f0a70a"/><path d="m280.582031 15.480469v14.546875c0 58.769531-83.175781 125.097656-190.417969 124.085937h-29.878906c-4.128906 0-7.480468-3.339843-7.480468-7.457031l.707031-27.667969 1.34375-52.402343c0-32.601563 26.484375-59.03125 59.160156-59.03125h158.621094c4.390625 0 7.945312 3.546874 7.945312 7.925781zm0 0" fill="#f0a70a"/><path d="m254.839844 7.554688c-10.730469 55.21875-89.574219 112.371093-189.164063 111.433593h-12.164062l1.34375-52.402343c0-32.601563 26.484375-59.03125 59.160156-59.03125zm0 0" fill="#fdc202"/><path d="m499.269531 343.898438v130.117187c0 3.011719-.441406 5.917969-1.25 8.660156-3.730469 12.582031-15.382812 21.765625-29.175781 21.765625h-164.222656c-16.808594 0-30.425782-13.625-30.425782-30.425781v-130.117187c0-5.589844 4.527344-10.117188 10.117188-10.117188h204.839844c5.585937 0 10.117187 4.527344 10.117187 10.117188zm0 0" fill="#ca7400"/><path d="m499.269531 343.898438v29.417968c0 8.082032-2.238281 15.644532-6.128906 22.101563-7.503906 12.4375-21.140625 20.753906-36.726563 20.753906h-139.363281c-23.671875 0-42.855469-19.183594-42.855469-42.855469v-29.417968c0-5.589844 4.527344-10.117188 10.117188-10.117188h204.839844c5.585937 0 10.117187 4.527344 10.117187 10.117188zm0 0" fill="#b96a00"/><path d="m498.023438 482.675781c-3.734376 12.578125-15.382813 21.761719-29.183594 21.761719h-164.222656c-16.804688 0-30.421876-13.613281-30.421876-30.421875v-130.113281c0-5.59375 4.53125-10.117188 10.113282-10.117188h10.386718v119.71875c0 16.796875 13.617188 30.425782 30.425782 30.425782h164.222656c3.015625 0 5.933594-.4375 8.679688-1.253907zm0 0" fill="#b96a00"/><path d="m457.394531 437.285156h-13.195312c-2.757813 0-4.992188-2.238281-4.992188-4.996094v-32.554687c0-2.757813 2.234375-4.992187 4.992188-4.992187h13.195312c2.757813 0 4.996094 2.234374 4.996094 4.992187v32.554687c0 2.757813-2.238281 4.996094-4.996094 4.996094zm0 0" fill="#c8bebc"/><path d="m462.390625 399.738281v16.019531c-1.949219.273438-3.949219.414063-5.976563.414063h-17.210937v-16.433594c0-2.757812 2.238281-4.996093 4.996094-4.996093h13.191406c2.765625 0 5 2.238281 5 4.996093zm0 0" fill="#ebe0da"/><path d="m493.136719 395.421875c-7.5 12.4375-21.136719 20.753906-36.722657 20.753906h-139.359374c-23.671876 0-42.859376-19.191406-42.859376-42.859375v-29.414062c0-5.59375 4.53125-10.117188 10.113282-10.117188h10.386718v21.957032c0 23.671874 19.1875 42.859374 42.859376 42.859374h139.363281c5.742187 0 11.222656-1.128906 16.21875-3.179687zm0 0" fill="#a86000"/><path d="m462.390625 399.738281v16.019531c-1.949219.273438-3.949219.414063-5.976563.414063h-17.210937v-16.433594c0-2.757812 2.238281-4.996093 4.996094-4.996093h13.191406c2.765625 0 5 2.238281 5 4.996093zm0 0" fill="#ebe0da"/><path d="m329.308594 437.285156h-13.195313c-2.757812 0-4.996093-2.238281-4.996093-4.996094v-32.554687c0-2.757813 2.238281-4.992187 4.996093-4.992187h13.195313c2.757812 0 4.996094 2.234374 4.996094 4.992187v32.554687c0 2.757813-2.238282 4.996094-4.996094 4.996094zm0 0" fill="#c8bebc"/><path d="m334.300781 399.738281v16.019531c-1.945312.273438-3.945312.414063-5.972656.414063h-17.210937v-16.433594c0-2.757812 2.238281-4.996093 4.996093-4.996093h13.191407c2.765624 0 4.996093 2.238281 4.996093 4.996093zm0 0" fill="#ebe0da"/><path d="m212.753906 246.683594c-4.183594 0-7.574218 3.386718-7.574218 7.570312 0 7.03125-5.71875 12.75-12.746094 12.75-7.03125 0-12.75-5.71875-12.75-12.75 0-4.183594-3.386719-7.570312-7.570313-7.570312-4.179687 0-7.570312 3.386718-7.570312 7.570312 0 15.378906 12.511719 27.890625 27.890625 27.890625 26.828125 0 35.828125-35.460937 20.320312-35.460937zm0 0"/><path d="m256.714844 212.105469c0 6.667969-5.40625 12.074219-12.070313 12.074219-6.667969 0-12.070312-5.40625-12.070312-12.074219 0-6.664063 5.402343-12.070313 12.070312-12.070313 6.664063 0 12.070313 5.40625 12.070313 12.070313zm0 0"/><path d="m152.292969 212.105469c0 6.667969-5.40625 12.074219-12.070313 12.074219-6.667968 0-12.070312-5.40625-12.070312-12.074219 0-6.664063 5.402344-12.070313 12.070312-12.070313 6.664063 0 12.070313 5.40625 12.070313 12.070313zm0 0"/><path d="m229.921875 192.0625c5.859375-1.222656 24.707031-3.375 34.128906 2.550781 3.546875 2.226563 8.21875 1.160157 10.441407-2.378906 2.222656-3.539063 1.160156-8.210937-2.378907-10.4375-16.25-10.214844-42.355469-5.164063-45.28125-4.558594-4.09375.855469-6.71875 4.863281-5.867187 8.957031.855468 4.09375 4.867187 6.726563 8.957031 5.867188zm0 0"/><path d="m158.03125 177.238281c-2.921875-.609375-29.03125-5.660156-45.277344 4.558594-6.425781 4.039063-3.523437 13.980469 4.039063 13.980469 1.375 0 2.769531-.375 4.019531-1.160156 9.414062-5.917969 27.820312-3.851563 34.132812-2.554688 4.097657.863281 8.101563-1.773438 8.953126-5.867188.851562-4.09375-1.773438-8.101562-5.867188-8.957031zm0 0"/><path d="m489.15625 326.234375h-52.015625v-10.609375c0-15.078125-12.265625-27.355469-27.347656-27.355469h-46.089844c-15.078125 0-27.34375 12.277344-27.34375 27.355469v5.953125c-13.660156-32.195313-12.03125-56.023437-12.03125-81.546875 13.644531-16.804688 13.6875-40.921875 0-57.800781v-20.53125h1.382813c7.660156 0 13.886718-6.199219 13.949218-13.839844l2.050782-86.898437v-.183594c0-23.125-18.816407-41.941406-41.941407-41.941406-9.953125 0-10.117187-.019532-11.621093.070312v-3.410156c0-8.550782-6.953126-15.496094-15.515626-15.496094h-158.621093c-36.761719 0-66.671875 29.820312-66.730469 66.5l-2.050781 79.976562v.191407c0 7.9375 6.304687 15.03125 15.304687 15.03125v20.542969c-13.671875 16.835937-13.664062 40.945312 0 57.769531 0 22.988281.910156 37.765625-4.664062 59.695312-1.03125 4.046875 1.414062 8.175781 5.46875 9.207031 4.257812 1.03125 8.207031-1.570312 9.207031-5.480468 5.65625-22.285156 5.128906-38.335938 5.128906-51.207032 2.996094 1.511719 6.1875 2.703126 9.507813 3.53125 6.863281 27.074219 28.335937 48.109376 42.082031 59.234376 7.664063 6.207031 15.960937 11.828124 24.1875 16.511718-32.105469 3.085938-63.226563 16.820313-87.859375 41.457032-11.105469 11.105468-20.167969 23.703124-27.003906 37.351562-8.085938-4.300781-14.453125-8.59375-19.1875-12.195312-2.875-2.183594-3.0625-6.476563-.273438-8.875 18.191406-15.511719 32.574219-34.347657 42.730469-55.992188 1.773437-3.785156.148437-8.296875-3.636719-10.074219-3.773437-1.765625-8.285156-.140625-10.0625 3.636719-9.246094 19.683594-22.320312 36.8125-38.851562 50.914062-10.003906 8.546876-9.78125 24.304688.9375 32.441407 5.441406 4.140625 12.839844 9.117187 22.277344 14.0625-5.933594 15.910156-9.035157 32.917969-9.035157 50.390625 0 20.613281 16.769531 37.378906 37.378907 37.378906h409.980468c20.945313 0 37.992188-17.039062 37.992188-37.984375 0-6.652344 0-123.863281 0-130.09375 0-9.753906-7.933594-17.6875-17.683594-17.6875zm-137.65625-10.609375c0-6.730469 5.472656-12.210938 12.203125-12.210938h46.089844c6.734375 0 12.207031 5.480469 12.207031 12.210938v10.609375h-70.5zm-63.472656-281.515625c1.625-.171875 1.796875-.132813 11.742187-.132813 14.746094 0 26.757813 11.984376 26.796875 26.71875l-2.015625 85.863282c-39.507812 0-36.617187.027344-37.804687-.070313-13.878906-.949219-24.871094-12.507812-24.941406-26.609375l.996093-28.738281c13.734375-16.277344 24.070313-36.027344 25.226563-57.03125zm13.851562 204.851563c.007813-.152344.007813-.3125.007813-.464844v-55.195313c23.292969 11.207031 23.417969 44.433594-.007813 55.660157zm.007813-71.851563v-5.410156h7.300781v8.339843c-2.324219-1.183593-4.765625-2.160156-7.300781-2.929687zm-218.902344 16.191406c0 .238281-.007813 55.425781.007813 55.660157-23.3125-11.171876-23.4375-44.433594-.007813-55.660157zm-7.308594-13.273437v-8.328125h7.308594v5.402343c-2.535156.765626-4.976563 1.746094-7.308594 2.925782zm22.449219 68.46875c0-15.105469 0-59.5625 0-76.855469 22.582031-.464844 44.746094-3.828125 66.007812-10.003906 4.007813-1.171875 6.316407-5.371094 5.148438-9.378907-1.164062-4.015624-5.363281-6.328124-9.378906-5.15625-38.109375 11.082032-64.78125 9.457032-99.519532 9.457032l2.039063-79.765625v-.191407c0-28.375 23.144531-51.460937 51.589844-51.460937.550781 0 158.996093-.195313 158.996093.355469 0 16.390625 3.140626 38.808594-25.15625 69.75-14.90625 16.320312-35.703124 31.03125-60.421874 41.878906-3.835938 1.675781-5.574219 6.148438-3.898438 9.976562 1.6875 3.824219 6.160156 5.570313 9.984375 3.882813 20.441406-8.960937 38.640625-20.460937 53.570313-33.761719-.015626.40625-.425782 12.128906-.425782 12.535156 0 22.5 17.816406 40.921876 40.085938 41.902344v18.695313c0 62.269531 1.042968 64.125-3.160156 76.472656-14.125 41.402344-71.550782 73.960937-91.148438 73.960937-22.453125-.011718-94.3125-42.59375-94.3125-92.292968zm135.859375 108.292968c5.320313 0 27.238281 5.054688 32.683594 8.386719v22.632813c-2.429688-1.757813-5.304688-4.390625-10.984375-4.390625-4.242188 0-3.808594.265625-35.226563 13.625l11.496094-12.394531c2.699219-2.910157 2.03125-3.6875 2.03125-27.859376zm-114.359375 7.539063c10.957031-4.109375 20.398438-6.238281 31.25-7.539063 0 24.332032-.617188 24.902344 1.910156 27.738282l11.234375 12.648437-28.414062-12.375c-5.992188-2.695312-11.980469-.925781-14.609375.976563l-22.914063 16.546875c.597657-17.726563 7.664063-30.183594 21.542969-37.996094zm65.238281 142.53125h-125.996093c-12.261719 0-22.234376-9.972656-22.234376-22.238281 0-38.488282 16.859376-75.628906 49.328126-101.296875-1.996094 6.429687-3.148438 13.890625-3.046876 22.550781.132813 11.5 13.890626 17.15625 22.457032 9.851562l23.773437-17.160156c.765625-.082031 55.078125 24.265625 55.71875 24.539063zm-18.84375-130.238281c0-15.5625 0-11.941406 0-27.738282 21.015625 9.253907 31.726563 9.289063 52.824219 0v27.648438l-27.023438 29.121094zm33.984375 130.238281v-84.398437c3.183594-1.675782 55.1875-23.957032 55.703125-23.894532l10.960938 7.914063v77.535156c0 8.570313 2.847656 16.484375 7.652343 22.84375zm76.679688-168.867187c-4.84375 2.292968-8.292969 6.921874-9.308594 10.984374-11.71875-4.246093-22.300781-6.097656-33.96875-7.472656h.011719c28.835937-16.433594 58.214843-43.996094 66.277343-75.757812 3.324219-.828125 6.503907-2.007813 9.492188-3.519532 0 13.371094-1.226562 40.441407 12.695312 74.007813-40.222656 0-40.058593-.71875-45.179687 1.738281-.011719.007813-.011719.007813-.019531.019532zm215.015625 146.023437c0 12.597656-10.257813 22.84375-22.855469 22.84375-7.035156 0-159.296875 0-164.191406 0-12.597656 0-22.84375-10.246094-22.84375-22.84375v-64.695313c5.984375 5.875 13.425781 10.265626 21.734375 12.578126v10.40625c0 6.925781 5.632812 12.570312 12.566406 12.570312h13.191406c6.289063 0 11.5-4.636719 12.425781-10.660156.21875 0 .144532-10.253906.144532-10.46875h89.757812v8.558594c0 6.925781 5.640625 12.570312 12.566406 12.570312h13.191407c6.9375 0 12.570312-5.644531 12.570312-12.570312v-10.40625c8.304688-2.3125 15.753907-6.710938 21.742188-12.585938zm-164.972657-50.269531v5.984375h-8.042968v-5.984375zm-8.042968-15.140625v-6.28125h8.046875v6.28125zm136.132812 15.140625v5.984375h-8.046875v-5.984375zm-8.046875-15.140625v-6.28125h8.042969v6.28125zm44.929688-35.269531c0 14.65625-8.984375 27.253906-21.742188 32.5625v-6.144532c0-6.925781-5.632812-12.570312-12.570312-12.570312h-13.191407c-6.925781 0-12.566406 5.644531-12.566406 12.570312v8.851563c-32.699218 0-55.921875 0-89.757812 0 0-9.160157.015625-9.042969-.03125-9.722657-.3125-4.640624-3.160156-8.597656-7.175782-10.496093-3.261718-1.539063-4.460937-1.203125-18.554687-1.203125-6.972656 0-12.566406 5.675781-12.566406 12.570312v6.144532c-12.617188-5.199219-21.734375-17.824219-21.734375-32.5625 0-31.753907-.175782-29.652344.273437-30.554688 1.09375-2.183594-10.859375-1.402344 207.074219-1.402344 1.390625 0 2.542969 1.140625 2.542969 2.542969zm0 0"/></svg>