<svg height="512" viewBox="0 0 64 64" width="512" xmlns="http://www.w3.org/2000/svg"><g id="Filled_outline" data-name="Filled outline"><path d="m17 9v-6h-6v12h6v4h6v-10z" fill="#d9176c"/><path d="m41 49v-4h-6v10h6v6h6v-12z" fill="#d9176c"/><path d="m17 31v-6h-6v12h6v4h6v-10z" fill="#8ec13f"/><path d="m43 9h-6v6h12v-6h4v-6h-10z" fill="#d9176c"/><path d="m35 39v-8h6v14h-6v4h-6v-10z" fill="#32b1cc"/><path d="m35 25h-6v-6h12v6h4v6h-10z" fill="#8ec13f"/><path d="m17 19v-4h-6v10h12v-6z" fill="#32b1cc"/><path d="m29 25v-6h-6v6h-6v6h18v-6z" fill="#fcf05a"/><path d="m35 55v-6h-6v6h-6v6h18v-6z" fill="#fcf05a"/><path d="m10 2v36h6v4h8v-10h10v6h-6v16h-6v8h26v-14h-6v-16h4v-8h-4v-6h-18v-10h-6v-6zm2 14h4v4h6v4h-10zm10 24h-4v-4h-6v-10h4v6h6zm8 0h6v-8h4v12h-6v4h-4zm10 20h-16v-4h6v-6h4v6h6zm6-10v10h-4v-6h-6v-8h4v4zm-16-30h10v6h4v4h-8v-6h-6zm-6 0h4v6h6v4h-16v-4h6zm-2-10v8h-4v-4h-6v-10h4v6z"/><path d="m50 10h4v-8h-12v6h-6v8h14zm-2 4h-10v-4h6v-6h8v4h-4z"/></g></svg>