<?xml version="1.0" encoding="UTF-8"?>
<svg xmlns="http://www.w3.org/2000/svg" viewBox="0 0 512 512" width="512" height="512"><g id="Fill_out_line" data-name="Fill out line"><path d="M368,72c24,0,40,8,40,56s-8,112-48,120-72,40-72,56V72Z" style="fill:#f57a08"/><path d="M431.9999,447.799A40.05968,40.05968,0,0,1,392,488H376v8H136V472s21.59009-132.03,64.32007-149.28c7.67993-3.1,13.98-5.99,18.13989-9.24,3.54-2.77,5.54-5.8,5.54-9.48,0-32-56-32-56-88,0-80-16-152,96-152s88,80,88,112l2.72432-2.72434a17.54082,17.54082,0,0,1,11.6514-5.26336A16.96914,16.96914,0,0,1,384,184.97v3.54a16.974,16.974,0,0,1-10.67,15.76L346.78,214.89C331.51,265.23,288,271.02,288,304a14.13574,14.13574,0,0,0,4.33008,10.2c4.86987,5.01,13.51,8.69,24.2699,12.61,31.12587,11.355,79.907,24.76136,105.82671,78.60342a97.27726,97.27726,0,0,1,9.57169,41.797Q431.9996,447.50418,431.9999,447.799Z" style="fill:#f5a971"/><path d="M431.9999,447.799A40.05968,40.05968,0,0,1,392,488H376v8H136V472s17.48-106.92,52.13-140.9a38.037,38.037,0,0,1,12.19007-8.38c7.67993-3.1,13.98-5.99,18.13989-9.24L256,336l36.33008-21.8c4.86987,5.01,13.51,8.69,24.2699,12.61,2.84,1.04,5.82995,2.09,8.94006,3.19,31.12309,11.0302,73.94414,26.71259,97.39016,76.46919a96.4437,96.4437,0,0,1,9.06807,40.71539Q431.99958,447.49121,431.9999,447.799Z" style="fill:#e7f2da"/><path d="M325.54,330,272,368l-15.93994-32L240.13,368l-52-36.9a38.037,38.037,0,0,1,12.19007-8.38c7.67993-3.1,13.98-5.99,18.13989-9.24L256,336l36.33008-21.8c4.86987,5.01,13.51,8.69,24.2699,12.61C319.43994,327.85,322.42993,328.9,325.54,330Z" style="fill:#b1cdb4"/><path d="M431.9999,447.799A40.05968,40.05968,0,0,1,392,488H376v8H136V472s6.5-73.34,28.88-116.73a106.43015,106.43015,0,0,1,5.33-9.28c6.19006-9.54,13.4-16.74,21.79-20,2.90991-1.13,5.7-2.21,8.32007-3.27L256,448l60.6-121.19c8.37,3.05,18.01,6.25,28.14,10.34,2.43994.99,4.9,2.02,7.38,3.13,25.86564,11.44157,53.60428,29.61869,70.8458,66.26569a96.39313,96.39313,0,0,1,9.03249,40.64216Q431.99958,447.49283,431.9999,447.799Z" style="fill:#03999c"/><path d="M248,416H200s-8,8-8,40,8,32,8,32h48Z" style="fill:#e7f2da"/><path d="M368,488H248c-16,0-24-8-24-32s8-40,24-40H368Z" style="fill:#03999c"/><path d="M352,176c-24,0-24-56-24-72-8,16-32,16-56,16s-64-8-64-32c0,24-16,32-40,32s-40-56,0-80c32-16,48,0,48,0,16-16,48-16,96-16s56,48,56,48v81.15291Z" style="fill:#f57a08"/><path d="M272,268.22a7.59712,7.59712,0,0,1-3.02,6.05l-2.8,2.1,1.69007,3.37a12.807,12.807,0,0,1-2.4,14.79,11.56665,11.56665,0,0,1-1.47,1.25V296a23.42009,23.42009,0,0,1-14.06006,21.46C243.21,320.4,235.80005,324.2,232,328c-8,8-16,32-16,32l-96,48,48-88h8s8-8,8-24-8-16,0-32,24-16,24,0v16s16,0,24-8l16.1-16.1a8.05525,8.05525,0,0,1,12.9,2.09,8.07637,8.07637,0,0,1,.84009,3.14A7.55194,7.55194,0,0,1,272,268.22Z" style="fill:#f5a971"/><path d="M168,320c0,16,8,40,24,48s32,0,32,0-24,88-40,104l-64-64Z" style="fill:#03999c"/><path d="M224,368s-24,88-40,104-96,24-96-32,56-80,56-80l6.5-3.0625Z" style="fill:#03999c"/><path d="M176,320c8,24,18.947,32,42.947,32l3.41135-8.07565L224,368s-16,8-32,0-24-32-24-48Z" style="fill:#e7f2da"/><circle cx="280" cy="184" r="8"/><circle cx="200" cy="184" r="8"/><path d="M236,220h4a4,4,0,0,0,0-8h-4a8,8,0,0,1,0-16h4a4,4,0,0,0,0-8h-4a16,16,0,0,0,0,32Z"/><path d="M237.17139,242.82861a4.00088,4.00088,0,0,0,5.65722,0c13.6416-13.64209,26.85254-7.50537,27.38233-7.251a4,4,0,1,0,3.57812-7.15528c-.75879-.37939-18.7832-9.08447-36.61767,8.749A4.0006,4.0006,0,0,0,237.17139,242.82861Z"/><path d="M174.21094,67.57764a3.99725,3.99725,0,0,0,5.3667-1.78858c5.97216-11.94287,17.355-6.834,18.64843-6.2041a3.99994,3.99994,0,0,0,3.563-7.1626A25.98249,25.98249,0,0,0,191,50c-5.68994,0-13.53125,2.11865-18.57764,12.21094A4.00038,4.00038,0,0,0,174.21094,67.57764Z"/><path d="M200,68c-10.28027,0-20,9.71973-20,20a4,4,0,0,0,8,0c0-5.83154,6.16846-12,12-12a4,4,0,0,0,0-8Z"/><path d="M224,60a3.98881,3.98881,0,0,0,2.82861-1.17139c14.01075-14.01123,35.69678-7.103,35.90625-7.03369a4.00025,4.00025,0,0,0,2.53028-7.58984c-1.07618-.3584-26.54688-8.58057-44.09375,8.96631A4,4,0,0,0,224,60Z"/><path d="M320,52c13.74121,0,20,14.51416,20,28a4,4,0,0,0,8,0c0-9.16406-2.36963-17.76514-6.67188-24.21875C336.18994,48.07373,328.81494,44,320,44a4,4,0,0,0,0,8Z"/><path d="M304,68c13.83154,0,20,6.16846,20,20a4,4,0,0,0,8,0c0-18.31787-9.68213-28-28-28a4,4,0,0,0,0,8Z"/><path d="M340,96a4.0002,4.0002,0,0,0,4,4c4.978,0,8.35352,1.82715,10.31836,5.58594A16.06929,16.06929,0,0,1,356,112a4,4,0,0,0,8,0c0-6.91748-4.18018-20-20-20A4.0002,4.0002,0,0,0,340,96Z"/><path d="M360,92c5.83154,0,12,6.16846,12,12a4,4,0,0,0,8,0c0-10.28027-9.71973-20-20-20a4,4,0,0,0,0,8Z"/><path d="M213.69092,168a4.26919,4.26919,0,0,0,1.34875-8.31976l-18.3717-6.11737a7.99991,7.99991,0,0,0-8.18872,1.93792l-5.66406,5.673A4,4,0,0,0,185.646,168Z"/><path d="M266.30908,168H294.354a4,4,0,0,0,2.83081-6.82617l-5.66406-5.673a7.99991,7.99991,0,0,0-8.18872-1.93792l-18.3717,6.11737A4.26919,4.26919,0,0,0,266.30908,168Z"/><path d="M401.6,354.44c-21.83-18.09-48.79993-25.91-70.48-32.2C317.5,318.29,296,312.83333,296,304c0-4.73,5.85-14.67,18.71-25.32,13.61011-11.28,30.69006-19.6,46.86011-22.84C377.30005,252.7,389.89,242.25,399,224.78c11.28-21.61,17-54.18,17-96.78,0-24.86-4.12-41.15-12.98-51.27-6.7-7.66-15.86011-11.66-28.73-12.54a78.06413,78.06413,0,0,0-9.63013-20.63C356.27,30.99,340.33008,16,312,16c-46.42993,0-77.4,0-96.51,13.95-8.58008-4.72-25.75-9.76-51.07007,2.89C137.5625,48.6875,131.88,77.51,137.81006,98.9c4.34,15.69,14.16992,26.44,25.72,28.67005-2.92,18.56-2.43994,39.61-1.93994,61.72.2,8.7.40991,17.7.40991,26.71,0,18.12,5.31006,32.62,16.65,45.27,0,.02-.01.03-.02.05-5.6,11.2-4.64,16.51-2.53,23.34A33.80479,33.80479,0,0,1,178,296c0,9.29-3.06006,15.26-4.9,18H168a5.99563,5.99563,0,0,0-5.27,3.13l-20.12,36.89a114.11983,114.11983,0,0,0-30.69007,20.58C92.35,392.78,82,415.39,82,440c0,27.24,17.82007,45.28,48,49.06V496h12V485.71c14.96-.03,33.01-3.08,43.55005-8.91a40.8933,40.8933,0,0,0,3.29,10.78C192.75,495.39,198.37,496,200,496H392c13.93994,0,25.92993-4.61,34.65991-13.34S440,461.94,440,448C440,406.45,427.43994,375.84,401.6,354.44ZM327.78,333.77c5.22,1.51,10.75,3.11,16.42993,4.94L333.12,372H312a3.99839,3.99839,0,0,0-3.33008,6.22L323.03,399.76,313.01,412H278.47l40.43-80.85C321.78,332.02,324.75,332.89,327.78,333.77Zm-140.21-52.66c-1.42-4.59-2.4034-6.81832,3.01-16.57,3.79492,3.55377,18.13867,13.835,22.46,17.81a3.98325,3.98325,0,0,0,3.22.85c5.61-.95,13.38-3.18,18.57007-8.37l16.09985-16.1a4.04757,4.04757,0,0,1,6.49,1.05,4.05983,4.05983,0,0,1-1.18994,5.05L229.6,284.8a4,4,0,0,0,4.8,6.4l26.63-19.97a12.08939,12.08939,0,0,0,4.37-6.41,3.37557,3.37557,0,0,1,1.08.49,3.484,3.484,0,0,1,1.52,2.91,3.57623,3.57623,0,0,1-1.41992,2.85L237.6,292.8a4,4,0,0,0,4.8,6.4l22.27991-16.71A8.77977,8.77977,0,0,1,262.64,291.7a8.67917,8.67917,0,0,1-2.29,1.65l-14.14,7.07A4.0008,4.0008,0,0,0,248,308a4.11635,4.11635,0,0,0,1.79-.42l8.83-4.42a19.42116,19.42116,0,0,1-10.27991,10.63c-9.18018,4.01-15.63013,7.84-19.17017,11.38-3.26,3.26-6.77991,9.02-10.45,17.1a.14231.14231,0,0,0-.02.06.13818.13818,0,0,0-.03.04l-2.35986,5.59c-18.95007-.52-28.1001-6.97-34.99-24.94995C183.87,319.87,190,310.79,190,296A45.592,45.592,0,0,0,187.57007,281.11Zm49.22,48.03,13.98,8.38L238.45,362.16l-10.3999-6.94L226.49,344.52c3.83008-8.23,6.64-11.99,8.34009-13.69A19.37153,19.37153,0,0,1,236.79,329.14ZM235.62,412H217.84009c2.72-8.73,5.12988-17.08,7.07983-24.08Zm-7.39-36.34c.77-2.96,1.78-6.97,1.78-6.97l-.41-2.82,8.18005,5.46a4.00012,4.00012,0,0,0,5.8-1.54L256,344.94l12.41992,24.85a3.99739,3.99739,0,0,0,5.90015,1.46l24.23-17.3L269.53,412H244.38Zm82.95-46.97-4.98,9.97-32.72,23.36-12.25-24.5,30.54-18.31C296.59009,323.08,303.37,326.03,311.17993,328.69ZM168,116c-7.78,0-15.26-8.16-18.63-20.3-4.70008-16.98-.16-39.68005,20.55993-52.19C191.26,32.89,204.5,37.33,210.5,40.92l2.35,1.4a6.01162,6.01162,0,0,0,6.76-.4l2.16-1.68C237.53,28,267.15991,28,312,28c23.03,0,35.90991,12.08,42.66992,22.22A66.13819,66.13819,0,0,1,363.14,68.8l.7699,2.78A6.00551,6.00551,0,0,0,369.4,75.95l2.88.15c10.29.5,16.99,3.14,21.71,8.53C400.73,92.33,404,106.52,404,128c0,40.65-5.26,71.35-15.64,91.23-7.35,14.09-17.15,22.45-29.14,24.85a113.62535,113.62535,0,0,0-31.28,11.38A101.01047,101.01047,0,0,0,350.03,217.9l24.79-9.92A20.85575,20.85575,0,0,0,388,188.51v-3.54a20.97282,20.97282,0,0,0-35.8-14.83l-1.73,1.74c-5.28-.86-11.77-6.51-15.54-26.62C332,129.63,332,111.67,332,104a4.00253,4.00253,0,0,0-7.58008-1.79C317.53,116,294.38,116,272,116c-13.81006,0-28.6-2.52-39.56006-6.73C218.88,104.05,212,96.9,212,88a4,4,0,0,0-8,0C204,106.63,194.0625,115.875,168,116Zm6,100c0-9.15-.21-18.22-.40991-26.99-.55-23.98-1.06006-46.67,2.85986-65.39,17.24-1.6,28.28-8.4,32.96-20.34,3.81006,4.84,10.09009,9.58,20.15015,13.45C241.39,121.28,257.26,124,272,124c19.76,0,40.05005,0,52.1-9.19.54,23.95,4.13,65.19,27.9,65.19a4.00413,4.00413,0,0,0,2.83008-1.17L357.86,175.8A12.96835,12.96835,0,0,1,380,184.97v3.54a12.90928,12.90928,0,0,1-8.15,12.04L345.29,211.18a4.00864,4.00864,0,0,0-2.34009,2.55c-7.5,24.72-22.04993,38.21-34.88989,50.11C295.15,275.81,284,286.15,284,304a17.81013,17.81013,0,0,0,2.38,9.11L256,331.34l-11.48-6.9c1.97-1.02,4.29-2.12,7.03-3.32a27.426,27.426,0,0,0,16.38989-23.43c5.39339-5.065,6.87256-12.8775,3.31006-20.13a11.36951,11.36951,0,0,0,4.75-9.34,11.551,11.551,0,0,0-11.21-11.54,12.05026,12.05026,0,0,0-19.52-3.61l-16.1001,16.1c-3.23,3.23-8.27991,4.93-12.49,5.81l-1.46-1.21c-11.0533-9.02-16.13664-11.81163-23.48-19.05a4.01825,4.01825,0,0,0-3.76-1.04C178.34009,243.13,174,231.37,174,216Zm-.1,110c10.93331,29.16667,30.35,29.84,46.15,29.84l1.30994,8.95c-34.69332,13.12669-46.985-21.60248-49-38.79Zm11.5,141.17c-6.6,6.6-27.39,10.54-43.67,10.54C120.625,477.71,94,470.35,94,440c0-21.37,8.67993-40.32,25.80005-56.34a109.299,109.299,0,0,1,18.87988-14.08L118.24,407.04a4.00282,4.00282,0,1,0,7.03,3.83l40.81006-74.83C178.5,384,213.0625,375.875,220.51,373.58,212.57007,404.02,196.93994,455.63,185.4,467.17ZM200.77,484a6.71893,6.71893,0,0,1-1.18994-1.79c-1.04-2.07-2.61011-6.72-3.27-16.38995C202.88,455.11,209.59009,437.4,215.28,420h14.8999C223.63,427.44,220,439.79,220,456c0,12.93,2.34009,22.13,7.29,28Zm217.3999-9.83C411.74,480.6,402.68994,484,392,484H248c-12.35,0-20-4.68-20-28,0-10.82,1.95-36,20-36H368a4,4,0,0,0,0-8H323.35l7.75-9.47a4.01061,4.01061,0,0,0,.2301-4.75L319.47,380H336a3.99143,3.99143,0,0,0,3.79-2.73l12.01-36.01c14.52,5.11,29.49,11.93,42.1499,22.42C416.86,382.66,428,410.25,428,448,428,458.69,424.6,467.74,418.16992,474.17Z"/></g></svg>
