<svg id="filled_outline" height="512" viewBox="0 0 512 512" width="512" xmlns="http://www.w3.org/2000/svg" data-name="filled outline"><path d="m488 80h-288v-40a16 16 0 0 1 16-16h256a16 16 0 0 1 16 16z" fill="#548aff"/><path d="m488 80v272a16 16 0 0 1 -16 16h-256a16 16 0 0 1 -16-16v-272z" fill="#e0edff"/><path d="m120 288v-16a16 16 0 0 0 16-16v-40h-56v72z" fill="#ffceb6"/><path d="m80 256-16-24v-16a32 32 0 0 1 32-32h40a16 16 0 0 1 16 16 16 16 0 0 1 -16 16h-16l-16 40z" fill="#c47220"/><path d="m318.50977 220.47-6.50977 19.53v32l-51.21 68.28a69.29155 69.29155 0 0 1 -81.18018 22.76l-4.18994-1.68-23.41988-9.36v72l-8 24h-112l-8-24v-96a40.0017 40.0017 0 0 1 40-40h88.45a32.06589 32.06589 0 0 1 14.31 3.38l31.83008 15.92 9.40992 4.7 56-48v-16a15.97886 15.97886 0 0 1 16-16l26.71973-20.04a7.617 7.617 0 0 1 11.79 8.51z" fill="#ffceb6"/><path d="m32 448h112v48h-112z" fill="#718799"/><path d="m198.59009 307.3-23.17017 54.06-23.41992-9.36v72l-8 24h-112l-8-24v-96a40.0017 40.0017 0 0 1 40-40h88.45a32.06589 32.06589 0 0 1 14.31 3.38z" fill="#548aff"/><path d="m318.40039 276.7998a8.00222 8.00222 0 0 0 1.59961-4.7998v-30.70166l6.10156-18.30322a15.53333 15.53333 0 0 0 -3.77246-15.9795 15.69161 15.69161 0 0 0 -20.4141-1.45162l-24.81348 18.61036a24.03414 24.03414 0 0 0 -21.10152 23.82564v12.32031l-49.17285 42.14893-36.49215-18.2461a40.20652 40.20652 0 0 0 -17.88871-4.22314h-24.44629v-1.37109a24.04118 24.04118 0 0 0 16-22.62891v-33.37616a23.9979 23.9979 0 0 0 -8-46.62384h-40a40.04552 40.04552 0 0 0 -40 40v16a7.99983 7.99983 0 0 0 1.34375 4.4375l14.65625 21.98438v21.57812h-8a48.054 48.054 0 0 0 -48 48v96a8.01 8.01 0 0 0 .41016 2.52979l7.58984 22.76953v46.70068h16v-40h96v40h16v-46.70068l7.58984-22.76953a8.01 8.01 0 0 0 .41016-2.52979v-60.18359l16.63672 6.65429a77.3058 77.3058 0 0 0 90.55566-25.39306zm-246.40039-60.7998a24.02718 24.02718 0 0 1 24-24h40a8 8 0 0 1 0 16h-16a7.99975 7.99975 0 0 0 -7.42773 5.02881l-13.98827 34.97119h-14.30275l-12.28125-18.42236zm16 48h16a7.99975 7.99975 0 0 0 7.42773-5.02881l13.98827-34.97119h2.584v32a8.00917 8.00917 0 0 1 -8 8 8.00008 8.00008 0 0 0 -8 8v8h-24zm66.9707 80.57227a7.99953 7.99953 0 0 0 -10.9707 7.42773v70.70166l-5.76562 17.29834h-100.46876l-5.76562-17.29834v-94.70166a32.03635 32.03635 0 0 1 32-32h88.44629a24.11668 24.11668 0 0 1 10.73242 2.53369l25.08447 12.5423-17.12671 39.96258zm99.4209-9.09473a61.24884 61.24884 0 0 1 -68.346 21.39233l16.554-38.62579 1.82227.91119a7.99828 7.99828 0 0 0 8.78417-1.081l56-48a7.99987 7.99987 0 0 0 2.79396-6.07427v-16a8.00917 8.00917 0 0 1 8-8 7.9984 7.9984 0 0 0 4.7998-1.6001l25.73438-19.30078-6.124 18.37109a8.01 8.01 0 0 0 -.41018 2.52979v29.3335z"/><path d="m472 16h-256a24.0275 24.0275 0 0 0 -24 24v240h16v-192h272v264a8.00917 8.00917 0 0 1 -8 8h-208v16h208a24.0275 24.0275 0 0 0 24-24v-312a24.0275 24.0275 0 0 0 -24-24zm-264 56v-32a8.00917 8.00917 0 0 1 8-8h256a8.00917 8.00917 0 0 1 8 8v32z"/><circle cx="224" cy="48" r="8"/><circle cx="248" cy="48" r="8"/><circle cx="272" cy="48" r="8"/><path d="m256 136v-16h-16a8.00008 8.00008 0 0 0 -8 8v48a8.00008 8.00008 0 0 0 8 8h48a8.00008 8.00008 0 0 0 8-8v-44.686l13.65723-13.65722-11.31446-11.31348-48 48 11.31446 11.31348 18.34277-18.34278v20.686h-32v-32z"/><path d="m320 128h32v16h-32z"/><path d="m368 128h88v16h-88z"/><path d="m320 160h64v16h-64z"/><path d="m400 160h16v16h-16z"/><path d="m408 208h48v16h-48z"/><path d="m344 208h48v16h-48z"/><path d="m336 240h80v16h-80z"/><path d="m432 240h16v16h-16z"/><path d="m408 288h48v16h-48z"/><path d="m344 288h48v16h-48z"/><path d="m336 320h80v16h-80z"/><path d="m432 320h16v16h-16z"/></svg>